<?xml version="1.0" standalone="no"?>
<!DOCTYPE svg PUBLIC "-//W3C//DTD SVG 1.1//EN" "http://www.w3.org/Graphics/SVG/1.1/DTD/svg11.dtd" >
<svg xmlns="http://www.w3.org/2000/svg">
<metadata></metadata>
<defs>
<font id="adobe_garamond_probold" horiz-adv-x="1044" >
<font-face units-per-em="2048" ascent="1485" descent="-563" />
<missing-glyph horiz-adv-x="501" />
<glyph unicode="&#xfb01;" horiz-adv-x="1103" d="M46.5 21.5q-1.5 21.5 10.5 31.5l45 6q52 7 65 38.5t13 146.5v405q0 42 -5.5 52t-31.5 10h-73q-12 6 -14.5 22t7.5 25l89 45q28 16 28 45v22q0 185 53 308q118 286 418 286q123 0 207 -55.5t84 -134.5q0 -49 -30.5 -78t-75.5 -29q-57 0 -78 41q-92 174 -189 174 q-103 0 -138.5 -119.5t-35.5 -394.5v-16q0 -28 9 -36.5t42 -8.5h175q51 0 101.5 3t86 7.5t62.5 8.5t42.5 7t16.5 3q20 0 26 -17q-6 -95 -6 -246v-329q0 -81 5.5 -115t20.5 -49t52 -21l37 -6q11 -10 9.5 -31.5t-13.5 -27.5q-114 6 -221 6q-106 0 -201 -6q-13 6 -15 27.5 t9 31.5l24 4q52 9 65 40.5t13 146.5v307q0 45 -0.5 66t-4.5 43.5t-8.5 29t-19 13.5t-29 7.5t-44.5 0.5h-191q-29 0 -36 -10t-7 -54v-403q0 -50 1.5 -77.5t5.5 -50.5t14 -33t23 -15.5t36 -8.5l51 -6q11 -10 9.5 -31.5t-13.5 -27.5q-95 6 -239 6q-93 0 -222 -6 q-13 6 -14.5 27.5z" />
<glyph unicode="&#xfb02;" horiz-adv-x="1103" d="M47.5 21.5q-1.5 21.5 9.5 31.5l45 6q52 7 65 38.5t13 146.5v405q0 42 -5.5 52t-31.5 10h-73q-12 6 -14.5 22t7.5 25l89 45q28 16 28 45v37q0 157 51 293q47 128 155 207t253 79q113 0 203 -53q20 13 48.5 30t37.5 23q20 3 28 -16q-6 -123 -6 -297v-907q0 -115 13 -146.5 t65 -38.5l45 -6q11 -10 9.5 -31.5t-13.5 -27.5q-129 6 -229 6t-211 -6q-12 6 -13.5 27.5t9.5 31.5l32 6q37 6 52 21t20.5 49t5.5 115v413q0 37 -8 45.5t-43 8.5h-246q-29 0 -36 -10t-7 -54v-403q0 -50 1.5 -77.5t5.5 -50.5t14 -33t23 -15.5t36 -8.5l49 -6q11 -10 9.5 -31.5 t-13.5 -27.5q-92 6 -237 6q-90 0 -222 -6q-12 6 -13.5 27.5zM395 872q0 -45 7.5 -55t37.5 -10h244q35 0 43 7t8 38v389q0 60 -38.5 100.5t-98.5 40.5q-203 0 -203 -469v-41z" />
<glyph unicode="&#xfb03;" horiz-adv-x="1658" d="M47.5 21.5q-1.5 21.5 9.5 31.5l45 6q52 7 65 38.5t13 146.5v405q0 42 -5.5 52t-31.5 10h-73q-12 6 -14.5 22t7.5 25l89 45q28 16 28 45v16q0 138 45 264q47 130 150 208.5t252 78.5q141 0 241 -82q134 131 338 131q123 0 207 -55.5t84 -134.5q0 -49 -30.5 -78t-75.5 -29 q-57 0 -78 41q-92 174 -189 174q-103 0 -138.5 -119.5t-35.5 -394.5v-22q0 -24 9 -31.5t42 -7.5h175q51 0 101.5 3t86 7.5t62.5 8.5t42.5 7t16.5 3q20 0 26 -17q-6 -95 -6 -246v-329q0 -81 5.5 -115t20.5 -49t52 -21l37 -6q11 -10 9.5 -31.5t-13.5 -27.5q-114 6 -221 6 t-201 -6q-13 6 -15 27.5t9 31.5l24 4q52 9 65 40.5t13 146.5v301v53.5t-2 39.5t-4 30.5t-8.5 19.5t-12 13.5t-19 6t-26 3.5h-34.5h-191q-29 0 -36 -10t-7 -54v-403q0 -115 13 -146t67 -37l80 -8q11 -10 9.5 -31.5t-13.5 -27.5q-135 6 -266 6q-101 0 -209 -6 q-12 6 -13.5 27.5t9.5 31.5l30 4q52 7 65 39.5t13 147.5v405q0 42 -5.5 52t-31.5 10h-260q-31 0 -37 -9.5t-6 -54.5v-403q0 -81 5.5 -114.5t21 -48t53.5 -20.5l49 -8q11 -10 9.5 -31.5t-13.5 -27.5q-92 6 -237 6q-93 0 -222 -6q-12 6 -13.5 27.5zM395 858q0 -36 6.5 -43.5 t38.5 -7.5h267q13 0 19.5 5.5t7.5 12t1 17.5v43q0 155 43 291q-16 62 -70 109.5t-118 47.5q-34 0 -61 -10t-53 -38t-43 -74.5t-27.5 -124t-10.5 -181.5v-47z" />
<glyph unicode="&#xfb04;" horiz-adv-x="1658" d="M47.5 21.5q-1.5 21.5 9.5 31.5l45 6q52 7 65 38.5t13 146.5v405q0 42 -5.5 52t-31.5 10h-73q-12 6 -14.5 22t7.5 25l89 45q28 16 28 45v16q0 138 45 264q47 130 150 208.5t252 78.5q139 0 239 -82q61 59 145 95t179 36q117 0 207 -53q20 13 48.5 30t37.5 23q20 3 28 -16 q-6 -123 -6 -297v-907q0 -115 13 -146.5t65 -38.5l45 -6q11 -10 9.5 -31.5t-13.5 -27.5q-129 6 -229 6t-211 -6q-12 6 -13.5 27.5t9.5 31.5l32 6q37 6 52 21t20.5 49t5.5 115v413q0 37 -8 45.5t-43 8.5h-246q-29 0 -36 -10t-7 -54v-403q0 -50 1.5 -77.5t5.5 -50.5t14 -33 t23 -15.5t36 -8.5l49 -6q11 -10 9.5 -31.5t-13.5 -27.5q-92 6 -237 6q-90 0 -222 -6q-12 6 -13.5 27.5t9.5 31.5l45 6q52 7 65 38.5t13 146.5v405q0 42 -5.5 52t-31.5 10h-260q-31 0 -37 -9.5t-6 -54.5v-403q0 -81 5.5 -114.5t21 -48t53.5 -20.5l49 -8q11 -10 9.5 -31.5 t-13.5 -27.5q-92 6 -237 6q-93 0 -222 -6q-12 6 -13.5 27.5zM395 858q0 -36 6.5 -43.5t38.5 -7.5h267q13 0 19.5 5.5t7.5 13t1 22.5v37q0 155 43 291q-16 62 -70 109.5t-118 47.5q-34 0 -61 -10t-53 -38t-43 -74.5t-27.5 -124t-10.5 -181.5v-47zM950 872q0 -45 7.5 -55 t37.5 -10h244q35 0 43 7t8 38v389q0 60 -38.5 100.5t-98.5 40.5q-203 0 -203 -469v-41z" />
<glyph horiz-adv-x="2048" />
<glyph horiz-adv-x="2048" />
<glyph unicode="&#xd;" horiz-adv-x="2048" />
<glyph unicode=" "  horiz-adv-x="501" />
<glyph unicode="&#x09;" horiz-adv-x="501" />
<glyph unicode="&#xa0;" horiz-adv-x="501" />
<glyph unicode="!" horiz-adv-x="573" d="M154 102q0 54 37.5 90.5t95.5 36.5q57 0 94 -36.5t37 -90.5q0 -57 -37 -94t-94 -37q-58 0 -95.5 37t-37.5 94zM158 1241q0 41 30 61.5t99 20.5t99 -20.5t30 -61.5q0 -33 -13 -135l-86 -686q-14 -11 -31.5 -11.5t-29.5 11.5l-86 686q-12 95 -12 135z" />
<glyph unicode="&#x22;" horiz-adv-x="897" d="M180 1376q0 32 25.5 45t79.5 13t79 -13t25 -45q0 -31 -12 -102l-62 -332q-13 -10 -30 -10t-31 10l-61 332q-13 77 -13 102zM508 1376q0 32 25 45t79 13t79.5 -13t25.5 -45q0 -31 -12 -102l-62 -332q-13 -10 -30 -10t-31 10l-62 332q-12 71 -12 102z" />
<glyph unicode="#" d="M27 389l26 111h219l86 323h-219l29 111h221l92 344h107l-92 -344h215l92 344h106l-92 -344h203l-23 -111h-211l-86 -323h197l-27 -111h-200l-103 -383h-104l102 383h-217l-102 -383h-105l103 383h-217zM379 500h215l86 323h-215z" />
<glyph unicode="$" d="M86 354q6 12 26 13.5t29 -7.5q16 -40 39 -77.5t58 -78.5t87 -71.5t113 -42.5l54 492q-75 28 -131 59t-105.5 74t-75.5 101.5t-26 129.5q0 147 108.5 241.5t302.5 98.5l17 156q10 15 41.5 15t40.5 -15l-17 -158q41 -2 77.5 -8t80.5 -16.5t67 -14.5q15 -39 25.5 -110.5 t9.5 -133.5q-7 -9 -26 -10.5t-29 4.5q-9 29 -23.5 56.5t-38.5 59t-63.5 55.5t-87.5 34l-47 -430l31 -12q75 -30 130 -62t105 -77.5t76.5 -107.5t26.5 -138q-2 -164 -122 -264t-327 -107l-20 -190q-8 -14 -41 -14t-41 14l20 192q-35 1 -69.5 6t-58.5 11t-52 16t-40.5 15.5 t-34 16t-23.5 11.5q-29 41 -48 120t-18 154zM344 1006q0 -121 170 -201l43 399q-103 -4 -158 -61t-55 -137zM520 84q114 4 173 62.5t59 162.5q0 156 -183 238z" />
<glyph unicode="%" horiz-adv-x="1777" d="M104 913q0 54 11 108t36.5 106.5t62 93t91.5 65.5t121 25t121 -25t91.5 -65.5t62 -93t36.5 -106.5t11 -108q0 -53 -11 -106.5t-36.5 -106.5t-62 -93.5t-91.5 -65.5t-121 -25t-121 25t-91.5 65.5t-62 93.5t-36.5 106.5t-11 106.5zM276 913q0 -48 6 -97t20.5 -105 t46.5 -90.5t77 -34.5t77 34.5t46.5 90.5t20 104.5t5.5 97.5t-5.5 97.5t-20 104.5t-46.5 91t-77 35t-77 -35t-46.5 -91t-20.5 -105t-6 -97zM428 -37l827 1372q19 5 44 -8.5t32 -32.5l-831 -1376q-24 -1 -44 11.5t-28 33.5zM1030 369q0 68 19 135t55.5 127t101 97.5 t146.5 37.5t146 -37.5t101 -97.5t55.5 -127t18.5 -135q0 -53 -11 -107t-36.5 -106.5t-61.5 -93.5t-91 -66t-121 -25t-121 25t-91.5 66t-62 93.5t-36.5 106.5t-11 107zM1202 369q0 -48 6 -97t20.5 -105t46.5 -91t77 -35t77 35t46.5 91t20 104.5t5.5 97.5t-5.5 97.5t-20 104.5 t-46.5 90.5t-77 34.5t-77 -34.5t-46.5 -90.5t-20.5 -105t-6 -97z" />
<glyph unicode="&#x26;" horiz-adv-x="1708" d="M143 338q0 62 18.5 117.5t47.5 97.5t71.5 80.5t84 65.5t92.5 53q-1 1 -12.5 10.5t-18.5 16t-20 19t-22 24t-21 27.5t-20 32.5t-15.5 36t-11 41.5t-3.5 45q0 134 94.5 220.5t225.5 86.5q133 0 215 -77.5t82 -186.5q0 -32 -6 -59.5t-20.5 -49.5t-26.5 -38t-35.5 -32.5 t-35 -24.5t-37.5 -22.5t-32 -17.5q112 -73 184 -151.5t160 -213.5q88 118 197 359q29 58 27.5 79.5t-41.5 28.5l-60 10q-13 14 -11 33t17 25h113q203 0 344 12q11 -6 13 -25.5t-9 -31.5l-94 -21q-74 -16 -117.5 -58.5t-101.5 -141.5q-70 -116 -213 -322q-17 -25 4 -59 q69 -109 146 -164.5t180 -55.5q87 0 165 56q15 -2 24 -15t5 -28q-69 -75 -165.5 -111.5t-184.5 -36.5q-73 0 -142 18.5t-98 47.5q-36 36 -98 135q-102 -103 -204 -152t-220 -49q-106 0 -188.5 34t-130 88.5t-71.5 117t-24 127.5zM356 416q0 -127 93.5 -210t228.5 -83 q133 0 237 94q23 20 24.5 34.5t-17.5 43.5q-75 119 -166 221q-43 48 -98 92.5t-89.5 66t-40.5 21.5q-15 0 -47 -24q-54 -37 -89.5 -109t-35.5 -147zM494 1079q0 -62 34 -111.5t105 -101.5q27 -18 33 -18l20 10q68 75 68 197q0 80 -35.5 131t-93.5 51q-55 0 -93 -44.5 t-38 -113.5z" />
<glyph unicode="'" horiz-adv-x="507" d="M150 1376q0 32 25 45t79 13t79 -13t25 -45q0 -31 -12 -102l-61 -332q-14 -10 -31.5 -10t-30.5 10l-61 332q-12 71 -12 102z" />
<glyph unicode="(" horiz-adv-x="655" d="M150 553q0 126 26 253t76 246t132.5 221t188.5 167q12 1 22.5 -11t8.5 -24q-79 -70 -138.5 -174t-93.5 -220.5t-50.5 -231t-16.5 -226.5t16.5 -226.5t50.5 -231t93.5 -220.5t138.5 -174q2 -12 -8.5 -24t-22.5 -11q-106 65 -188.5 167t-132.5 221t-76 246t-26 253z" />
<glyph unicode=")" horiz-adv-x="655" d="M51 -299q79 70 138.5 174t93.5 220.5t50.5 231t16.5 226.5t-16.5 226.5t-50.5 231t-93.5 220.5t-138.5 174q-2 12 8.5 24t22.5 11q106 -65 188.5 -167t133 -221t76.5 -246t26 -253t-26 -253t-76.5 -246t-133 -221t-188.5 -167q-12 -1 -22.5 11t-8.5 24z" />
<glyph unicode="*" horiz-adv-x="860" d="M98 1188q-6 15 2.5 32t22.5 19l254 -123l24 260q9 8 28.5 8t29.5 -8l24 -260l254 123q14 -2 22.5 -19t2.5 -32l-232 -164l230 -160q6 -14 -2.5 -33t-26.5 -22l-248 129l-24 -260q-9 -8 -29 -8t-29 8l-24 260l-248 -129q-18 3 -26.5 22t-2.5 33l230 160z" />
<glyph unicode="+" d="M129 356v129h317v322h154v-322h318v-129h-318v-356h-154v356h-317z" />
<glyph unicode="," horiz-adv-x="522" d="M109 -193q176 56 176 183q0 25 -10 46t-27 34t-31 21t-32 14.5t-19 7.5q-47 23 -47 75q0 46 34.5 77.5t92.5 31.5q66 0 119 -58.5t53 -164.5q0 -125 -81 -208t-206 -120q-45 16 -22 61z" />
<glyph unicode="-" horiz-adv-x="655" d="M66 399q0 38 18 68l487 45q19 -19 19 -68q0 -40 -19 -65l-487 -45q-18 18 -18 65z" />
<glyph unicode="." horiz-adv-x="522" d="M127 106q0 57 38.5 96.5t96.5 39.5q57 0 95 -39.5t38 -96.5t-38 -96t-95 -39q-58 0 -96.5 39t-38.5 96z" />
<glyph unicode="/" horiz-adv-x="710" d="M61 -33l428 1417h160l-428 -1417h-160z" />
<glyph unicode="0" d="M82 641q0 79 11 157t33 154t58 140t83.5 113.5t113 77.5t141.5 28t141.5 -28t113 -77.5t84 -113.5t58.5 -140t33 -154t11 -157q0 -100 -15.5 -193.5t-49.5 -181t-84 -152.5t-125.5 -104t-166.5 -39q-113 0 -200.5 58.5t-138 156.5t-76 213.5t-25.5 241.5zM324 641 q0 -70 3 -136.5t15.5 -153t32.5 -148.5t58 -106t89 -44t89 44t58.5 106.5t32.5 148.5t15.5 152.5t3.5 136.5t-3.5 136.5t-15.5 152.5t-32.5 148.5t-58.5 106.5t-89 44t-89 -44t-58 -106t-32.5 -148.5t-15.5 -153t-3 -136.5z" />
<glyph unicode="1" d="M228.5 1158q-0.5 18 7.5 24q255 49 397 129q19 -3 22 -19q-6 -65 -6 -248v-765v-65.5t3.5 -49t5.5 -36.5t11 -25t15 -17.5t24 -10.5t31 -8t41 -6l56 -8q11 -9 9.5 -32t-14.5 -27q-144 6 -282 6q-150 0 -297 -6q-13 4 -14 27t10 32l55 8q28 4 41 6t31 8t24 10.5t15 17.5 t11 25t5.5 36.5t3.5 49v65.5v649q0 110 -16.5 148.5t-81.5 45.5l-98 11q-9 7 -9.5 25z" />
<glyph unicode="2" d="M45 31q174 154 307 293q297 305 297 573q0 125 -66 204t-177 79q-82 0 -141 -46.5t-111 -134.5q-20 -3 -35.5 5t-18.5 26q56 134 170 207.5t258 73.5q161 0 259 -96t98 -244q0 -103 -54.5 -209.5t-187.5 -247.5l-168 -176q-96 -100 -96 -133q0 -29 63 -29h240 q111 0 155 22.5t91 106.5q10 7 27.5 3t23.5 -15q-43 -223 -100 -299q-120 6 -258 6h-338q-162 0 -226 -6q-21 14 -12 37z" />
<glyph unicode="3" d="M68 18q0 40 27.5 68.5t68.5 28.5q9 0 18 -2t17.5 -5.5t15.5 -7.5t14.5 -10.5t12 -10.5t11 -11.5t9 -10.5t8.5 -10t6 -8q54 -66 113 -66q38 0 88.5 27.5t99.5 75t83 125.5t34 166q0 136 -67.5 223.5t-192.5 87.5q-106 0 -198 -84q-25 3 -40.5 30.5t-5.5 53.5 q18 8 63.5 26.5t76 32t75 36t74.5 46.5t59 54.5t43.5 69t14.5 81.5q0 83 -45.5 128.5t-114.5 45.5q-140 0 -252 -170q-15 -7 -28.5 3.5t-16.5 29.5q51 114 155.5 182t229.5 68q138 0 221.5 -66t83.5 -166q0 -73 -45.5 -135t-173.5 -125q-10 -10 -3 -20t28 -11 q126 -11 211.5 -94t85.5 -227q0 -119 -60.5 -229.5t-155.5 -186t-213 -121t-233 -45.5q-80 0 -141 35t-61 98z" />
<glyph unicode="4" d="M27 444l682 975q18 24 45 27h55q24 0 31.5 -9.5t-6.5 -29.5l-637 -883q-18 -25 -1 -35t66 -10h256q41 0 49 8t8 48v337q0 25 4.5 36.5t20.5 19.5q17 10 78 30.5t82 20.5q15 0 22 -8.5t8 -19.5t1 -36v-387q0 -36 6.5 -42.5t44.5 -6.5h127q15 -12 16 -46t-16 -46h-127 q-36 0 -43.5 -7.5t-7.5 -43.5v-92q0 -112 13 -145.5t64 -39.5l52 -6q11 -7 9 -30t-14 -29q-138 6 -237 6q-146 0 -275 -6q-12 6 -13.5 27.5t9.5 31.5l99 13q51 6 64 37.5t13 140.5v86q0 42 -6.5 49.5t-42.5 7.5h-469q-17 4 -26 21.5t-4 35.5z" />
<glyph unicode="5" d="M115.5 -107.5q-4.5 22.5 9.5 37.5q113 14 213.5 48.5t185 89.5t134 139t49.5 186q0 70 -22.5 126.5t-63.5 94t-91 65t-111.5 42.5t-118 22t-118.5 9q-33 2 -39 12.5t4 50.5l111 399q6 27 17.5 40t35.5 16l533 69q18 -3 18 -18q-22 -102 -80 -168l-424 -55q-42 -6 -53 -15 t-20 -43l-21 -73q-5 -18 3.5 -26.5t37.5 -12.5l144 -25q59 -11 111 -25.5t119 -48t114.5 -78t80.5 -118.5t33 -166q0 -106 -48 -202.5t-127.5 -166.5t-179.5 -123.5t-206.5 -81.5t-206.5 -32q-19 9 -23.5 31.5z" />
<glyph unicode="6" d="M80 494q0 70 12.5 142.5t41 157t84.5 172t134 164.5q73 72 163 128t176.5 87.5t157 49t132.5 24.5q10 -6 13 -24.5t-5 -30.5q-62 -21 -108.5 -40t-110.5 -50t-121.5 -73t-103.5 -93q-74 -81 -124 -187t-70.5 -203t-22.5 -194q-3 -129 22.5 -234.5t82 -171t134.5 -65.5 q96 0 144.5 75t48.5 185q0 156 -64 264.5t-172 108.5q-32 0 -67 -12q-10 3 -15 16t0 25q90 78 217 78q147 0 238.5 -109.5t87.5 -280.5q-4 -193 -127.5 -312.5t-314.5 -119.5q-147 0 -253.5 70.5t-158 187t-51.5 265.5z" />
<glyph unicode="7" d="M55 1026q33 104 70 262q62 -6 217 -6h387q243 0 268 6q15 -8 15 -24q-104 -166 -201 -355l-532 -1036q-29 -3 -58.5 10t-30.5 37l525 995q28 54 47.5 105t19.5 65q0 21 -47 21h-416q-86 0 -134.5 -18t-78.5 -76q-10 -8 -28.5 -4t-22.5 18z" />
<glyph unicode="8" d="M98 301q0 57 21 106.5t61.5 90t84 71.5t104.5 66q-95 48 -164.5 131.5t-69.5 187.5q0 159 114 258t292 99q158 0 261 -82t103 -228q0 -29 -6.5 -56.5t-15.5 -48t-26.5 -42.5t-30 -36t-37 -33t-36.5 -27.5t-39.5 -26.5t-35.5 -24q268 -148 268 -381q0 -114 -62.5 -196.5 t-158.5 -120.5t-211 -38q-62 0 -120.5 11.5t-112.5 37t-94.5 63t-64.5 94t-24 124.5zM295 309q0 -115 64 -185.5t165 -70.5q86 0 144.5 55.5t58.5 145.5q0 113 -73.5 194.5t-213.5 149.5q-74 -59 -109.5 -127.5t-35.5 -161.5zM338 1020q0 -29 10 -56.5t22 -48t38.5 -43.5 t42.5 -35.5t52.5 -33t50 -27.5t52.5 -26q117 94 117 251q0 92 -53 160t-144 68q-88 0 -138 -60.5t-50 -148.5z" />
<glyph unicode="9" d="M82 895q6 187 130.5 301.5t295.5 114.5q105 0 190.5 -43t143.5 -117q112 -139 106 -393q-3 -115 -32.5 -222.5t-104.5 -224.5t-190 -209q-112 -91 -246 -147t-252 -78q-14 6 -19 28t5 34q162 52 290 149q291 225 301 705q3 122 -17.5 218t-70.5 157t-123 61 q-72 0 -125 -67.5t-57 -190.5q-2 -83 23 -161.5t74 -130.5t110 -52q36 0 68 8q12 -4 16.5 -19t-0.5 -28q-80 -56 -195 -56q-137 0 -231 99t-90 264z" />
<glyph unicode=":" horiz-adv-x="522" d="M127 106q0 57 38.5 96.5t96.5 39.5q57 0 95 -39.5t38 -96.5t-38 -96t-95 -39q-58 0 -96.5 39t-38.5 96zM127 672q0 57 38.5 96t96.5 39q57 0 95 -39t38 -96t-38 -96t-95 -39q-58 0 -96.5 39t-38.5 96z" />
<glyph unicode=";" horiz-adv-x="522" d="M109 -193q176 56 176 183q0 25 -10 46t-27 34t-31 21t-32 14.5t-19 7.5q-47 23 -47 75q0 46 34.5 77.5t92.5 31.5q66 0 119 -58.5t53 -164.5q0 -125 -81 -208t-206 -120q-45 16 -22 61zM127 672q0 57 38.5 96t96.5 39q57 0 95 -39t38 -96t-38 -96t-95 -39q-58 0 -96.5 39 t-38.5 96z" />
<glyph unicode="&#x3c;" d="M125 377v92l797 379v-154l-609 -268v-4l609 -270v-152z" />
<glyph unicode="=" d="M129 203v129h789v-129h-789zM129 510v129h789v-129h-789z" />
<glyph unicode="&#x3e;" d="M125 0v152l608 270v4l-608 268v154l797 -379v-92z" />
<glyph unicode="?" horiz-adv-x="675" d="M92 1221q0 45 31.5 73.5t83.5 28.5q77 0 149 -41t121.5 -104t79 -138.5t29.5 -144.5q0 -157 -131 -219l-111 -53q-96 -45 -96 -103q0 -52 18 -102q-8 -14 -25.5 -18t-31.5 6q-33 46 -60.5 109t-27.5 116q0 108 141 172l115 51q100 46 100 119q0 42 -21 70.5t-61.5 44 t-90 22t-116.5 6.5q-29 0 -62.5 27.5t-33.5 77.5zM125 106q0 57 38.5 96.5t96.5 39.5q57 0 95 -39.5t38 -96.5t-38 -96t-95 -39q-58 0 -96.5 39t-38.5 96z" />
<glyph unicode="@" horiz-adv-x="1599" d="M106 362q0 140 43.5 263.5t121 216.5t179.5 160.5t222 102t246 34.5q141 0 257 -45.5t189.5 -122.5t113.5 -176t40 -209q0 -204 -140.5 -337.5t-373.5 -133.5q-62 0 -98 11.5t-44 22.5t-8 23q0 25 14 68l50 110l-5 2q-92 -95 -208.5 -166t-180.5 -71q-43 0 -66.5 26.5 t-23.5 63.5q0 40 39 128.5t119 188.5q207 256 414 256q23 0 44.5 -12t28.5 -33l49 105q26 8 58.5 0t56.5 -25q-11 -27 -114.5 -270.5t-120.5 -284.5q-14 -37 -7 -52t39 -18q92 -9 179.5 38t144.5 141.5t57 210.5q0 147 -67.5 257.5t-181 167t-254.5 56.5q-114 0 -216 -38.5 t-178.5 -105.5t-132 -156.5t-84 -194t-28.5 -214.5q0 -77 16 -150t57 -148t104 -130.5t165.5 -91t232.5 -35.5q158 0 324 68q11 -6 16 -20t2 -25q-86 -48 -193.5 -71t-205.5 -23q-106 0 -205.5 24t-188 75.5t-154.5 125t-104.5 180t-38.5 233.5zM612 242q0 -29 13 -29 q9 0 25.5 5.5t55 30t82.5 64.5q69 62 144.5 171t95.5 163q-8 24 -30.5 39.5t-53.5 15.5q-58 0 -123 -57q-80 -70 -144.5 -197t-64.5 -206z" />
<glyph unicode="A" horiz-adv-x="1284" d="M-61 22q0 17 10 31l61 10q45 8 67.5 26.5t45.5 68.5q18 37 100 250l281 729q38 99 40 128q1 11 -1 21q32 6 66.5 30.5t55.5 45.5l21 22q22 0 35 -16q17 -46 46.5 -140.5t45.5 -140.5l295 -858q35 -103 59.5 -129t102.5 -41l30 -6q12 -10 13 -31v-3q0 -18 -10 -25 q-126 6 -267 6q-34 0 -250 -6q-12 7 -13.5 28.5t7.5 30.5l45 6q57 8 67 26q3 5 2 15q0 22 -15 68l-97 278q-13 40 -26 48t-58 8h-272q-39 0 -47.5 -7t-22.5 -49l-84 -245q-13 -39 -18 -60t-6.5 -37t8.5 -23t21 -10.5t38 -7.5l60 -10q11 -10 9.5 -31.5t-13.5 -27.5 q-23 1 -217 6q-95 0 -203 -6q-12 8 -12 28zM416 602q4 -8 43 -8h213q44 0 52 8q3 3 3 12q0 12 -6 33l-86 246q-9 28 -19 57t-14.5 44t-9.5 29t-8 21t-6 11h-5q-5 -9 -61 -162l-86 -240q-11 -33 -11 -46q0 -3 1 -5z" />
<glyph unicode="B" horiz-adv-x="1284" d="M74 26q0 18 10 27l45 6q29 4 42.5 6.5t29.5 12t22 22.5t12 40t7.5 63t1.5 92v749v66.5t-2 51t-4 40t-7.5 28t-12 21t-17.5 12t-24 9t-32 4.5l-53 6q-11 10 -10.5 30t12.5 27q218 19 467 19q280 0 402 -70q143 -84 143 -266q0 -89 -61.5 -156.5t-170.5 -103.5 q-12 -3 -12 -12q0 -7 17 -13q62 -10 117.5 -34.5t104.5 -65.5t78 -107t29 -149q0 -171 -125 -272q-72 -60 -181.5 -87.5t-283.5 -27.5q-46 0 -130.5 3t-122.5 3q-142 0 -277 -6q-14 6 -14 32zM481 338q0 -61 3.5 -99t15 -72.5t33.5 -52.5t58 -28t89 -10q112 0 189 72t77 202 q0 157 -100 246.5t-271 89.5q-64 0 -79 -10t-15 -43v-295zM481 819q0 -39 13 -47t75 -8q146 0 213.5 61.5t67.5 198.5q0 65 -22.5 115t-60.5 79t-82.5 43.5t-94.5 14.5q-77 0 -93 -12.5t-16 -73.5v-371z" />
<glyph unicode="C" horiz-adv-x="1421" d="M86 668q0 173 69.5 311.5t188.5 230.5q112 85 259.5 129.5t305.5 44.5q182 0 355 -45q14 -3 32.5 -7t24.5 -5q0 -5 4 -63t10 -123t15 -133q-10 -12 -33 -13.5t-33 9.5q-81 299 -397 299q-80 0 -154.5 -22t-141.5 -70.5t-117 -118t-79.5 -171t-29.5 -223.5 q0 -127 30.5 -234.5t82 -183t120.5 -128.5t146 -78t157 -25q297 0 428 305q14 13 34 9.5t28 -17.5q-10 -93 -41.5 -184.5t-57.5 -126.5q-15 -2 -41.5 -10t-29.5 -9q-52 -16 -142.5 -32.5t-177.5 -16.5q-314 0 -524 137q-133 87 -212 230t-79 334z" />
<glyph unicode="D" horiz-adv-x="1605" d="M74 26q0 18 10 27l45 6q29 4 42.5 6.5t29.5 12t22 22.5t12 40t7.5 63t1.5 92v749q0 58 -0.5 86t-4 59.5t-9 43.5t-17.5 24t-27.5 15.5t-40.5 5.5l-43 4q-11 7 -10.5 28.5t12.5 28.5q233 19 512 19q151 0 262.5 -15.5t221.5 -54.5q191 -70 305.5 -230t114.5 -382 q0 -180 -92.5 -338.5t-274.5 -251.5q-192 -98 -508 -98q-69 0 -167 6t-130 6q-125 0 -260 -6q-14 6 -14 32zM481 375q0 -48 1.5 -80t6.5 -67t15 -57t26.5 -43.5t41.5 -32.5t60 -18t81 -7q134 0 236 45.5t165.5 127.5t95 190.5t31.5 240.5q0 296 -156 449t-421 153 q-60 0 -107 -9.5t-59 -19.5q-17 -15 -17 -151v-721z" />
<glyph unicode="E" horiz-adv-x="1187" d="M43 26q0 18 10 27l76 8q29 3 42.5 5.5t29.5 11.5t22 22.5t12 40t7.5 62.5t1.5 92v762q0 56 -1.5 92t-7.5 63t-12 40.5t-22 23t-30 12t-42 6.5l-33 4q-11 10 -9.5 32t13.5 28q117 -6 265 -6h391q236 0 276 6q3 -15 9 -66t12.5 -117.5t11.5 -101.5q-6 -12 -30 -14.5 t-36 6.5q-25 91 -52.5 132t-76.5 54q-74 19 -163 19h-138q-65 0 -76.5 -16t-11.5 -105v-346q0 -40 7 -47.5t42 -7.5h99q140 0 177 13t50 77l14 69q12 11 35.5 10.5t30.5 -12.5q-6 -165 -6 -205q0 -17 6 -215q-7 -10 -30.5 -10.5t-35.5 8.5l-14 82q-10 62 -49 76t-178 14h-99 q-35 0 -42 -8t-7 -47v-260q0 -89 7 -139t28 -74q20 -24 65 -34t167 -11h17q68 0 116 7q54 8 90.5 21.5t64.5 43.5t46 61.5t42 87.5q13 11 35 7t31 -19q-9 -65 -36.5 -160.5t-49.5 -136.5q-135 6 -506 6h-233q-170 0 -308 -6q-14 6 -14 32z" />
<glyph unicode="F" horiz-adv-x="1091" d="M74 26q0 18 10 27l45 6q29 4 42.5 6.5t29.5 12t22 22.5t12 40t7.5 63t1.5 92v762q0 56 -1.5 92t-7.5 62.5t-12 40t-22 23t-29.5 12.5t-42.5 7l-27 4q-11 10 -9.5 32t13.5 28q108 -6 254 -6h388q224 0 288 6q0 -199 4 -295q-6 -12 -28 -14.5t-37 6.5q-15 92 -44.5 137.5 t-86.5 60.5q-67 17 -172 17h-105q-64 0 -75 -16t-11 -103v-367q0 -39 7 -47t42 -8h121q61 0 91.5 1.5t59.5 5.5t41.5 14.5t22 26t15.5 42.5l16 70q9 11 31.5 10.5t29.5 -12.5q-6 -159 -6 -205q0 -24 6 -213q-7 -12 -29.5 -12.5t-31.5 10.5l-16 80q-13 62 -52 76t-178 14 h-121q-35 0 -42 -8t-7 -47v-287q0 -42 0.5 -72t4 -54.5t6 -39.5t11 -27t14.5 -17.5t21 -10.5t25 -6.5t33 -4.5l86 -10q11 -10 9.5 -31.5t-13.5 -27.5q-196 6 -313 6q-136 0 -277 -6q-14 6 -14 32z" />
<glyph unicode="G" horiz-adv-x="1521" d="M86 662q0 134 47 259t141 222q110 117 276 179t378 62q118 0 272 -30q89 -19 131 -19q1 -27 11.5 -133t15.5 -192q-7 -15 -33 -16.5t-33 12.5q-33 147 -135.5 222t-257.5 75q-132 0 -235 -46t-167.5 -128.5t-98 -192.5t-33.5 -242q0 -298 147 -471q77 -91 184 -132.5 t211 -41.5q145 0 183 47q18 27 18 129v74q0 43 -0.5 62.5t-5.5 43t-12 31t-24.5 18t-38 15t-58.5 10.5l-74 13q-11 10 -10.5 31t12.5 28q120 -6 320 -6q117 0 249 6q17 -8 17 -32q0 -18 -13 -27l-36 -7q-58 -9 -73 -34.5t-15 -118.5v-119q0 -120 49 -143q5 -6 4.5 -16.5 t-6.5 -14.5q-21 0 -99 -16q-229 -56 -397 -56q-413 0 -631 226q-89 92 -134.5 214.5t-45.5 254.5z" />
<glyph unicode="H" horiz-adv-x="1662" d="M74 1328q2 24 14 30q135 -6 277 -6t262 6q12 -6 13.5 -29.5t-9.5 -30.5l-35 -6q-30 -5 -42.5 -8t-29.5 -12t-22 -22t-12 -39.5t-8 -62t-1 -91.5v-248q0 -43 16.5 -52t94.5 -9h479q78 0 94.5 9t16.5 52v248q0 56 -1.5 92t-7.5 62.5t-12 40t-22 22.5t-29.5 11.5t-42.5 6.5 l-45 6q-11 7 -9.5 30.5t13.5 29.5q141 -6 277 -6q141 0 264 6q12 -6 13.5 -29.5t-9.5 -30.5l-37 -6q-30 -5 -42.5 -8t-29.5 -12t-22 -22t-12 -39.5t-8 -62t-1 -91.5v-762q0 -56 1.5 -92t7.5 -63t12 -40t22 -22.5t29.5 -12t42.5 -6.5l45 -6q10 -9 10 -27q0 -26 -14 -32 q-135 6 -272 6q-142 0 -277 -6q-12 6 -13.5 27.5t9.5 31.5l45 6q29 4 42.5 6.5t29.5 12t22 22.5t12 40t7.5 63t1.5 92v301q0 41 -16.5 50t-94.5 9h-479q-78 0 -94.5 -9t-16.5 -50v-301q0 -56 1.5 -92t7.5 -62.5t12 -39.5t22 -22t29.5 -11.5t42.5 -6.5l61 -8 q11 -10 9.5 -31.5t-13.5 -27.5q-159 6 -288 6q-144 0 -261 -6q-12 6 -13.5 27.5t9.5 31.5l29 4q29 4 42.5 7t29.5 12.5t22 23t12 40.5t7.5 63t1.5 92v762q0 56 -1.5 92t-7.5 62.5t-12 40t-22 22.5t-29.5 11.5t-42.5 6.5l-45 6q-10 6 -10 25v5z" />
<glyph unicode="I" horiz-adv-x="724" d="M74 26q0 18 10 27l45 6q29 4 42.5 6.5t29.5 12t22 22.5t12 40t7.5 63t1.5 92v762q0 56 -1.5 92t-7.5 62.5t-12 40t-22 22.5t-29.5 11.5t-42.5 6.5l-45 6q-10 9 -10 27v5q2 22 14 28q135 -6 277 -6q137 0 272 6q11 -6 13 -28q0 -3 1 -5q0 -18 -10 -27l-45 -6 q-29 -4 -42.5 -6.5t-29.5 -11.5t-22 -22.5t-12 -40t-7.5 -62.5t-1.5 -92v-762q0 -56 1.5 -92t7.5 -63t12 -40t22 -22.5t29.5 -12t42.5 -6.5l45 -6q10 -9 10 -27q-1 -2 -1 -4q-2 -22 -13 -28q-135 6 -272 6q-142 0 -277 -6q-14 6 -14 32z" />
<glyph unicode="J" horiz-adv-x="724" d="M-88 -344q0 36 27 79.5t67 43.5q28 0 92 -39q57 -37 88 -37q17 0 31 18.5t22 47t12.5 52t6.5 44.5q18 157 18 401v787q0 68 -3.5 107.5t-8.5 65.5t-22 38t-31.5 16.5t-50.5 9.5l-60 8q-11 7 -9.5 30.5t13.5 29.5q159 -6 291 -6q140 0 254 6q12 -6 13 -30q1 -2 1 -5 q0 -19 -10 -25l-28 -4q-27 -4 -40.5 -7t-28.5 -12.5t-21 -23.5t-12 -41t-7.5 -63.5t-1.5 -93.5v-772q0 -284 -45 -396q-53 -131 -168.5 -214t-280.5 -83q-108 0 -108 68z" />
<glyph unicode="K" horiz-adv-x="1400" d="M80 1330q2 22 14 28q126 -6 271 -6q142 0 262 6q12 -6 13.5 -29.5t-9.5 -30.5l-35 -6q-30 -5 -42.5 -8t-29.5 -12t-22 -22t-12 -39.5t-8 -62t-1 -91.5v-228q0 -33 1.5 -49.5t9.5 -29.5t24 -13q27 0 61 28.5t93 92.5l209 225q57 57 110 127q28 35 31 50.5t-16 19.5l-64 18 q-12 11 -10 29.5t14 30.5q129 -6 230 -6q3 0 225 6q17 -4 19 -28.5t-13 -31.5q-94 -13 -157 -39.5t-106 -60.5t-124 -113q-45 -45 -128 -128.5t-122 -122.5q-19 -19 -21 -31.5t15 -36.5q271 -357 504 -629q55 -65 151 -78l49 -6q10 -6 10 -25v-6q-2 -24 -14 -28 q-108 6 -262 6q-147 0 -282 -6q-17 6 -18 29t13 30l56 8q24 3 28 18.5t-14 37.5q-18 23 -189 246.5t-216 269.5q-31 31 -50 31q-14 0 -23 -5.5t-14 -12.5t-7.5 -22.5t-2.5 -25v-31.5v-12v-260q0 -56 1.5 -92t7.5 -63t12 -40t22 -22.5t29.5 -12t42.5 -6.5l51 -6 q11 -7 9.5 -30t-13.5 -29q-144 6 -278 6q-150 0 -261 -6q-12 6 -13.5 29t9.5 30l29 4q29 4 42.5 7t29.5 12.5t22 23t12 40.5t7.5 63t1.5 92v762q0 42 -0.5 72t-4 54.5t-6 39.5t-11 27.5t-14.5 18.5t-21 11t-25.5 7t-32.5 5l-39 6q-10 9 -10 27v5z" />
<glyph unicode="L" horiz-adv-x="1146" d="M58 22q0 4 -1 7q0 17 11 24l61 10q30 5 42.5 8t29.5 12t22 22t11.5 39t8 61t1.5 90v762q0 55 -1.5 90t-7.5 61.5t-12 39.5t-22 22.5t-29.5 12.5t-42.5 7l-57 8q-11 7 -10 30.5t14 29.5q153 -6 289 -6q137 0 272 6q13 -6 14.5 -29.5t-10.5 -30.5l-45 -8q-30 -5 -42.5 -8 t-29.5 -12.5t-22.5 -22t-11.5 -39t-7.5 -61.5t-1.5 -90v-719q0 -88 7 -137.5t28 -73.5t64 -34.5t157 -10.5q65 0 99.5 1.5t72 9.5t56.5 20t43 39t41.5 61t42.5 90q15 8 35.5 4t27.5 -16q-12 -65 -39.5 -160.5t-46.5 -136.5q-129 6 -491 6h-213q-164 0 -293 -6q-12 6 -14 28z " />
<glyph unicode="M" horiz-adv-x="1886" d="M51 24v7q0 17 8 22l35 4q72 9 94 40t33 128q15 141 31 475q20 348 20 435q0 72 -25 106t-85 45l-70 12q-10 10 -7.5 33t15.5 27q92 -6 193 -6q143 0 219 6q4 -57 23.5 -122.5t36 -103t53.5 -114.5l225 -473q40 -88 96 -185q22 39 107 213l192 394q8 17 32 65t33.5 68 t28.5 61t29 67t22.5 61.5t20.5 68.5q82 -6 168 -6q129 0 215 6q17 -6 19 -28v-6q0 -18 -13 -26l-67 -10q-67 -10 -89 -41.5t-22 -113.5q0 -520 18 -910q3 -68 14 -101t27.5 -43t53.5 -16l59 -10q15 -6 14 -29.5t-18 -29.5q-132 6 -250 6q-139 0 -274 -6q-13 6 -15.5 28 t11.5 31l55 10q61 10 74.5 36.5t13.5 131.5v838h-4q-54 -112 -123 -256l-176 -360q-136 -279 -209 -467q-6 -6 -24.5 -6t-28.5 6q-44 140 -170 413l-183 394q-51 112 -118 276h-4q-1 -36 -6 -166.5t-7 -179.5q-8 -250 -8 -475q0 -108 13.5 -139.5t76.5 -42.5l68 -13 q11 -9 10.5 -31t-12.5 -28q-114 6 -215 6q-99 0 -219 -6q-13 8 -15 30z" />
<glyph unicode="N" horiz-adv-x="1597" d="M26 1330q2 24 17 28q58 -6 242 -6q67 0 141 6q23 -58 135.5 -196.5t194.5 -227.5l205 -221q28 -30 105.5 -117t129.5 -144.5t61 -62.5q7 7 7 49v400q0 339 -39 403q-24 42 -103 51l-47 6q-14 10 -12.5 33t16.5 27q120 -6 236 -6q104 0 215 6q12 -8 14 -28v-6 q0 -16 -10 -26l-47 -10q-21 -4 -29.5 -6t-23 -7.5t-22.5 -13.5t-13 -20q-13 -29 -20 -102.5t-8 -132t-1 -168.5v-490q0 -313 6 -360q-21 -29 -59 -29h-10q-42 55 -240 281l-479 546q-185 214 -234 258q-6 0 -6 -131v-399q0 -339 37 -403q25 -43 104 -52l46 -6 q14 -10 12 -32.5t-17 -26.5q-114 6 -233 6q-105 0 -213 -6q-12 8 -14 28t10 31l45 10q27 5 39.5 8.5t28 14t22.5 25.5q13 29 19 102.5t7 132t1 168.5v485q0 130 -9 170t-59 82q-32 25 -108 41l-31 6q-9 7 -9 24v8z" />
<glyph unicode="O" horiz-adv-x="1622" d="M86 657q0 207 93 373t260.5 260t379.5 94q172 0 310.5 -58.5t226 -158t134 -226.5t46.5 -269q0 -199 -93.5 -360.5t-258.5 -253t-369 -91.5q-169 0 -308.5 56.5t-230.5 152t-140.5 219.5t-49.5 262zM365 717q0 -74 11 -148t33 -150.5t60.5 -142t88.5 -117t121.5 -81 t156.5 -29.5q90 0 164.5 34.5t133 103.5t91 183.5t32.5 264.5q0 95 -16.5 188t-53.5 180.5t-89.5 153.5t-131.5 106t-173 40q-64 0 -123.5 -18.5t-115.5 -62.5t-97.5 -110t-66.5 -167.5t-25 -227.5z" />
<glyph unicode="P" horiz-adv-x="1204" d="M86 1339q170 19 453 19q286 0 428 -82q81 -48 127.5 -128t46.5 -179q0 -89 -32.5 -160.5t-82 -114.5t-113 -72t-121 -40t-110.5 -11q-35 0 -51 2q-10 9 -12 26t6 26q254 51 254 340q0 130 -79.5 220.5t-213.5 90.5q-75 0 -90 -12.5t-15 -73.5v-895q0 -56 1.5 -92 t7.5 -62.5t12 -40t22 -22.5t29.5 -11.5t42.5 -5.5l76 -8q9 -10 7.5 -31.5t-11.5 -27.5q-182 6 -303 6q-142 0 -265 -6q-12 6 -13.5 27.5t9.5 31.5l33 4q34 4 49.5 9t31.5 17t21.5 38.5t9 66t3.5 107.5v749q0 147 -13 185t-75 45l-72 8q-11 10 -11 29q0 22 13 28z" />
<glyph unicode="Q" horiz-adv-x="1622" d="M86 657q0 207 93 373t260.5 260t379.5 94q138 0 255.5 -38.5t201.5 -106t143.5 -157.5t88 -194t28.5 -216q0 -236 -128.5 -416.5t-334.5 -245.5q-19 -13 19 -43q72 -63 103.5 -89.5t103 -82t131.5 -88.5t114 -49q80 -23 148 -23q45 0 102 21q9 -4 13 -18q2 -6 2 -11 q0 -7 -3 -12q-83 -64 -256 -64q-197 0 -397.5 104.5t-359.5 272.5q-27 27 -41.5 35t-34.5 10q-182 15 -327.5 112t-224.5 247.5t-79 324.5zM365 717q0 -74 11 -148t33 -150.5t60.5 -142t88.5 -117t121.5 -81t156.5 -29.5q90 0 164.5 34.5t133 103.5t91 183.5t32.5 264.5 q0 95 -16.5 188t-53.5 180.5t-89.5 153.5t-131.5 106t-173 40q-64 0 -123.5 -18.5t-115.5 -62.5t-97.5 -110t-66.5 -167.5t-25 -227.5z" />
<glyph unicode="R" horiz-adv-x="1343" d="M73 21v5q0 17 11 27l45 6q29 4 42.5 6.5t29.5 12t22 22.5t12 40t7.5 63t1.5 92v749v66.5t-2 51t-4 40t-7.5 28t-12 21t-17.5 12t-24 9t-32 4.5l-53 6q-11 10 -10.5 30t12.5 27q204 19 471 19q260 0 389 -70q181 -96 181 -299q0 -67 -23.5 -123t-63 -94.5t-78 -63 t-81.5 -42.5q-17 -9 0 -35q109 -183 152 -253.5t103.5 -155t106.5 -122.5q66 -57 142 -63q8 -7 8 -24q0 -11 -4 -17q-50 -12 -135 -12q-144 0 -237.5 61.5t-190.5 208.5q-30 47 -86 146t-76 132q-27 45 -51 57.5t-76 12.5q-46 0 -55 -6.5t-9 -38.5v-262q0 -56 1.5 -92 t7.5 -63t12 -40t22 -22.5t29.5 -12t42.5 -6.5l45 -6q11 -10 9.5 -31.5t-13.5 -27.5q-135 6 -272 6q-136 0 -277 -6q-13 6 -15 27zM481 721.5q0 -8.5 4 -18.5t8.5 -13t17.5 -6t27.5 -3.5t41.5 -0.5q150 0 221 72.5t71 220.5q0 127 -76.5 215t-205.5 88q-79 0 -94 -14.5 t-15 -85.5v-426v-28.5z" />
<glyph unicode="S" horiz-adv-x="1032" d="M76 365q9 15 30 17t33 -9q13 -37 31 -74.5t50 -84t68.5 -82t89 -59.5t109.5 -24q114 0 179 61t65 158q0 91 -48.5 162.5t-160.5 134.5l-88 49q-289 161 -289 396q0 77 29 144t84 119t142 81.5t196 29.5q48 0 90 -5.5t107.5 -20t83.5 -17.5q17 -33 30 -118t13 -158 q-7 -13 -30 -15t-36 9q-71 244 -276 244q-115 0 -173.5 -63t-58.5 -153q0 -67 48.5 -132t146.5 -117l127 -68q55 -29 101 -64.5t88.5 -84.5t66.5 -114.5t24 -139.5q0 -178 -128 -289t-347 -111q-195 0 -336 86q-27 31 -45 123q-16 82 -16 170v19z" />
<glyph unicode="T" horiz-adv-x="1396" d="M31 1096q52 165 80 309q5 8 22 8q16 0 21 -8q7 -37 37.5 -45t140.5 -8h835q78 0 108 9.5t48 43.5q16 8 25 8q19 0 26 -10q-15 -63 -25 -170q-7 -76 -7 -123q0 -19 1 -33q-8 -12 -28.5 -14t-34.5 8q-14 85 -38.5 124.5t-80 57t-166.5 17.5h-116q-40 0 -48 -13t-8 -77v-885 q0 -56 1.5 -92t7.5 -62.5t12 -40t22 -22.5t29.5 -11.5t42.5 -5.5l74 -8q11 -10 9.5 -31.5t-13.5 -27.5q-178 6 -301 6q-121 0 -318 -6q-12 6 -13.5 29t9.5 30l86 10q23 3 33 4.5t25 6.5t21 10.5t14.5 17.5t11 27t6 39.5t4 54.5t0.5 72v885q0 64 -8 77t-48 13h-114 q-145 0 -204.5 -33.5t-115.5 -155.5q-10 -9 -34.5 -4.5t-30.5 19.5z" />
<glyph unicode="U" horiz-adv-x="1523" d="M86 1358q123 -6 264 -6q140 0 275 6q12 -6 13.5 -27t-9.5 -31l-45 -6q-28 -4 -42 -6.5t-30 -12t-22 -23t-12 -40.5t-7.5 -63t-1.5 -92v-469q0 -89 11 -163.5t37.5 -141.5t68.5 -113.5t106.5 -74t147.5 -27.5q194 0 286.5 135.5t92.5 378.5v256q0 341 -39 403 q-24 41 -103 53l-41 6q-14 10 -12.5 32t16.5 26q105 -6 228 -6q103 0 217 6q12 -8 14 -28v-5q0 -16 -10 -25l-45 -10q-19 -4 -29.5 -6.5t-24.5 -8t-22.5 -14t-13.5 -20.5q-13 -28 -20 -101.5t-8 -132.5t-1 -169v-244q0 -327 -135 -473q-142 -154 -402 -154q-284 0 -421 131 q-136 130 -136 439v520q0 56 -1 91.5t-7.5 62.5t-12 40t-22 22.5t-29 12.5t-42.5 8l-35 6q-10 9 -10 26q0 25 14 32z" />
<glyph unicode="V" horiz-adv-x="1331" d="M-36 1332q2 22 16 26q120 -6 247 -6q108 0 271 6q14 -9 14.5 -29t-12.5 -31l-51 -12q-62 -14 -62 -37t100 -272l148 -365q22 -55 67 -156t46 -104q240 557 342 819q19 49 19 72q1 6 -1 10q-6 20 -53 31l-60 14q-11 12 -9.5 32.5t13.5 27.5q126 -6 220 -6q113 0 198 6 q12 -7 12 -30q0 -19 -8 -30l-51 -10q-43 -9 -73 -26.5t-54 -57.5q-20 -35 -46 -87t-42 -87.5t-59 -130.5t-62 -137l-114 -254q-59 -131 -121.5 -288t-91.5 -243q-7 -10 -35 -10q-22 0 -39 10q-53 173 -94 269l-359 862q-44 106 -70.5 138t-86.5 44l-50 10q-9 8 -9 26v6z" />
<glyph unicode="W" horiz-adv-x="1982" d="M-48 1330q2 21 15 28q111 -6 248 -6q103 0 250 6q12 -7 13.5 -28t-7.5 -30l-51 -12q-47 -10 -47 -33q0 -28 49 -137l244 -528q114 -248 143 -295q44 85 137 285q29 64 29 77q0 19 -19 62l-215 455q-29 60 -52.5 82.5t-65.5 31.5l-60 12q-11 10 -9 30.5t15 27.5 q126 -6 222 -6q120 0 243 6q12 -6 13.5 -27.5t-9.5 -30.5l-55 -12q-35 -6 -35 -28q0 -23 19 -68q87 -197 139 -299q31 61 100 221q45 105 45 141q0 23 -41 31l-57 14q-10 12 -8 32t14 26q82 -6 191 -6q87 0 186 6q15 -7 15.5 -29t-11.5 -31l-51 -10q-56 -10 -83.5 -38.5 t-78.5 -121.5q-19 -35 -141 -284q-21 -48 -21 -58q0 -6 17 -49l88 -190q21 -45 63 -139.5t51 -112.5q61 144 182.5 434.5t141.5 339.5q64 154 64 191q0 4 -3.5 7.5t-12 6.5t-15.5 5t-19.5 5.5t-19.5 5.5l-35 10q-14 10 -13.5 30.5t15.5 27.5q114 -6 209 -6q103 0 197 6 q12 -8 14 -26v-6q0 -14 -8 -26l-49 -10q-69 -15 -105.5 -58.5t-95.5 -172.5q-38 -83 -110 -241.5t-110.5 -244t-91 -206.5t-92.5 -222q-15 -37 -35.5 -93.5t-29.5 -76.5q-12 -8 -35 -8q-26 0 -37 8q-15 44 -49 123.5t-60.5 136t-79.5 169t-65 139.5q-166 -336 -260 -568 q-12 -8 -35 -8q-25 0 -36 8q-34 95 -144 328l-395 838q-35 74 -61.5 102.5t-86.5 42.5l-57 14q-9 8 -9 24v6z" />
<glyph unicode="X" horiz-adv-x="1327" d="M-38 23v6q0 15 7 24l56 10q68 12 112 41.5t103 102.5q3 4 111 147.5t171 225.5q31 43 31 59q0 17 -23 51q-50 71 -159 236.5t-146 218.5q-46 67 -82.5 98t-83.5 41l-65 14q-12 12 -10 33t16 27q138 -6 266 -6q170 0 256 6q13 -6 14 -28t-10 -32l-39 -4q-67 -7 -67 -26 q0 -25 51 -103q181 -277 234 -344q46 54 270 387q23 36 26 54l-2 4t-3.5 4t-4.5 3.5t-6 2.5t-7 2t-8.5 2.5t-9 2.5t-10 2.5t-10.5 2.5l-45 10q-14 10 -13.5 30.5t17.5 29.5q120 -6 215 -6q88 0 199 6q13 -7 15 -27t-9 -33l-59 -12q-59 -12 -97 -41.5t-108 -116.5 q-157 -193 -250 -333q-31 -44 -31 -60q0 -19 33 -69q27 -39 89.5 -130.5t96 -139.5t79.5 -112.5t79 -107.5q42 -57 81.5 -81.5t100.5 -33.5l51 -8q10 -8 10 -27q0 -24 -14 -32q-147 6 -288 6q-138 0 -291 -6q-13 6 -15 28t11 31l73 15q43 10 43 26q0 24 -59 113l-35 51 q-13 19 -80.5 121t-117.5 172q-146 -193 -279 -406q-27 -43 -27 -59q0 -18 54 -25l53 -8q12 -10 10.5 -32.5t-14.5 -26.5q-105 6 -238 6q-104 0 -203 -6q-13 10 -15 29z" />
<glyph unicode="Y" horiz-adv-x="1208" d="M-31 1331q3 23 15 27q132 -6 258 -6q192 0 262 6q12 -6 14 -27.5t-10 -32.5l-62 -10q-26 -5 -34.5 -9.5t-8.5 -16.5q0 -26 37 -107q150 -330 238 -491q147 274 240 452q55 110 55 137q0 25 -47 31l-62 14q-11 10 -9.5 31.5t15.5 28.5q135 -6 215 -6q96 0 195 6 q14 -8 14 -31q0 -18 -10 -29l-59 -12q-67 -13 -104 -53.5t-120 -181.5q-66 -110 -194 -344q-47 -82 -61.5 -134.5t-14.5 -154.5v-123q0 -56 1.5 -92t7.5 -63t12.5 -40t23 -22t30.5 -11.5t44 -5.5l78 -8q11 -10 9.5 -31.5t-13.5 -27.5q-190 6 -310 6q-131 0 -297 -6 q-12 6 -13.5 27.5t9.5 31.5l66 8q29 4 42.5 6.5t29.5 11.5t22 22t12 39.5t7.5 62.5t1.5 92v121q0 84 -11.5 126.5t-54.5 127.5l-246 485q-36 70 -61.5 93.5t-91.5 37.5l-54 12q-7 8 -7 22q0 5 1 11z" />
<glyph unicode="Z" horiz-adv-x="1306" d="M53 25q141 177 234 317l450 680q142 216 142 233q0 15 -70 15h-248q-233 0 -303 -70q-54 -54 -94 -156q-15 -10 -37.5 -5t-28.5 20q9 35 29.5 109.5t34.5 129t24 105.5q6 6 17.5 6t17.5 -6q10 -34 49 -42.5t166 -8.5h541q165 0 231 8q23 -7 19 -33q-56 -53 -314 -442 l-331 -500q-6 -9 -29 -44t-43.5 -66t-42.5 -66.5t-35.5 -60t-13.5 -31.5q0 -27 65 -31q82 -4 238 -4q147 0 227.5 10t126.5 37q87 53 150 217q13 9 37 4t28 -20q-13 -100 -42 -198.5t-56 -137.5q-169 6 -379 6h-532q-160 0 -215 -6q-8 2 -12 12q-2 5 -2 11q0 4 1 8z" />
<glyph unicode="[" horiz-adv-x="655" d="M207 -311v1720q57 2 149 2q176 0 242 -8q9 -9 9 -25t-9 -24l-182 -23q-41 -4 -53 -19q-21 -25 -24 -149l-1 -170v-889q0 -243 12 -289q8 -35 35 -43q9 -3 31 -5l182 -23q9 -8 9 -24t-9 -25q-66 -8 -242 -8q-92 0 -149 2z" />
<glyph unicode="\" horiz-adv-x="673" d="M61 1384h160l391 -1417h-159z" />
<glyph unicode="]" horiz-adv-x="655" d="M48 -280q0 16 9 24l183 23q41 4 53 18q20 24 23 146q1 50 1 173v889q0 242 -11 288q-8 37 -35 45q-9 3 -31 5l-183 23q-9 8 -9 24t9 25q66 8 242 8q93 0 150 -2v-1720q-57 -2 -150 -2q-176 0 -242 8q-9 9 -9 25z" />
<glyph unicode="^" d="M113 500l350 782h123l348 -782h-156l-254 592l-254 -592h-157z" />
<glyph unicode="_" horiz-adv-x="1024" d="M0 -154h1024v-102h-1024v102z" />
<glyph unicode="`" horiz-adv-x="778" d="M100 1305q0 19 13.5 32t50.5 33q9 3 23 8.5t21.5 8.5t17.5 5.5t18 2.5q39 0 65 -66l154 -377q-9 -33 -53 -26l-267 299q-38 51 -42 68q-1 6 -1 12z" />
<glyph unicode="a" horiz-adv-x="860" d="M66 170q0 63 36 109.5t134 80.5q112 39 225 82q47 16 47 54l2 53v16q0 77 -26 125q-29 54 -99 53q-44 0 -73.5 -23.5t-35.5 -66.5q-5 -53 -38 -73q-23 -14 -61.5 -25.5t-70.5 -11.5q-38 0 -38 32q0 59 79 132q50 47 146 88t170 41q126 0 193 -62q61 -57 61 -173v-21 l-15 -320q-1 -14 -1 -27q0 -153 100 -153q15 0 31 5.5t26 11t12 5.5q8 0 16 -14q5 -9 4 -18q0 -5 -1 -9q-29 -40 -91 -65t-114 -25q-94 0 -147 58q-24 24 -33 24q-7 0 -55 -28q-84 -54 -175 -54q-99 0 -153.5 58.5t-54.5 140.5zM285 203q0 -45 30 -82t84 -37q51 0 74 28 t25 70l4 148q0 35 -17 35q-24 0 -90 -25q-52 -18 -81 -47.5t-29 -89.5z" />
<glyph unicode="b" d="M58 1345q0 17 10 21q74 22 268 98h3q7 0 15 -4t11 -12q-7 -144 -7 -297v-344q0 -37 17 -37q112 66 215 66q176 0 283.5 -116t107.5 -290q0 -141 -66 -247t-175 -159t-244 -53q-67 0 -129 14t-99.5 28t-44.5 14q-23 0 -51 -33q-4 -2 -14 -2q-6 0 -13.5 5t-7.5 9 q0 1 1.5 34t3 79t1.5 80v923q0 73 -3 102.5t-12 44.5t-32 31l-28 19q-10 7 -10 26zM358 328q0 -146 45 -205q52 -70 138 -70q100 0 156.5 84.5t56.5 218.5q0 173 -79 271t-194 98q-29 0 -58 -8.5t-42 -18.5q-13 -9 -18 -32t-5 -76v-262z" />
<glyph unicode="c" horiz-adv-x="819" d="M63 377q0 91 33 173t94.5 146t159 102t217.5 38q93 0 176 -29q41 -38 41 -105q0 -44 -17.5 -70t-33.5 -26q-21 0 -39 23q-95 125 -186 125q-94 0 -166 -85t-72 -223q0 -85 33.5 -157.5t102 -119t157.5 -46.5q63 0 108 16t67 36.5t46 55.5q15 2 28.5 -8t14.5 -28 q-35 -79 -97.5 -131t-128 -72.5t-134.5 -20.5q-81 0 -156.5 29.5t-128.5 81.5q-55 54 -87 131t-32 164z" />
<glyph unicode="d" horiz-adv-x="1050" d="M63 365q0 107 41 197.5t109.5 149.5t157 91.5t184.5 32.5q68 0 119 -15q12 3 12 33v268q0 73 -3 102.5t-12 44.5t-32 31l-29 19q-9 6 -9.5 24t9.5 23q89 26 269 98h5q16 0 23 -16q-6 -123 -6 -297v-817q0 -138 11 -194t38 -56q40 0 86 18q14 -10 14 -38q0 -25 -16 -35 q-78 -8 -173 -30.5t-150 -47.5q-19 4 -25 22l4 31q5 39 -2 57l-10 2q-125 -92 -236 -92q-85 0 -157 32.5t-120 87.5t-75 126t-27 148zM295 444q0 -156 73 -253t183 -97q34 0 71 15t50 30q14 14 14 58v389q0 59 -27 98q-52 70 -137 70q-102 0 -164.5 -89t-62.5 -221z" />
<glyph unicode="e" horiz-adv-x="837" d="M63 381q0 87 29.5 168.5t83.5 145.5t137.5 102.5t182.5 38.5q78 0 147 -31t114.5 -96t45.5 -150q0 -27 -10 -47q-18 -27 -142 -27h-354q-30 0 -36.5 -4t-6.5 -22q0 -140 87 -236t222 -96q134 0 197 102q14 4 28.5 -7t16.5 -25q-33 -78 -93 -130.5t-123 -74t-130 -21.5 q-176 0 -286 116.5t-110 293.5zM270 582q0 -15 29 -15h186q75 0 101 15q20 13 20 43q0 58 -35.5 95.5t-99.5 37.5q-48 0 -88.5 -21t-64 -51t-36 -58t-12.5 -46z" />
<glyph unicode="f" horiz-adv-x="616" d="M47 26q0 18 10 27l45 6q52 7 65 38.5t13 146.5v405q0 42 -5.5 52t-31.5 10h-73q-12 6 -14.5 22t7.5 25l89 45q28 16 28 45v37q0 165 43 293q42 127 142.5 206.5t240.5 79.5q105 0 169.5 -42t64.5 -107q0 -41 -31.5 -69.5t-69.5 -28.5t-59 28q-51 72 -87.5 103.5 t-72.5 31.5q-56 0 -90.5 -113t-34.5 -333v-62q0 -46 6.5 -55.5t38.5 -9.5h215q13 -10 13 -33q0 -45 -29 -63h-201q-31 0 -37 -9.5t-6 -54.5v-403q0 -115 13 -146t67 -37l80 -8q11 -10 9.5 -31.5t-13.5 -27.5q-138 6 -268 6q-96 0 -222 -6q-14 7 -14 32z" />
<glyph unicode="g" horiz-adv-x="950" d="M51 -309q0 52 29 88q9 11 61 45t66 47q13 10 18.5 24.5t-6.5 20.5q-57 20 -96 66t-39 104q0 33 33 51q35 18 83 54t48 55q0 18 -8 22q-61 25 -106.5 88.5t-45.5 155.5q0 139 105.5 231.5t269.5 92.5q123 0 207 -43q67 -31 90 -31h201q16 -12 16 -37q0 -29 -10 -48 t-23 -22h-149q10 -33 10 -88q0 -66 -22.5 -125.5t-67 -107.5t-118 -76.5t-167.5 -28.5q-17 0 -78 9q-63 -31 -63 -80q0 -35 26.5 -57.5t85.5 -22.5q26 0 102 2t124 2q51 0 92 -4t88.5 -19t79 -41t53 -73t21.5 -111q0 -73 -40.5 -142.5t-89.5 -107.5q-164 -135 -397 -135 q-103 0 -181 22.5t-120 59.5t-62 77t-20 83zM250 -240q0 -93 74.5 -149.5t193.5 -56.5q130 0 201.5 50t71.5 140q0 75 -62.5 115.5t-161.5 40.5h-116q-105 0 -140 -25q-61 -47 -61 -115zM315 549q0 -113 45 -177.5t107 -64.5q61 0 98 53.5t37 157.5q0 106 -41.5 173 t-109.5 67q-58 0 -97 -54t-39 -155z" />
<glyph unicode="h" horiz-adv-x="1069" d="M25 26q0 18 10 27l45 6q52 7 65 38.5t13 146.5v878q0 73 -3 102.5t-12 44.5t-32 31l-29 19q-9 6 -9.5 24t9.5 23q69 20 268 98h3q7 0 15 -4t11 -12q-6 -123 -6 -297v-379q0 -35 18 -35q134 99 262 99q129 0 195.5 -76.5t66.5 -210.5v-305q0 -115 13 -147t65 -38l47 -6 q13 -9 13 -27q-1 -2 -1 -4q-2 -22 -16 -28q-129 6 -231 6q-101 0 -209 -6q-12 6 -13.5 27.5t9.5 31.5l31 4q52 7 64.5 39t12.5 148v288q0 81 -39 131t-124 50q-84 0 -140 -60q-16 -18 -20 -43.5t-4 -91.5v-274q0 -115 13 -147.5t65 -39.5l30 -4q11 -10 9.5 -31.5 t-13.5 -27.5q-108 6 -217 6q-92 0 -221 -6q-14 6 -14 32z" />
<glyph unicode="i" horiz-adv-x="548" d="M56 26q0 18 10 27l36 6q37 6 52 21t20.5 49t5.5 115v301q0 75 -7.5 100t-43.5 47l-25 15q-5 6 -4.5 23t6.5 24q168 49 267 110q20 -3 28 -16q-6 -102 -6 -250v-354q0 -81 5.5 -115t20.5 -49t52 -21l37 -6q10 -9 10 -27v-4q-2 -22 -14 -28q-114 6 -221 6q-98 0 -215 -6 q-14 6 -14 32zM162 1147q0 53 35 88t90 35t90 -35t35 -88t-35 -88t-90 -35t-90 35t-35 88z" />
<glyph unicode="j" horiz-adv-x="530" d="M-39 -494q92 50 133 111q84 129 84 449v479q0 75 -7.5 100t-43.5 47l-25 15q-5 6 -4.5 23t6.5 24q168 49 267 110q20 -3 28 -16q-6 -102 -6 -250v-489q0 -223 -47 -330q-90 -210 -358 -330q-17 3 -25 20q-5 10 -5 20q0 8 3 17zM158 1147q0 53 35 88t90 35t90 -35t35 -88 t-35 -88t-90 -35t-90 35t-35 88z" />
<glyph unicode="k" horiz-adv-x="991" d="M25 26q0 18 10 27l43 6q52 7 65 38.5t13 146.5v878q0 57 -1 82.5t-7 47.5t-15.5 30.5t-30.5 22.5l-22 14q-9 6 -9.5 24t9.5 23q74 22 268 98h3q7 0 15 -4t11 -12q-6 -123 -6 -297v-649q0 -19 8 -24t37 -5q60 0 133 78l80 88q59 64 59 80q0 17 -33 20l-55 6 q-14 10 -13.5 32.5t17.5 29.5h60q174 0 319 16q13 -6 14 -27.5t-10 -33.5l-37 -6q-50 -9 -81.5 -24t-67.5 -46q-143 -125 -174 -158q-17 -20 0 -41q217 -304 293 -376q52 -49 116 -56l21 -2q9 -10 9 -27v-6q-2 -20 -15 -26q-102 6 -228 6q-95 0 -221 -6q-15 7 -16.5 28 t12.5 31l20 2q15 3 27 10.5t12 14.5q0 16 -24 49l-168 236q-29 41 -64 41q-19 0 -24.5 -11.5t-5.5 -52.5v-98q0 -115 13 -146.5t65 -38.5l45 -6q11 -10 9 -31.5t-14 -27.5q-129 6 -231 6q-93 0 -219 -6q-14 6 -14 32z" />
<glyph unicode="l" horiz-adv-x="528" d="M29 26q0 18 10 27l43 6q52 7 65 38.5t13 146.5v878q0 57 -1 82.5t-7 47.5t-15.5 30.5t-30.5 22.5l-22 14q-9 6 -9.5 24t9.5 23q86 25 268 98h3q7 0 15 -4t11 -12q-6 -123 -6 -297v-907q0 -115 13 -146.5t65 -38.5l45 -6q10 -9 10 -27v-4q-2 -22 -14 -28q-126 6 -230 6 q-95 0 -221 -6q-14 6 -14 32z" />
<glyph unicode="m" horiz-adv-x="1634" d="M56 26q0 18 10 27l36 6q37 6 52 21t20.5 49t5.5 115v301q0 75 -7.5 100t-43.5 47l-25 15q-5 6 -4.5 23t6.5 24q140 39 267 110q18 0 26 -16q-4 -39 -4 -94q0 -18 19 -21q14 7 65 36t70.5 37.5t64 19t93.5 10.5q61 0 110 -26t74 -60q21 -31 33 -31q9 0 45 20 q83 51 139.5 74t122.5 23q124 0 187 -74.5t63 -200.5v-317q0 -115 13 -146.5t65 -38.5l45 -6q10 -10 10 -26v-5q-2 -20 -10 -28q-132 6 -234 6q-100 0 -211 -6q-12 6 -13.5 27.5t9.5 31.5l33 6q37 6 52 21t20.5 49t5.5 115v278q0 90 -37.5 140.5t-128.5 50.5 q-42 0 -79.5 -18.5t-57.5 -43.5q-15 -19 -20 -41t-5 -65v-301q0 -115 13 -147.5t65 -39.5l31 -4q11 -10 9 -31.5t-14 -27.5q-108 6 -215 6q-102 0 -204 -6q-12 6 -14 27.5t9 31.5l27 4q52 7 65 39.5t13 147.5v278q0 191 -156 191q-49 0 -87.5 -19t-57.5 -45 q-18 -24 -22.5 -46.5t-4.5 -84.5v-274q0 -115 13 -147.5t65 -39.5l31 -4q11 -10 9.5 -31.5t-13.5 -27.5q-108 6 -217 6q-96 0 -213 -6q-14 6 -14 32z" />
<glyph unicode="n" horiz-adv-x="1091" d="M47 26q0 18 10 27l45 6q52 7 65 38.5t13 146.5v301q0 75 -7.5 100t-43.5 47l-25 15q-5 6 -4.5 23t6.5 24q144 41 267 110q18 0 26 -16q-4 -39 -4 -94q0 -18 19 -21q17 9 52.5 30t53 30t47.5 21t60 17t67 5q120 0 182 -75t62 -200v-317q0 -115 13 -147t65 -38l47 -6 q10 -9 10 -27q-1 -2 -1 -4q-2 -22 -13 -28q-129 6 -232 6q-101 0 -209 -6q-12 6 -13.5 27.5t9.5 31.5l31 4q52 7 65 39.5t13 147.5v282q0 187 -164 187q-44 0 -81.5 -19t-53.5 -45q-20 -27 -24.5 -49.5t-4.5 -81.5v-274q0 -115 13 -147.5t65 -39.5l31 -4q11 -10 9.5 -31.5 t-13.5 -27.5q-108 6 -217 6q-93 0 -222 -6q-14 6 -14 32z" />
<glyph unicode="o" horiz-adv-x="1007" d="M63 389q0 133 62.5 236.5t164 157t222.5 53.5q117 0 214 -49t157.5 -146.5t60.5 -226.5q0 -141 -62 -243t-161.5 -151t-224.5 -49q-120 0 -217 47.5t-156.5 144t-59.5 226.5zM305 420q0 -97 22.5 -178t72.5 -135t120 -54q67 0 109.5 50.5t57.5 119.5t15 156q0 68 -12 132 t-35.5 119.5t-66 89.5t-96.5 34q-82 0 -134.5 -85.5t-52.5 -248.5z" />
<glyph unicode="p" horiz-adv-x="1056" d="M15 -496q0 18 10 27l53 6q52 6 65 37.5t13 146.5v824q0 74 -7 97t-45 48l-24 17q-6 9 -5.5 24.5t7.5 22.5q61 17 140.5 53t125.5 67q26 0 33 -20q-10 -62 -10 -80q0 -23 16 -26q2 1 35.5 18.5t63 31t74 26t81.5 12.5q163 0 257.5 -107.5t94.5 -271.5 q0 -215 -138.5 -350.5t-362.5 -135.5q-50 0 -91 9q-30 -7 -30 -58v-201q0 -115 13 -145.5t67 -36.5l73 -8q11 -10 9.5 -31.5t-13.5 -27.5q-159 6 -262 6q-106 0 -229 -6q-14 7 -14 32zM371 225q0 -45 15 -73t50 -58q20 -17 52.5 -29t56.5 -12q103 0 161 95t58 241 q0 147 -70.5 237.5t-189.5 90.5q-70 0 -111 -41q-22 -25 -22 -139v-312z" />
<glyph unicode="q" horiz-adv-x="1030" d="M63 373q0 138 69.5 244.5t184.5 162.5t254 56q95 0 177 -25q43 -14 73 -14q27 0 62 30q10 1 21 -3.5t14 -12.5q-17 -60 -17 -248v-829q0 -116 13.5 -151t64.5 -44l74 -12q10 -6 10 -23q0 -25 -14 -32q-169 6 -258 6q-92 0 -230 -6q-12 6 -13.5 27t9.5 28l51 10 q52 10 65 45.5t13 151.5v200q0 49 -5 68t-17 21q-31 -20 -85 -36t-92 -16q-96 0 -172 28t-122 71t-76.5 98.5t-42 106t-11.5 98.5zM303 440q0 -165 85 -262.5t210 -97.5q56 0 82 26q6 9 6 29v377q0 119 -37 172q-45 70 -127 70q-88 0 -153.5 -82t-65.5 -232z" />
<glyph unicode="r" horiz-adv-x="714" d="M58 26q0 18 10 27l36 6q37 6 52 21t20.5 49t5.5 115v301q0 75 -7.5 100t-43.5 47l-25 15q-5 6 -4 23t7 24q168 55 258 110q22 0 28 -18q-4 -78 -4 -92q0 -11 6 -18t15 -7q5 4 45 33.5t55 39t45 22t55 12.5q52 0 82.5 -29.5t30.5 -71.5q0 -56 -35 -87.5t-80 -31.5 q-28 0 -55 17q-57 39 -98 39q-34 0 -47 -35t-13 -113v-280q0 -115 13 -146t67 -37l80 -8q11 -10 9.5 -31.5t-13.5 -27.5q-185 6 -268 6q-96 0 -213 -6q-14 6 -14 32z" />
<glyph unicode="s" horiz-adv-x="708" d="M72 268q9 12 28 13.5t29 -9.5q31 -96 88 -159.5t133 -63.5q49 0 82 31.5t33 83.5q0 92 -139 160q-217 104 -217 258q-1 117 86 185.5t219 68.5q57 0 110 -13t80 -28q31 -67 31 -199q-4 -12 -24.5 -15.5t-30.5 5.5q-25 74 -72 123t-105 49q-49 0 -81.5 -31t-32.5 -76 q0 -74 137 -139q50 -24 84 -45.5t70 -55t54.5 -80t18.5 -104.5q0 -125 -93 -190.5t-226 -65.5q-145 0 -234 66q-15 29 -23 97q-6 49 -6 97q0 19 1 37z" />
<glyph unicode="t" horiz-adv-x="657" d="M46 749q0 15 11 23q94 36 162 86q76 56 113 127q10 6 22 6q6 -1 10 -1q18 -4 25 -15v-123q0 -26 5.5 -32.5t33.5 -6.5h203q16 -8 16 -43q-3 -39 -26 -53h-195q-28 0 -33.5 -10t-5.5 -60v-315q0 -43 3 -75.5t12.5 -65.5t25 -54.5t43.5 -35t66 -13.5q45 0 98 37 q14 -2 22 -13q6 -8 6 -19q0 -4 -1 -9q-34 -47 -103.5 -80t-157.5 -33q-71 0 -118 19t-70 56.5t-32 79.5t-9 101v416q0 53 -6 63.5t-31 10.5h-72q-17 9 -17 32z" />
<glyph unicode="u" horiz-adv-x="1064" d="M70 799q87 1 167 12.5t117 24.5q18 -4 21 -19q-6 -37 -6 -174v-315q0 -40 3.5 -71t14 -63t28.5 -53t49 -34t73 -13q81 0 135 51q15 15 19.5 36.5t4.5 78.5v309q0 68 -7.5 97t-23 41t-59.5 26l-33 10q-11 7 -10.5 28.5t12.5 27.5q106 2 199 12t123 25q18 -4 21 -19 q-7 -68 -7 -174v-342q0 -107 9.5 -162t42.5 -55q37 0 88 14q13 -7 13 -31v-1q0 -26 -20 -37q-83 -9 -179 -29.5t-156 -48.5q-16 3 -19 20q6 42 6 65v11q-3 23 -20 23q-80 -47 -145 -73t-134 -26q-132 0 -187.5 69t-55.5 204v319q0 74 -5 107t-16.5 46t-38.5 21l-28 8 q-9 7 -9 26q0 24 13 28z" />
<glyph unicode="v" horiz-adv-x="888" d="M-8 813q108 -6 215 -6q117 0 225 6q15 -6 16.5 -27.5t-12.5 -31.5l-37 -6q-51 -7 -51 -23q0 -22 17 -66q27 -71 84.5 -210.5t78.5 -180.5q37 77 152 357q29 74 29 92q0 19 -43 26l-50 11q-13 12 -10.5 32.5t19.5 26.5q91 -6 172 -6t149 6q12 -5 14 -27q0 -2 1 -5 q0 -18 -11 -27l-41 -9q-35 -7 -54 -17.5t-43.5 -45t-55.5 -102.5l-162 -357q-53 -120 -96 -239q-13 -13 -35 -13q-21 0 -37 13q-34 96 -78 190q-22 48 -99 224t-97 220q-31 67 -55.5 92.5t-69.5 34.5l-39 9q-10 9 -10 26q0 25 14 33z" />
<glyph unicode="w" horiz-adv-x="1400" d="M-26 786q2 20 14 27q111 -6 217 -6q121 0 203 6q12 -6 13.5 -29t-9.5 -30l-35 -11q-26 -7 -37.5 -12.5t-11.5 -15.5q0 -11 22 -66l53 -133q23 -58 62 -148.5t41 -95.5q33 68 74 164l57 135q17 41 21 66t-1 43q-12 31 -30 41.5t-60 21.5l-39 11q-12 9 -10 31t17 28 q80 -6 198 -6q119 0 221 6q15 -6 16.5 -29t-12.5 -30l-36 -9q-52 -12 -52 -26t13 -49q22 -60 172 -398q52 104 143 355q23 68 23 86q0 20 -39 26l-70 15q-12 9 -10 31t14 28q105 -6 168 -6t162 6q13 -7 15 -27v-6q0 -16 -9 -26l-39 -11q-42 -11 -63 -33t-52 -94l-124 -284 q-78 -181 -140 -348q-13 -13 -35 -13q-20 0 -36 13q-78 189 -244 557q-195 -420 -242 -557q-13 -13 -35 -13q-20 0 -36 13q-35 98 -103 247q-14 31 -78.5 182.5t-113.5 258.5q-15 33 -34 48t-61 25l-34 9q-8 10 -8 26v6z" />
<glyph unicode="x" horiz-adv-x="899" d="M-8 813q117 -6 215 -6q115 0 217 6q15 -4 16.5 -28t-10.5 -31l-39 -11q-39 -9 -39 -18q0 -13 17 -39q63 -94 112 -158q99 145 109 164q12 16 12 33q0 9 -35 20l-41 9q-14 10 -12.5 31.5t16.5 27.5q91 -6 185 -6q95 0 166 6q15 -7 16.5 -28t-12.5 -31l-56 -11 q-61 -10 -92.5 -30t-74.5 -74l-97 -121q-30 -42 -30 -49q0 -12 26 -49l160 -225q62 -88 93 -109t112 -33q8 -14 8 -29v-4q-1 -18 -12 -26q-102 6 -232 6q-134 0 -233 -6q-15 6 -16.5 27.5t10.5 31.5l49 10q47 8 47 21q0 11 -23 47q-63 94 -123 176q-37 -50 -114 -174 q-21 -38 -21 -51q0 -15 37 -21l47 -8q12 -12 10 -32.5t-14 -26.5q-153 6 -186 6q-96 0 -166 -6q-14 8 -15.5 29.5t11.5 29.5q75 10 112 22.5t62 43.5q28 32 87.5 110t70.5 95q32 48 32 55q0 12 -37 59l-165 221q-38 52 -66.5 68t-97.5 27q-11 8 -11 26q0 26 15 33z" />
<glyph unicode="y" horiz-adv-x="917" d="M-6 813q102 -6 227 -6q112 0 217 6q12 -6 13.5 -27.5t-9.5 -31.5l-61 -13q-25 -5 -32.5 -13.5t-4 -27.5t22.5 -67l90 -236q57 -151 69 -155q9 2 66 127l61 137q22 51 40 98t26 71.5t8 29.5q0 14 -8.5 22t-30.5 12l-70 15q-10 12 -8.5 31.5t13.5 27.5q111 -6 194 -6 q81 0 164 6q14 -4 15 -27q1 -2 1 -5q0 -18 -10 -27q-1 0 -18 -4t-26.5 -6.5t-25 -7.5t-27.5 -12t-20 -15q-44 -44 -125 -207l-104 -209q-234 -465 -338 -692q-50 -111 -156 -111q-56 0 -84 31t-28 78q0 88 104 92l45 2q61 4 86 41q39 56 70 127t31 129q0 63 -35 151 l-166 430q-39 102 -62 132.5t-79 41.5l-41 9q-12 11 -12 30q0 23 18 29z" />
<glyph unicode="z" horiz-adv-x="798" d="M37 588q11 61 31 141.5t36 114.5q6 4 18.5 4t18.5 -4q6 -26 28.5 -31.5t106.5 -5.5h338q78 0 125 6q15 -6 15 -25q-73 -100 -148 -231l-227 -397q-29 -51 -29 -64q0 -14 80 -14h68q117 0 174 49q45 40 82 123q10 9 30.5 5.5t24.5 -15.5q-7 -62 -31 -140.5t-45 -109.5 q-111 6 -235 6h-185q-161 0 -247 -6q-21 8 -15 26q27 36 84.5 127.5t97.5 163.5l197 346q27 47 27 58q0 10 -45 10h-101q-103 0 -137 -29q-28 -23 -82 -123q-12 -7 -30 -3t-25 18z" />
<glyph unicode="{" horiz-adv-x="655" d="M118 549q0 17 11 24q62 4 99 15t54.5 33.5t22 45.5t4.5 64q0 68 -16.5 212.5t-16.5 215.5q0 69 21 119t51 77t75.5 42.5t81.5 19.5t81 4q9 -7 10.5 -22.5t-6.5 -24.5q-54 -10 -90.5 -30.5t-53 -49t-22.5 -54t-6 -56.5q0 -67 19.5 -208t19.5 -212q0 -172 -154 -211v-8 q154 -39 154 -211q0 -71 -19.5 -212t-19.5 -208q0 -31 6 -56.5t22.5 -54t53 -49t90.5 -30.5q8 -9 6.5 -25t-10.5 -23q-45 0 -81 4t-81 20t-75.5 42.5t-51.5 77t-21 119.5q0 71 16.5 215.5t16.5 212.5q0 41 -4.5 64t-22 45t-54.5 33t-99 15q-11 8 -11 25z" />
<glyph unicode="|" horiz-adv-x="522" d="M184 -512v2048h154v-2048h-154z" />
<glyph unicode="}" horiz-adv-x="655" d="M59.5 -301q-1.5 16 6.5 25q54 10 90.5 30.5t53 49t22.5 54t6 56.5q0 67 -19.5 208t-19.5 212q0 172 153 211v8q-153 39 -153 211q0 71 19.5 212t19.5 208q0 31 -6 56.5t-22.5 54t-53 49t-90.5 30.5q-8 9 -6.5 24.5t10.5 22.5q45 0 81 -4t81 -19.5t75 -42.5t51 -77 t21 -119q0 -71 -16.5 -215.5t-16.5 -212.5q0 -41 4.5 -64t22 -45.5t54.5 -33.5t99 -15q10 -8 10 -24.5t-10 -24.5q-62 -4 -99 -15t-54.5 -33t-22 -45t-4.5 -64q0 -68 16.5 -212.5t16.5 -215.5q0 -69 -21 -119.5t-51 -77t-75 -42.5t-81 -20t-81 -4q-9 7 -10.5 23z" />
<glyph unicode="~" d="M86 229q16 46 47 109t64 92q31 34 67 43.5t101 9.5h286q120 0 162 47q40 47 61 97q21 6 46 -1.5t38 -25.5q-19 -48 -55 -109t-65 -88q-28 -28 -59.5 -37.5t-90.5 -9.5h-274q-68 0 -107 -11t-71 -40q-34 -29 -72 -104q-22 -10 -45.5 -1.5t-32.5 29.5z" />
<glyph unicode="&#xa1;" horiz-adv-x="573" d="M156 -469q0 25 12 131l90 696q33 25 61 0l91 -696q10 -88 10 -131q0 -76 -131 -76q-133 0 -133 76zM156 676q0 57 37.5 94t95.5 37q57 0 94 -37t37 -94q0 -54 -37 -90.5t-94 -36.5q-58 0 -95.5 36.5t-37.5 90.5z" />
<glyph unicode="&#xa2;" d="M121 627q0 84 31 161t89.5 140t153.5 103t213 46l21 176q15 9 42.5 9t39.5 -9l-21 -174q74 -3 160 -28q45 -48 45 -117q0 -33 -12.5 -55.5t-24.5 -22.5q-18 0 -39 21q-26 29 -42 44.5t-44 35.5t-55 28l-76 -643q30 -6 68 -6q76 0 123.5 27.5t93.5 78.5q34 -3 41 -30 q-43 -97 -136.5 -144t-203.5 -49l-27 -211q-14 -13 -42 -12.5t-40 12.5l27 213q-176 18 -280.5 124t-104.5 282zM338 684q0 -104 46.5 -189.5t137.5 -127.5l76 630q-105 -3 -182.5 -87t-77.5 -226z" />
<glyph unicode="&#xa3;" d="M-43 8q0 53 102 133q150 121 150 439q0 12 -1.5 16.5t-3 6t-11.5 2.5t-19 3h-176q-12 9 -12 38t12 44h174q23 0 28 3.5t3 15.5q-2 27 -2 82q0 152 67.5 272t179.5 184t246 64q74 0 121 -31q25 -22 25 -68q0 -42 -27 -79t-47 -37q-27 0 -49 20q-98 80 -180 80 q-42 0 -74.5 -63t-32.5 -195q0 -88 12 -217q2 -21 9 -26t34 -5h285q14 -15 14 -41.5t-14 -40.5h-283q-29 0 -37 -4.5t-8 -23.5q0 -241 -194 -355l2 -4q79 10 151 -2q67 -9 203 -78q115 -59 195 -59q44 0 50.5 28t-18.5 113q-10 37 6.5 57.5t45.5 20.5q39 0 68.5 -27.5 t29.5 -85.5q0 -85 -102 -177.5t-226 -92.5q-55 0 -108 20t-129 68q-76 47 -130.5 72.5t-99.5 25.5q-28 0 -44.5 -24.5t-20.5 -52.5q-4 -19 -53 -37.5t-72 -18.5q-39 0 -39 37z" />
<glyph unicode="&#xa4;" d="M82 643q0 155 94 270l-92 93q4 31 33.5 59t66.5 39l84 -105q114 82 256 82t256 -82l84 105q37 -11 67 -39t34 -59l-93 -93q95 -116 95 -270t-95 -270l93 -92q-4 -31 -34 -59.5t-67 -39.5l-84 105q-114 -82 -256 -82t-256 82l-84 -105q-36 11 -66 39.5t-34 59.5l92 92 q-94 115 -94 270zM227 645q0 -133 89 -226t208 -93t208 93.5t89 225.5q0 129 -89.5 222.5t-207.5 93.5q-121 0 -209 -93t-88 -223z" />
<glyph unicode="&#xa5;" d="M-13.5 1266q1.5 22 11.5 26q126 -6 235 -6q143 0 234 6q12 -4 13.5 -25.5t-9.5 -31.5l-57 -18q-29 -6 -29 -27q0 -22 27 -68l96 -172q42 -77 94 -162q12 16 78 144l100 192q23 45 23 76q0 14 -45 23l-64 12q-10 9 -8.5 29.5t14.5 27.5q99 -6 191 -6q84 0 160 6 q14 -4 14 -24.5t-10 -32.5l-51 -8q-38 -6 -64 -33.5t-68 -101.5l-208 -361h276q12 -17 12 -40t-12 -38h-305v-153h305q12 -14 12 -39t-12 -39h-305v-148q0 -130 13 -167.5t65 -43.5l78 -10q11 -7 9 -30t-14 -29q-188 6 -270 6q-58 0 -242 -6q-12 6 -13.5 29t9.5 30l78 10 q52 6 65 43.5t13 167.5v148h-307q-11 15 -11 39t11 39h307v153h-307q-11 15 -11 40t11 38h284l-223 371q-47 78 -68.5 98t-76.5 29l-41 6q-9 9 -7.5 31z" />
<glyph unicode="&#xa6;" horiz-adv-x="522" d="M184 -358v716h154v-716h-154zM184 666v716h154v-716h-154z" />
<glyph unicode="&#xa7;" horiz-adv-x="1036" d="M76 807q0 97 45 199.5t120 186.5t184.5 137.5t227.5 53.5q91 0 131.5 -35t40.5 -73q0 -42 -26.5 -64t-63.5 -22q-20 0 -59 29q-96 67 -160 67q-43 0 -71.5 -27.5t-28.5 -68.5q0 -30 9.5 -58t37 -67t84.5 -91t145 -118q129 -97 199 -213.5t70 -273.5q0 -84 -26 -172 t-77.5 -168t-120.5 -143.5t-163 -101.5t-197 -38q-79 0 -127.5 33t-48.5 86q0 37 26 61.5t62 24.5q12 0 23 -3.5t15.5 -6t17 -12t15.5 -11.5q90 -68 162 -68q47 0 78 25.5t31 83.5q0 75 -78.5 172t-194.5 193q-65 54 -111.5 102.5t-87.5 108.5t-62 128t-21 144zM199 930 q0 -34 2 -58t17 -71t42 -91t82 -106.5t133 -128.5q139 -120 197.5 -228.5t52.5 -242.5q66 50 94.5 112t28.5 146q0 115 -65 222t-201 218q-111 91 -166.5 153.5t-80 130t-24.5 163.5q-49 -38 -80.5 -95.5t-31.5 -123.5z" />
<glyph unicode="&#xa8;" horiz-adv-x="778" d="M92 1118q0 53 35 89t88 36q48 0 81.5 -35.5t33.5 -79.5q0 -56 -32.5 -90t-82.5 -34q-54 0 -88 29.5t-35 84.5zM451 1118q-2 53 32 89t86 36q51 0 84 -35t33 -80q0 -57 -32 -90.5t-85 -33.5t-85 29.5t-33 84.5z" />
<glyph unicode="&#xa9;" horiz-adv-x="1638" d="M102 676q0 145 54.5 275.5t149 225.5t228.5 151t285 56t285 -56t228.5 -151t149 -225.5t54.5 -275.5q0 -194 -92.5 -356t-257.5 -257.5t-367 -95.5t-367 95.5t-257.5 257.5t-92.5 356zM229 678q0 -171 78 -314.5t214 -226t298 -82.5t298 82.5t214 226t78 314.5 q0 127 -46 241.5t-125 197t-188 131t-231 48.5t-231 -48.5t-188 -131t-125 -197t-46 -241.5zM430 664q0 97 38.5 175.5t103.5 128t146.5 75.5t170.5 26q83 0 241 -33q0 -36 15 -190q-8 -8 -22 -8.5t-25 6.5q-37 166 -209 166q-117 0 -202 -86.5t-85 -241.5q0 -156 87.5 -247 t205.5 -91q49 0 87 14t65 41t42 50t33 57q10 8 25.5 6.5t21.5 -12.5q-5 -51 -22.5 -102t-30.5 -70q-17 -3 -41 -13q-94 -30 -184 -30q-187 0 -297 75q-74 51 -119 128.5t-45 175.5z" />
<glyph unicode="&#xaa;" horiz-adv-x="724" d="M66 637q0 53 24.5 83t95.5 54q170 56 181 60q51 18 51 47l2 30q3 50 -20 86.5t-74 36.5q-76 0 -82 -65q-6 -45 -35 -62q-43 -26 -105 -26q-38 0 -38 34q0 43 63 99q42 35 116 63.5t142 28.5q207 0 207 -168q0 -25 -6 -115.5t-6 -134.5q0 -113 63 -113q30 0 62 19 q13 -2 19 -12.5t-1 -24.5q-22 -27 -72 -46t-90 -19q-76 0 -117 38q-21 21 -32 21q-4 0 -43 -25q-66 -34 -125 -34q-86 0 -133 43.5t-47 101.5zM244 670q0 -35 23 -61.5t65 -26.5q39 0 56.5 17.5t19.5 41.5l4 104q0 33 -15 33q-26 0 -59 -10q-94 -27 -94 -98z" />
<glyph unicode="&#xab;" horiz-adv-x="862" d="M92.5 421q-0.5 14 16.5 34q146 159 286 325q29 -4 37 -28l-147 -303q-13 -27 0 -54l147 -307q-9 -23 -37 -29q-172 203 -286 328q-16 20 -16.5 34zM429.5 421q-0.5 14 16.5 34q159 173 287 325q29 -4 37 -28l-147 -303q-13 -27 0 -54l147 -307q-9 -23 -37 -29 q-160 190 -287 328q-16 20 -16.5 34z" />
<glyph unicode="&#xac;" d="M129 510v129h789v-471h-154v342h-635z" />
<glyph unicode="&#xad;" horiz-adv-x="655" d="M66 399q0 38 18 68l487 45q19 -19 19 -68q0 -40 -19 -65l-487 -45q-18 18 -18 65z" />
<glyph unicode="&#xae;" horiz-adv-x="679" d="M61 1114q0 113 82 192.5t197 79.5t196.5 -79.5t81.5 -192.5t-81.5 -192.5t-196.5 -79.5t-197 79.5t-82 192.5zM127 1114q0 -93 63 -158t150 -65q88 0 150.5 65t62.5 158q0 95 -62.5 160t-150.5 65q-87 0 -150 -65.5t-63 -159.5zM206 996.5q-1 10.5 1 11.5l10 2 q20 4 23.5 11t3.5 34v121q0 22 -6 32t-21 11h-10q-5 21 4 24q98 4 129 4q117 0 117 -73q0 -21 -13 -37t-30 -23q-5 -3 0 -16q43 -74 59 -84q15 -12 21 -13q3 0 3 -7.5t-3 -8.5q-12 -2 -33 -2q-53 0 -86 45q-5 8 -10.5 17t-12 20t-10.5 18q-6 13 -20 13q-9 0 -9 -11v-30 q0 -27 4 -34.5t23 -10.5l8 -2q3 -2 3 -12t-3 -11q-12 0 -33.5 1t-35.5 1t-36.5 -1t-31.5 -1q-4 1 -5 11.5zM313 1135q0 -10 4 -12.5t19 -2.5q21 0 30 13.5t9 29.5q0 54 -37 54q-16 0 -20.5 -3.5t-4.5 -13.5v-65z" />
<glyph unicode="&#xaf;" horiz-adv-x="778" d="M130 1117.5q0 46.5 15 66.5h488q15 -20 15 -66.5t-15 -68.5h-488q-15 22 -15 68.5z" />
<glyph unicode="&#xb0;" horiz-adv-x="819" d="M121 1032q0 123 84 201t205 78t204.5 -78t83.5 -201q0 -128 -82.5 -202t-205.5 -74t-206 74t-83 202zM252 1032q0 -85 44 -138.5t114 -53.5t113.5 53.5t43.5 138.5q0 87 -43.5 141t-113.5 54t-114 -54.5t-44 -140.5z" />
<glyph unicode="&#xb1;" d="M127 0v129h791v-129h-791zM127 489v129h319v275h154v-275h318v-129h-318v-288h-154v288h-319z" />
<glyph unicode="&#xb2;" horiz-adv-x="778" d="M82 674q80 64 203 188q172 168 172 332q0 66 -38 109t-97 43q-108 0 -175 -127q-16 -6 -31.5 2.5t-15.5 25.5q50 102 128 152.5t173 50.5q126 0 196.5 -63t70.5 -164q0 -73 -49 -141.5t-160 -159.5l-58 -48q-67 -54 -67 -67q0 -23 41 -23h139q66 0 101 13t61 57 q12 6 25.5 3.5t21.5 -11.5q-31 -127 -76 -205q-106 4 -209 4h-209q-87 0 -137 -4q-17 13 -10 33z" />
<glyph unicode="&#xb3;" horiz-adv-x="778" d="M72 662q0 26 20.5 50.5t57.5 24.5q12 0 23 -4t18 -8.5t16 -14t12.5 -13.5t10.5 -15l8 -12q23 -33 63 -33q56 0 115 62.5t59 160.5q0 78 -41 131t-106 53q-73 0 -135 -55q-18 9 -27 29t-2 35q6 2 34.5 13.5t42.5 17t42.5 19t45 23.5t38.5 26.5t33.5 32t20.5 36t9 41.5 q0 43 -28 72.5t-74 29.5q-43 0 -86 -29t-76 -82q-15 -4 -27 5t-14 24q39 80 113 124t165 44q100 0 159 -44t59 -110q0 -40 -33.5 -78t-126.5 -77q-12 -5 -1 -14q8 -5 17 -5q86 -2 149.5 -55t63.5 -147q0 -66 -40.5 -132.5t-121.5 -121.5q-77 -51 -162.5 -76t-150.5 -25 q-58 0 -100.5 23t-42.5 74z" />
<glyph unicode="&#xb4;" horiz-adv-x="737" d="M287 954l190 371q34 64 72 64q28 0 84 -33q51 -30 51 -66q0 -9 -5 -18.5t-10.5 -15.5t-18.5 -19.5t-19 -19.5l-291 -293q-46 -3 -53 30z" />
<glyph unicode="&#xb6;" horiz-adv-x="1064" d="M133 694q0 142 72.5 240.5t196 145t288.5 46.5q212 0 289 -14q15 -6 15.5 -26t-13.5 -29l-80 -13q-41 -6 -61 -11.5t-31.5 -20.5t-13.5 -31.5t-2 -54.5v-891q0 -110 -12.5 -188t-43.5 -141t-88.5 -94.5t-142.5 -31.5q-51 0 -94.5 15.5t-75 54.5t-31.5 96q0 74 62 115 q45 3 84 -19.5t49 -50.5q-27 -27 -27 -70q0 -28 19 -47.5t47 -19.5q17 0 34.5 5.5t38.5 22.5t36.5 44t26.5 74.5t11 109.5v293q0 73 -55 73q-137 0 -250 51.5t-180.5 148t-67.5 218.5z" />
<glyph unicode="&#xb7;" horiz-adv-x="522" d="M127 420q0 57 38.5 96t96.5 39q57 0 95 -39t38 -96t-38 -96t-95 -39q-58 0 -96.5 39t-38.5 96z" />
<glyph unicode="&#xb8;" horiz-adv-x="778" d="M221 -362q0 24 15 40.5t40 16.5q23 0 59.5 -33t53.5 -33t32 16.5t15 43.5q0 34 -38.5 67t-92.5 56l-6 12l133 176h82l-70 -92q-11 -16 -7.5 -22t24.5 -17q106 -56 106 -145q0 -71 -64.5 -117.5t-152.5 -46.5q-60 0 -94.5 20.5t-34.5 57.5z" />
<glyph unicode="&#xb9;" horiz-adv-x="778" d="M164.5 1351.5q-1.5 20.5 9.5 26.5q75 10 175.5 34t127.5 36q18 4 21 -6q-4 -90 -4 -215v-398q0 -85 12 -107t65 -26l50 -4q10 -8 9 -26.5t-12 -24.5q-110 4 -219 4q-111 0 -221 -4q-11 6 -11.5 24.5t9.5 26.5l41 4q59 6 72.5 27.5t13.5 105.5v381q0 23 -0.5 34t-3.5 28 t-9.5 25t-19 15t-30.5 9l-62 6q-12 4 -13.5 24.5z" />
<glyph unicode="&#xba;" horiz-adv-x="792" d="M66 784q0 101 48.5 176t123.5 110.5t163 35.5q143 0 234.5 -82.5t91.5 -222.5q0 -147 -95.5 -228t-238.5 -81q-140 0 -233.5 77.5t-93.5 214.5zM264 829q0 -118 36.5 -195t102.5 -77q64 0 94.5 57t30.5 144q0 82 -12.5 142.5t-45 100t-83.5 39.5q-56 0 -89.5 -54 t-33.5 -157z" />
<glyph unicode="&#xbb;" horiz-adv-x="862" d="M92 88l148 307q14 27 0 54l-148 303q8 24 37 28q128 -152 287 -325q17 -20 16.5 -34t-16.5 -34q-127 -138 -287 -328q-28 6 -37 29zM430 88l148 307q14 27 0 54l-148 303q8 24 37 28q128 -152 287 -325q17 -20 16.5 -34t-16.5 -34q-127 -138 -287 -328q-28 6 -37 29z" />
<glyph unicode="&#xbc;" horiz-adv-x="1761" d="M166.5 1212.5q-1.5 20.5 9.5 26.5q75 10 175.5 34t127.5 36q18 4 21 -6q-4 -90 -4 -216v-397q0 -85 12 -107t65 -26l50 -4q10 -8 9.5 -26.5t-11.5 -24.5q-110 4 -220 4q-111 0 -221 -4q-11 6 -11.5 24.5t9.5 26.5l41 4q59 6 72.5 27.5t13.5 105.5v381q0 23 -0.5 34 t-3.5 28t-9.5 25t-19 15t-30.5 9l-62 6q-12 4 -13.5 24.5zM406 -29q416 668 847 1368q27 5 54 -11.5t30 -41.5q-488 -782 -848 -1368q-30 -1 -52.5 14t-30.5 39zM946 272l424 574q20 26 41 26h53q18 0 21.5 -7t-10.5 -27l-398 -508q-23 -29 13 -29h176q20 0 24 6t4 31v172 q0 32 37 43q109 39 129 39q11 0 18 -6t7 -15v-233q0 -25 5 -31t26 -6h94q15 -7 15 -34t-15 -34h-94q-22 0 -26.5 -5.5t-4.5 -30.5v-13q0 -83 12 -103.5t66 -29.5l24 -4q10 -8 9.5 -26.5t-11.5 -24.5q-102 4 -194 4q-90 0 -222 -4q-11 6 -11.5 24.5t9.5 26.5l41 4 q59 6 72.5 27.5t13.5 105.5v13q0 25 -4 30.5t-24 5.5h-305q-21 17 -15 39z" />
<glyph unicode="&#xbd;" horiz-adv-x="1761" d="M125.5 1212.5q-1.5 20.5 9.5 26.5q75 10 175.5 34t127.5 36q18 4 21 -6q-4 -90 -4 -216v-397q0 -85 12 -107t65 -26l50 -4q10 -8 9.5 -26.5t-11.5 -24.5q-110 4 -220 4q-111 0 -221 -4q-11 6 -11.5 24.5t9.5 26.5l41 4q59 6 72.5 27.5t13.5 105.5v381q0 23 -0.5 34 t-3.5 28t-9.5 25t-19 15t-30.5 9l-62 6q-12 4 -13.5 24.5zM354 -29q488 782 848 1368q27 5 54 -11.5t30 -41.5q-488 -782 -848 -1368q-30 -1 -53 14t-31 39zM1004 29q74 60 202 188q172 168 172 332q0 66 -38 108.5t-97 42.5q-107 0 -174 -127q-15 -6 -31 3t-16 26 q50 102 128 152.5t173 50.5q126 0 196 -63t70 -164q0 -73 -49 -142.5t-160 -159.5l-57 -47q-41 -33 -54.5 -46.5t-13.5 -20.5q0 -23 41 -23h140q65 0 100 13t61 57q12 6 26 3.5t22 -11.5q-31 -127 -76 -205q-106 4 -209 4h-209q-87 0 -137 -4q-17 13 -10 33z" />
<glyph unicode="&#xbe;" horiz-adv-x="1761" d="M96 522q0 26 20.5 51t57.5 25q12 0 23 -4t18.5 -9t16 -14t12 -14t10.5 -15.5t8 -11.5q22 -32 64 -32q56 0 115 62.5t59 160.5q0 78 -41.5 131t-106.5 53q-73 0 -135 -55q-18 9 -27 28.5t-2 34.5q6 2 34.5 13t42.5 17t42.5 19.5t45 24t39 26.5t34 31.5t20.5 36t9 41.5 q0 43 -28.5 73t-74.5 30q-43 0 -86 -29t-76 -82q-15 -4 -26.5 5t-13.5 24q39 80 113 124t165 44q100 0 158.5 -43.5t58.5 -110.5q0 -41 -33.5 -79t-126.5 -77q-13 -6 0 -14q8 -4 17 -4q86 -2 149.5 -55.5t63.5 -147.5q0 -66 -40.5 -132.5t-121.5 -121.5q-77 -51 -162 -75.5 t-151 -24.5q-37 0 -67.5 8t-53.5 30.5t-23 57.5zM434 -29q488 782 848 1368q27 5 54 -11.5t30 -41.5q-488 -782 -848 -1368q-30 -1 -53 14t-31 39zM977 272l424 574q19 26 41 26h53q18 0 21 -7t-11 -27l-397 -508q-23 -29 12 -29h176q20 0 24.5 6t4.5 31v172q0 32 37 43 q109 39 129 39q11 0 18 -6t7 -15v-233q0 -25 4.5 -31t25.5 -6h94q15 -7 15 -34t-15 -34h-94q-21 0 -25.5 -5.5t-4.5 -30.5v-13q0 -84 11.5 -104t65.5 -29l25 -4q10 -8 9.5 -26.5t-11.5 -24.5q-102 4 -195 4q-89 0 -221 -4q-11 6 -11.5 24.5t9.5 26.5l41 4q59 6 72.5 27.5 t13.5 105.5v13q0 25 -4.5 30.5t-24.5 5.5h-305q-20 16 -14 39z" />
<glyph unicode="&#xbf;" horiz-adv-x="675" d="M92 -117q0 157 131 219l111 54q52 24 74 48t22 54q0 52 -18 102q8 14 25.5 18.5t31.5 -5.5q32 -46 60 -109.5t28 -116.5q0 -108 -141 -172l-115 -51q-100 -46 -100 -119q0 -55 38.5 -88t98.5 -44t151 -11q29 0 63 -27t34 -77q0 -45 -31.5 -74t-83.5 -29q-77 0 -149 41 t-121.5 104t-79 138.5t-29.5 144.5zM285 672q0 57 38 96t95 39q58 0 96.5 -39t38.5 -96t-38.5 -96t-96.5 -39q-57 0 -95 39t-38 96z" />
<glyph unicode="&#xc0;" horiz-adv-x="1284" d="M-60.5 20.5q-0.5 18.5 9.5 32.5l61 10q45 8 67.5 26.5t45.5 68.5q18 37 100 250l281 729q38 99 40 128q1 11 -1 21q32 6 66.5 30.5t55.5 45.5l21 22q22 0 35 -16q17 -46 46.5 -140.5t45.5 -140.5l295 -858q35 -103 59.5 -129t102.5 -41l30 -6q12 -10 13 -31t-10 -28 q-126 6 -267 6q-34 0 -250 -6q-12 7 -13.5 28.5t7.5 30.5l45 6q57 8 66.5 26t-12.5 83l-97 278q-13 40 -26 48t-58 8h-272q-39 0 -47.5 -7t-22.5 -49l-84 -245q-13 -39 -18 -60t-6.5 -37t8.5 -23t21 -10.5t38 -7.5l60 -10q11 -10 9.5 -31.5t-13.5 -27.5q-23 1 -217 6 q-95 0 -203 -6q-11 8 -11.5 26.5zM307 1632q-3 9 5.5 35.5t23.5 52.5q36 58 67 58q19 0 66 -33l330 -242q3 -14 -6 -34t-21 -23l-397 137q-53 19 -68 49zM416.5 601.5q4.5 -7.5 42.5 -7.5h213q44 0 52 8t-3 45l-86 246q-9 28 -19 57t-14.5 44t-9.5 29t-8 21t-6 11h-5 q-5 -9 -61 -162l-86 -240q-14 -44 -9.5 -51.5z" />
<glyph unicode="&#xc1;" horiz-adv-x="1284" d="M-60.5 20.5q-0.5 18.5 9.5 32.5l61 10q45 8 67.5 26.5t45.5 68.5q18 37 100 250l281 729q38 99 40 128q1 11 -1 21q32 6 66.5 30.5t55.5 45.5l21 22q22 0 35 -16q17 -46 46.5 -140.5t45.5 -140.5l295 -858q35 -103 59.5 -129t102.5 -41l30 -6q12 -10 13 -31t-10 -28 q-126 6 -267 6q-34 0 -250 -6q-12 7 -13.5 28.5t7.5 30.5l45 6q57 8 66.5 26t-12.5 83l-97 278q-13 40 -26 48t-58 8h-272q-39 0 -47.5 -7t-22.5 -49l-84 -245q-13 -39 -18 -60t-6.5 -37t8.5 -23t21 -10.5t38 -7.5l60 -10q11 -10 9.5 -31.5t-13.5 -27.5q-23 1 -217 6 q-95 0 -203 -6q-11 8 -11.5 26.5zM416.5 601.5q4.5 -7.5 42.5 -7.5h213q44 0 52 8t-3 45l-86 246q-9 28 -19 57t-14.5 44t-9.5 29t-8 21t-6 11h-5q-5 -9 -61 -162l-86 -240q-14 -44 -9.5 -51.5zM524 1503l332 242q44 33 64 33q31 0 67 -58q15 -26 23.5 -52.5t5.5 -35.5 q-15 -30 -68 -49l-397 -137q-12 3 -21 22.5t-6 34.5z" />
<glyph unicode="&#xc2;" horiz-adv-x="1284" d="M-60.5 20.5q-0.5 18.5 9.5 32.5l61 10q45 8 67.5 26.5t45.5 68.5q18 37 100 250l281 729q38 99 40 128q1 11 -1 21q32 6 66.5 30.5t55.5 45.5l21 22q22 0 35 -16q17 -46 46.5 -140.5t45.5 -140.5l295 -858q35 -103 59.5 -129t102.5 -41l30 -6q12 -10 13 -31t-10 -28 q-126 6 -267 6q-34 0 -250 -6q-12 7 -13.5 28.5t7.5 30.5l45 6q57 8 66.5 26t-12.5 83l-97 278q-13 40 -26 48t-58 8h-272q-39 0 -47.5 -7t-22.5 -49l-84 -245q-13 -39 -18 -60t-6.5 -37t8.5 -23t21 -10.5t38 -7.5l60 -10q11 -10 9.5 -31.5t-13.5 -27.5q-23 1 -217 6 q-95 0 -203 -6q-11 8 -11.5 26.5zM330 1468l276 252q51 48 101 9l276 -261q0 -12 -11 -31t-20 -20l-260 133q-34 17 -69 -2l-256 -131q-13 0 -25 19t-12 32zM416.5 601.5q4.5 -7.5 42.5 -7.5h213q44 0 52 8t-3 45l-86 246q-9 28 -19 57t-14.5 44t-9.5 29t-8 21t-6 11h-5 q-5 -9 -61 -162l-86 -240q-14 -44 -9.5 -51.5z" />
<glyph unicode="&#xc3;" horiz-adv-x="1284" d="M-60.5 20.5q-0.5 18.5 9.5 32.5l61 10q45 8 67.5 26.5t45.5 68.5q18 37 100 250l281 729q38 99 40 128q1 11 -1 21q32 6 66.5 30.5t55.5 45.5l21 22q22 0 35 -16q17 -46 46.5 -140.5t45.5 -140.5l295 -858q35 -103 59.5 -129t102.5 -41l30 -6q12 -10 13 -31t-10 -28 q-126 6 -267 6q-34 0 -250 -6q-12 7 -13.5 28.5t7.5 30.5l45 6q57 8 66.5 26t-12.5 83l-97 278q-13 40 -26 48t-58 8h-272q-39 0 -47.5 -7t-22.5 -49l-84 -245q-13 -39 -18 -60t-6.5 -37t8.5 -23t21 -10.5t38 -7.5l60 -10q11 -10 9.5 -31.5t-13.5 -27.5q-23 1 -217 6 q-95 0 -203 -6q-11 8 -11.5 26.5zM377 1401q7 37 33.5 102.5t50.5 93.5q31 33 62 44.5t79 11.5h117q83 0 123 30q30 18 53 66q5 4 23.5 1.5t25.5 -9.5q-14 -51 -41.5 -108.5t-48.5 -78.5q-27 -27 -51 -36t-64 -9h-129q-96 0 -127 -36q-29 -18 -61 -84q-37 -4 -45 12z M416.5 601.5q4.5 -7.5 42.5 -7.5h213q44 0 52 8t-3 45l-86 246q-9 28 -19 57t-14.5 44t-9.5 29t-8 21t-6 11h-5q-5 -9 -61 -162l-86 -240q-14 -44 -9.5 -51.5z" />
<glyph unicode="&#xc4;" horiz-adv-x="1284" d="M-60.5 20.5q-0.5 18.5 9.5 32.5l61 10q45 8 67.5 26.5t45.5 68.5q18 37 100 250l281 729q38 99 40 128q1 11 -1 21q32 6 66.5 30.5t55.5 45.5l21 22q22 0 35 -16q17 -46 46.5 -140.5t45.5 -140.5l295 -858q35 -103 59.5 -129t102.5 -41l30 -6q12 -10 13 -31t-10 -28 q-126 6 -267 6q-34 0 -250 -6q-12 7 -13.5 28.5t7.5 30.5l45 6q57 8 66.5 26t-12.5 83l-97 278q-13 40 -26 48t-58 8h-272q-39 0 -47.5 -7t-22.5 -49l-84 -245q-13 -39 -18 -60t-6.5 -37t8.5 -23t21 -10.5t38 -7.5l60 -10q11 -10 9.5 -31.5t-13.5 -27.5q-23 1 -217 6 q-95 0 -203 -6q-11 8 -11.5 26.5zM356 1554q0 52 34 86.5t85 34.5q48 0 81.5 -33t33.5 -77q0 -55 -32.5 -88t-82.5 -33t-84 28.5t-35 81.5zM416.5 601.5q4.5 -7.5 42.5 -7.5h213q44 0 52 8t-3 45l-86 246q-9 28 -19 57t-14.5 44t-9.5 29t-8 21t-6 11h-5q-5 -9 -61 -162 l-86 -240q-14 -44 -9.5 -51.5zM735 1554q0 52 34 86.5t85 34.5q48 0 81.5 -33t33.5 -77q0 -55 -32.5 -88t-82.5 -33t-84 28.5t-35 81.5z" />
<glyph unicode="&#xc5;" horiz-adv-x="1284" d="M-60.5 20.5q-0.5 18.5 9.5 32.5l61 10q45 8 67.5 26.5t45.5 68.5q18 37 100 250l281 729q38 99 40 128q1 11 -1 21q32 6 66.5 30.5t55.5 45.5l21 22q22 0 35 -16q17 -46 46.5 -140.5t45.5 -140.5l295 -858q35 -103 59.5 -129t102.5 -41l30 -6q12 -10 13 -31t-10 -28 q-126 6 -267 6q-34 0 -250 -6q-12 7 -13.5 28.5t7.5 30.5l45 6q57 8 66.5 26t-12.5 83l-97 278q-13 40 -26 48t-58 8h-272q-39 0 -47.5 -7t-22.5 -49l-84 -245q-13 -39 -18 -60t-6.5 -37t8.5 -23t21 -10.5t38 -7.5l60 -10q11 -10 9.5 -31.5t-13.5 -27.5q-23 1 -217 6 q-95 0 -203 -6q-11 8 -11.5 26.5zM416.5 601.5q4.5 -7.5 42.5 -7.5h213q44 0 52 8t-3 45l-86 246q-9 28 -19 57t-14.5 44t-9.5 29t-8 21t-6 11h-5q-5 -9 -61 -162l-86 -240q-14 -44 -9.5 -51.5zM463 1620q0 76 56 133t145 57t144.5 -57t55.5 -133q0 -79 -55.5 -137 t-144.5 -58t-145 58.5t-56 136.5zM567 1620q0 -55 26 -90t71 -35t70.5 35t25.5 90q0 53 -25.5 87t-70.5 34t-71 -34.5t-26 -86.5z" />
<glyph unicode="&#xc6;" horiz-adv-x="1732" d="M-107 21q-2 20 9 32l59 10q42 8 68.5 34t68.5 106q48 90 176 329t207 389t135 263q29 60 29 71q0 17 -37 23l-116 20q-13 9 -12.5 30.5t14.5 29.5q117 -6 290 -6h516q236 0 277 6q3 -15 9 -66t12.5 -117.5t11.5 -101.5q-6 -12 -30 -14.5t-36 6.5q-25 91 -52.5 132 t-76.5 54q-74 19 -164 19h-137q-65 0 -76.5 -16t-11.5 -105v-348q0 -38 7 -45.5t42 -7.5h99q140 0 177 13t50 77l14 69q12 11 35.5 10.5t30.5 -12.5q-6 -165 -6 -205q0 -17 6 -215q-7 -10 -30.5 -10.5t-35.5 8.5l-14 82q-10 62 -49 76t-178 14h-99q-35 0 -42 -8t-7 -47v-260 q0 -89 7 -139t28 -74q20 -24 65 -34t166 -11q79 -1 133 7t91 21.5t64.5 43.5t46 61.5t42.5 87.5q13 11 35 7t31 -19q-9 -65 -36.5 -160.5t-49.5 -136.5q-135 6 -506 6h-225q-170 0 -308 -6q-12 6 -13.5 27.5t9.5 31.5l76 8q29 3 42.5 5.5t29.5 11.5t22 22.5t12 40t7.5 62.5 t1.5 92v291q0 49 -12 59t-72 10h-193q-48 0 -60.5 -9t-35.5 -54q-158 -320 -215 -453q-13 -29 -6.5 -47t37.5 -22l108 -17q10 -12 8.5 -32t-14.5 -27q-111 6 -233 6q-87 0 -201 -6q-13 7 -15 27zM510 761q-1 -6 5 -9.5t22 -3.5h176q60 0 72 9.5t12 59.5v342q0 89 -11 111h-8 q-18 -22 -43 -70q-31 -60 -112.5 -217.5t-104.5 -202.5q-7 -13 -8 -19z" />
<glyph unicode="&#xc7;" horiz-adv-x="1421" d="M86 668q0 173 69.5 311.5t188.5 230.5q112 85 259.5 129.5t305.5 44.5q182 0 355 -45q14 -3 32.5 -7t24.5 -5q0 -5 4 -63t10 -123t15 -133q-10 -12 -33 -13.5t-33 9.5q-81 299 -397 299q-80 0 -154.5 -22t-141.5 -70.5t-117 -118t-79.5 -171t-29.5 -223.5 q0 -127 30.5 -234.5t82 -183t120.5 -128.5t146 -78t157 -25q297 0 428 305q14 13 34 9.5t28 -17.5q-10 -93 -41.5 -184.5t-57.5 -126.5q-15 -2 -41.5 -10t-29.5 -9q-45 -15 -129.5 -30.5t-167.5 -16.5l-54 -71q-11 -18 -8 -24.5t27 -18.5q117 -63 117 -162 q0 -79 -71.5 -130.5t-168.5 -51.5q-67 0 -106 23t-39 63q0 27 17 45t44 18t67.5 -36t59.5 -36t35 18t16 48q0 38 -42.5 74t-102.5 63l-6 12l125 168q-264 9 -457 133q-133 87 -212 230t-79 334z" />
<glyph unicode="&#xc8;" horiz-adv-x="1187" d="M43.5 21.5q-1.5 21.5 9.5 31.5l76 8q29 3 42.5 5.5t29.5 11.5t22 22.5t12 40t7.5 62.5t1.5 92v762q0 56 -1.5 92t-7.5 63t-12 40.5t-22 23t-30 12t-42 6.5l-33 4q-11 10 -9.5 32t13.5 28q117 -6 265 -6h391q236 0 276 6q3 -15 9 -66t12.5 -117.5t11.5 -101.5 q-6 -12 -30 -14.5t-36 6.5q-25 91 -52.5 132t-76.5 54q-74 19 -163 19h-138q-65 0 -76.5 -16t-11.5 -105v-346q0 -40 7 -47.5t42 -7.5h99q140 0 177 13t50 77l14 69q12 11 35.5 10.5t30.5 -12.5q-6 -165 -6 -205q0 -17 6 -215q-7 -10 -30.5 -10.5t-35.5 8.5l-14 82 q-10 62 -49 76t-178 14h-99q-35 0 -42 -8t-7 -47v-260q0 -89 7 -139t28 -74q20 -24 65 -34t167 -11q79 -1 133 7t90.5 21.5t64.5 43.5t46 61.5t42 87.5q13 11 35 7t31 -19q-9 -65 -36.5 -160.5t-49.5 -136.5q-135 6 -506 6h-233q-170 0 -308 -6q-12 6 -13.5 27.5zM242 1632 q-3 9 5 35.5t23 52.5q36 58 68 58q18 0 65 -33l330 -242q3 -14 -5.5 -34t-20.5 -23l-398 137q-52 19 -67 49z" />
<glyph unicode="&#xc9;" horiz-adv-x="1187" d="M43.5 21.5q-1.5 21.5 9.5 31.5l76 8q29 3 42.5 5.5t29.5 11.5t22 22.5t12 40t7.5 62.5t1.5 92v762q0 56 -1.5 92t-7.5 63t-12 40.5t-22 23t-30 12t-42 6.5l-33 4q-11 10 -9.5 32t13.5 28q117 -6 265 -6h391q236 0 276 6q3 -15 9 -66t12.5 -117.5t11.5 -101.5 q-6 -12 -30 -14.5t-36 6.5q-25 91 -52.5 132t-76.5 54q-74 19 -163 19h-138q-65 0 -76.5 -16t-11.5 -105v-346q0 -40 7 -47.5t42 -7.5h99q140 0 177 13t50 77l14 69q12 11 35.5 10.5t30.5 -12.5q-6 -165 -6 -205q0 -17 6 -215q-7 -10 -30.5 -10.5t-35.5 8.5l-14 82 q-10 62 -49 76t-178 14h-99q-35 0 -42 -8t-7 -47v-260q0 -89 7 -139t28 -74q20 -24 65 -34t167 -11q79 -1 133 7t90.5 21.5t64.5 43.5t46 61.5t42 87.5q13 11 35 7t31 -19q-9 -65 -36.5 -160.5t-49.5 -136.5q-135 6 -506 6h-233q-170 0 -308 -6q-12 6 -13.5 27.5zM516 1503 l332 242q44 33 63 33q32 0 68 -58q15 -26 23.5 -52.5t5.5 -35.5q-15 -30 -68 -49l-397 -137q-12 3 -21 22.5t-6 34.5z" />
<glyph unicode="&#xca;" horiz-adv-x="1187" d="M43.5 21.5q-1.5 21.5 9.5 31.5l76 8q29 3 42.5 5.5t29.5 11.5t22 22.5t12 40t7.5 62.5t1.5 92v762q0 56 -1.5 92t-7.5 63t-12 40.5t-22 23t-30 12t-42 6.5l-33 4q-11 10 -9.5 32t13.5 28q117 -6 265 -6h391q236 0 276 6q3 -15 9 -66t12.5 -117.5t11.5 -101.5 q-6 -12 -30 -14.5t-36 6.5q-25 91 -52.5 132t-76.5 54q-74 19 -163 19h-138q-65 0 -76.5 -16t-11.5 -105v-346q0 -40 7 -47.5t42 -7.5h99q140 0 177 13t50 77l14 69q12 11 35.5 10.5t30.5 -12.5q-6 -165 -6 -205q0 -17 6 -215q-7 -10 -30.5 -10.5t-35.5 8.5l-14 82 q-10 62 -49 76t-178 14h-99q-35 0 -42 -8t-7 -47v-260q0 -89 7 -139t28 -74q20 -24 65 -34t167 -11q79 -1 133 7t90.5 21.5t64.5 43.5t46 61.5t42 87.5q13 11 35 7t31 -19q-9 -65 -36.5 -160.5t-49.5 -136.5q-135 6 -506 6h-233q-170 0 -308 -6q-12 6 -13.5 27.5zM301 1499 l281 260q48 45 96 0l276 -260q0 -13 -10 -31.5t-20 -19.5l-258 133q-15 7 -36.5 7t-35.5 -7l-256 -133q-13 0 -25 19t-12 32z" />
<glyph unicode="&#xcb;" horiz-adv-x="1187" d="M43.5 21.5q-1.5 21.5 9.5 31.5l76 8q29 3 42.5 5.5t29.5 11.5t22 22.5t12 40t7.5 62.5t1.5 92v762q0 56 -1.5 92t-7.5 63t-12 40.5t-22 23t-30 12t-42 6.5l-33 4q-11 10 -9.5 32t13.5 28q117 -6 265 -6h391q236 0 276 6q3 -15 9 -66t12.5 -117.5t11.5 -101.5 q-6 -12 -30 -14.5t-36 6.5q-25 91 -52.5 132t-76.5 54q-74 19 -163 19h-138q-65 0 -76.5 -16t-11.5 -105v-346q0 -40 7 -47.5t42 -7.5h99q140 0 177 13t50 77l14 69q12 11 35.5 10.5t30.5 -12.5q-6 -165 -6 -205q0 -17 6 -215q-7 -10 -30.5 -10.5t-35.5 8.5l-14 82 q-10 62 -49 76t-178 14h-99q-35 0 -42 -8t-7 -47v-260q0 -89 7 -139t28 -74q20 -24 65 -34t167 -11q79 -1 133 7t90.5 21.5t64.5 43.5t46 61.5t42 87.5q13 11 35 7t31 -19q-9 -65 -36.5 -160.5t-49.5 -136.5q-135 6 -506 6h-233q-170 0 -308 -6q-12 6 -13.5 27.5zM332 1554 q0 52 34 86.5t85 34.5q47 0 80.5 -33.5t33.5 -76.5q0 -54 -33 -87.5t-81 -33.5q-50 0 -84 28.5t-35 81.5zM711 1554q0 52 33.5 86.5t84.5 34.5q48 0 81.5 -33t33.5 -77q0 -55 -32.5 -88t-82.5 -33t-83.5 28.5t-34.5 81.5z" />
<glyph unicode="&#xcc;" horiz-adv-x="724" d="M6 1632q-3 9 5.5 35.5t23.5 52.5q36 58 67 58q19 0 66 -33l330 -242q3 -14 -6 -34t-21 -23l-397 137q-53 19 -68 49zM74.5 21.5q-1.5 21.5 9.5 31.5l45 6q29 4 42.5 6.5t29.5 12t22 22.5t12 40t7.5 63t1.5 92v762q0 56 -1.5 92t-7.5 62.5t-12 40t-22 22.5t-29.5 11.5 t-42.5 6.5l-45 6q-11 10 -9.5 32t13.5 28q135 -6 277 -6q137 0 272 6q12 -6 13.5 -28t-9.5 -32l-45 -6q-29 -4 -42.5 -6.5t-29.5 -11.5t-22 -22.5t-12 -40t-7.5 -62.5t-1.5 -92v-762q0 -56 1.5 -92t7.5 -63t12 -40t22 -22.5t29.5 -12t42.5 -6.5l45 -6q11 -10 9.5 -31.5 t-13.5 -27.5q-135 6 -272 6q-142 0 -277 -6q-12 6 -13.5 27.5z" />
<glyph unicode="&#xcd;" horiz-adv-x="724" d="M74.5 21.5q-1.5 21.5 9.5 31.5l45 6q29 4 42.5 6.5t29.5 12t22 22.5t12 40t7.5 63t1.5 92v762q0 56 -1.5 92t-7.5 62.5t-12 40t-22 22.5t-29.5 11.5t-42.5 6.5l-45 6q-11 10 -9.5 32t13.5 28q135 -6 277 -6q137 0 272 6q12 -6 13.5 -28t-9.5 -32l-45 -6 q-29 -4 -42.5 -6.5t-29.5 -11.5t-22 -22.5t-12 -40t-7.5 -62.5t-1.5 -92v-762q0 -56 1.5 -92t7.5 -63t12 -40t22 -22.5t29.5 -12t42.5 -6.5l45 -6q11 -10 9.5 -31.5t-13.5 -27.5q-135 6 -272 6q-142 0 -277 -6q-12 6 -13.5 27.5zM244 1503l331 242q44 33 64 33q32 0 68 -58 q15 -26 23 -52.5t5 -35.5q-15 -30 -67 -49l-398 -137q-12 3 -20.5 22.5t-5.5 34.5z" />
<glyph unicode="&#xce;" horiz-adv-x="724" d="M51 1499l281 260q48 45 96 0l277 -260q0 -13 -10.5 -31.5t-20.5 -19.5l-258 133q-37 18 -76 -2l-252 -131q-13 0 -25 19t-12 32zM74.5 21.5q-1.5 21.5 9.5 31.5l45 6q29 4 42.5 6.5t29.5 12t22 22.5t12 40t7.5 63t1.5 92v762q0 56 -1.5 92t-7.5 62.5t-12 40t-22 22.5 t-29.5 11.5t-42.5 6.5l-45 6q-11 10 -9.5 32t13.5 28q135 -6 277 -6q137 0 272 6q12 -6 13.5 -28t-9.5 -32l-45 -6q-29 -4 -42.5 -6.5t-29.5 -11.5t-22 -22.5t-12 -40t-7.5 -62.5t-1.5 -92v-762q0 -56 1.5 -92t7.5 -63t12 -40t22 -22.5t29.5 -12t42.5 -6.5l45 -6 q11 -10 9.5 -31.5t-13.5 -27.5q-135 6 -272 6q-142 0 -277 -6q-12 6 -13.5 27.5z" />
<glyph unicode="&#xcf;" horiz-adv-x="724" d="M74.5 21.5q-1.5 21.5 9.5 31.5l45 6q29 4 42.5 6.5t29.5 12t22 22.5t12 40t7.5 63t1.5 92v762q0 56 -1.5 92t-7.5 62.5t-12 40t-22 22.5t-29.5 11.5t-42.5 6.5l-45 6q-11 10 -9.5 32t13.5 28q135 -6 277 -6q137 0 272 6q12 -6 13.5 -28t-9.5 -32l-45 -6 q-29 -4 -42.5 -6.5t-29.5 -11.5t-22 -22.5t-12 -40t-7.5 -62.5t-1.5 -92v-762q0 -56 1.5 -92t7.5 -63t12 -40t22 -22.5t29.5 -12t42.5 -6.5l45 -6q11 -10 9.5 -31.5t-13.5 -27.5q-135 6 -272 6q-142 0 -277 -6q-12 6 -13.5 27.5zM76 1554q0 52 34 86.5t85 34.5q48 0 81 -33 t33 -77q0 -55 -32 -88t-82 -33q-52 0 -85 28t-34 82zM455 1554q0 52 33.5 86.5t84.5 34.5q48 0 81.5 -33t33.5 -77q0 -55 -32.5 -88t-82.5 -33t-83.5 28.5t-34.5 81.5z" />
<glyph unicode="&#xd0;" horiz-adv-x="1617" d="M62 704.5q0 30.5 12 47.5h182v292q0 154 -14 191t-84 43l-43 4q-11 7 -10.5 28.5t12.5 28.5q233 19 512 19q150 0 261.5 -15.5t221.5 -54.5q191 -70 305.5 -230t114.5 -382q0 -180 -92.5 -338.5t-274.5 -251.5q-192 -98 -508 -98q-69 0 -167 6t-130 6q-125 0 -260 -6 q-12 6 -13.5 27.5t9.5 31.5l45 6q29 4 42.5 6.5t29.5 12t22 22.5t12 40t7.5 63t1.5 92v364h-182q-12 15 -12 45.5zM494 375q0 -57 2 -92.5t9.5 -74.5t22.5 -61t40.5 -41.5t64 -27.5t92.5 -8q134 0 236 45.5t165.5 127.5t95 190.5t31.5 240.5q0 296 -156 449t-421 153 q-60 0 -107 -9.5t-59 -19.5q-16 -14 -16 -151v-344h284q12 -17 12 -47.5t-12 -45.5h-284v-284z" />
<glyph unicode="&#xd1;" horiz-adv-x="1597" d="M26.5 1330.5q2.5 23.5 16.5 27.5q58 -6 242 -6q67 0 141 6q23 -58 135.5 -196.5t194.5 -227.5l205 -221q28 -30 105.5 -117t129.5 -144.5t61 -62.5q7 7 7 49v400q0 339 -39 403q-24 42 -103 51l-47 6q-14 10 -12.5 33t16.5 27q120 -6 236 -6q104 0 215 6q12 -8 14 -28.5 t-10 -31.5l-47 -10q-21 -4 -29.5 -6t-23 -7.5t-22.5 -13.5t-13 -20q-13 -29 -20 -102.5t-8 -132t-1 -168.5v-490q0 -313 6 -360q-23 -33 -69 -29q-42 55 -240 281l-479 546q-185 214 -234 258q-6 0 -6 -131v-399q0 -339 37 -403q25 -43 104 -52l46 -6q14 -10 12 -32.5 t-17 -26.5q-114 6 -233 6q-105 0 -213 -6q-12 8 -14 28t10 31l45 10q27 5 39.5 8.5t28 14t22.5 25.5q13 29 19 102.5t7 132t1 168.5v485q0 130 -9 170t-59 82q-32 25 -108 41l-31 6q-11 9 -8.5 32.5zM543 1401q7 37 33.5 102.5t50.5 93.5q31 33 62 44.5t79 11.5h117 q83 0 123 30q30 18 53 66q5 4 23.5 1.5t25.5 -9.5q-14 -51 -41.5 -108.5t-48.5 -78.5q-27 -27 -51 -36t-64 -9h-129q-96 0 -127 -36q-29 -18 -61 -84q-37 -4 -45 12z" />
<glyph unicode="&#xd2;" horiz-adv-x="1622" d="M86 657q0 207 93 373t260.5 260t379.5 94q172 0 310.5 -58.5t226 -158t134 -226.5t46.5 -269q0 -199 -93.5 -360.5t-258.5 -253t-369 -91.5q-169 0 -308.5 56.5t-230.5 152t-140.5 219.5t-49.5 262zM365 717q0 -74 11 -148t33 -150.5t60.5 -142t88.5 -117t121.5 -81 t156.5 -29.5q90 0 164.5 34.5t133 103.5t91 183.5t32.5 264.5q0 95 -16.5 188t-53.5 180.5t-89.5 153.5t-131.5 106t-173 40q-64 0 -123.5 -18.5t-115.5 -62.5t-97.5 -110t-66.5 -167.5t-25 -227.5zM444 1632q-3 9 5.5 35.5t23.5 52.5q36 58 68 58q18 0 65 -33l330 -242 q3 -14 -6 -34t-21 -23l-397 137q-53 19 -68 49z" />
<glyph unicode="&#xd3;" horiz-adv-x="1622" d="M86 657q0 207 93 373t260.5 260t379.5 94q172 0 310.5 -58.5t226 -158t134 -226.5t46.5 -269q0 -199 -93.5 -360.5t-258.5 -253t-369 -91.5q-169 0 -308.5 56.5t-230.5 152t-140.5 219.5t-49.5 262zM365 717q0 -74 11 -148t33 -150.5t60.5 -142t88.5 -117t121.5 -81 t156.5 -29.5q90 0 164.5 34.5t133 103.5t91 183.5t32.5 264.5q0 95 -16.5 188t-53.5 180.5t-89.5 153.5t-131.5 106t-173 40q-64 0 -123.5 -18.5t-115.5 -62.5t-97.5 -110t-66.5 -167.5t-25 -227.5zM672 1503l332 242q44 33 63 33q32 0 68 -58q15 -26 23 -52.5t5 -35.5 q-15 -30 -67 -49l-398 -137q-12 3 -20.5 22.5t-5.5 34.5z" />
<glyph unicode="&#xd4;" horiz-adv-x="1622" d="M86 657q0 207 93 373t260.5 260t379.5 94q172 0 310.5 -58.5t226 -158t134 -226.5t46.5 -269q0 -199 -93.5 -360.5t-258.5 -253t-369 -91.5q-169 0 -308.5 56.5t-230.5 152t-140.5 219.5t-49.5 262zM365 717q0 -74 11 -148t33 -150.5t60.5 -142t88.5 -117t121.5 -81 t156.5 -29.5q90 0 164.5 34.5t133 103.5t91 183.5t32.5 264.5q0 95 -16.5 188t-53.5 180.5t-89.5 153.5t-131.5 106t-173 40q-64 0 -123.5 -18.5t-115.5 -62.5t-97.5 -110t-66.5 -167.5t-25 -227.5zM508 1499l280 260q48 45 97 0l276 -260q0 -13 -10.5 -31.5t-20.5 -19.5 l-258 131q-15 7 -36.5 7t-34.5 -7l-256 -131q-13 0 -25 19t-12 32z" />
<glyph unicode="&#xd5;" horiz-adv-x="1622" d="M86 657q0 207 93 373t260.5 260t379.5 94q172 0 310.5 -58.5t226 -158t134 -226.5t46.5 -269q0 -199 -93.5 -360.5t-258.5 -253t-369 -91.5q-169 0 -308.5 56.5t-230.5 152t-140.5 219.5t-49.5 262zM365 717q0 -74 11 -148t33 -150.5t60.5 -142t88.5 -117t121.5 -81 t156.5 -29.5q90 0 164.5 34.5t133 103.5t91 183.5t32.5 264.5q0 95 -16.5 188t-53.5 180.5t-89.5 153.5t-131.5 106t-173 40q-64 0 -123.5 -18.5t-115.5 -62.5t-97.5 -110t-66.5 -167.5t-25 -227.5zM555 1411q7 38 33.5 103.5t50.5 93.5q30 33 61.5 44t79.5 11h117 q81 0 123 31q31 19 53 65q5 4 23.5 1.5t25.5 -9.5q-14 -50 -41.5 -107.5t-48.5 -78.5q-27 -27 -51 -36t-63 -9h-130q-94 0 -126 -37q-30 -18 -62 -84q-37 -4 -45 12z" />
<glyph unicode="&#xd6;" horiz-adv-x="1622" d="M86 657q0 207 93 373t260.5 260t379.5 94q172 0 310.5 -58.5t226 -158t134 -226.5t46.5 -269q0 -199 -93.5 -360.5t-258.5 -253t-369 -91.5q-169 0 -308.5 56.5t-230.5 152t-140.5 219.5t-49.5 262zM365 717q0 -74 11 -148t33 -150.5t60.5 -142t88.5 -117t121.5 -81 t156.5 -29.5q90 0 164.5 34.5t133 103.5t91 183.5t32.5 264.5q0 95 -16.5 188t-53.5 180.5t-89.5 153.5t-131.5 106t-173 40q-64 0 -123.5 -18.5t-115.5 -62.5t-97.5 -110t-66.5 -167.5t-25 -227.5zM483 1554q0 52 34 86.5t85 34.5q48 0 81.5 -33t33.5 -77q0 -55 -32.5 -88 t-82.5 -33t-84 28.5t-35 81.5zM944 1554q0 52 34 86.5t85 34.5q48 0 81.5 -33t33.5 -77q0 -55 -32.5 -88t-82.5 -33t-84 28.5t-35 81.5z" />
<glyph unicode="&#xd7;" d="M143 125l279 281l-279 280l99 102l280 -280l283 285l98 -101l-280 -284l280 -283l-98 -102l-283 282l-280 -282z" />
<glyph unicode="&#xd8;" horiz-adv-x="1622" d="M86 657q0 207 93 373t260.5 260t379.5 94q220 0 385 -92l101 133q30 -5 50 -19.5t19 -37.5l-94 -127q124 -97 190 -246.5t66 -322.5q0 -199 -93.5 -360.5t-258.5 -253t-369 -91.5q-222 0 -397 101l-117 -158q-26 3 -46.5 18.5t-23.5 40.5l111 150q-123 96 -189.5 237 t-66.5 301zM365 717q0 -250 100 -432l635 866q-126 152 -307 152q-64 0 -123.5 -18.5t-115.5 -62.5t-97.5 -110t-66.5 -167.5t-25 -227.5zM518 205q126 -156 318 -156q90 0 164.5 34.5t133 103.5t91 183.5t32.5 264.5q0 258 -104 436z" />
<glyph unicode="&#xd9;" horiz-adv-x="1523" d="M72.5 1331q1.5 21 13.5 27q123 -6 264 -6q140 0 275 6q12 -6 13.5 -27t-9.5 -31l-45 -6q-28 -4 -42 -6.5t-30 -12t-22 -23t-12 -40.5t-7.5 -63t-1.5 -92v-469q0 -89 11 -163.5t37.5 -141.5t68.5 -113.5t106.5 -74t147.5 -27.5q194 0 286.5 135.5t92.5 378.5v256 q0 341 -39 403q-24 41 -103 53l-41 6q-14 10 -12.5 32t16.5 26q105 -6 228 -6q103 0 217 6q12 -8 14 -27.5t-10 -30.5l-45 -10q-19 -4 -29.5 -6.5t-24.5 -8t-22.5 -14t-13.5 -20.5q-13 -28 -20 -101.5t-8 -132.5t-1 -169v-244q0 -327 -135 -473q-142 -154 -402 -154 q-284 0 -421 131q-136 130 -136 439v520q0 56 -1 91.5t-7.5 62.5t-12 40t-22 22.5t-29 12.5t-42.5 8l-35 6q-11 10 -9.5 31zM487 1632q-3 9 5.5 35.5t23.5 52.5q36 58 68 58q18 0 65 -33l330 -242q3 -14 -6 -34t-21 -23l-397 137q-53 19 -68 49z" />
<glyph unicode="&#xda;" horiz-adv-x="1523" d="M72.5 1331q1.5 21 13.5 27q123 -6 264 -6q140 0 275 6q12 -6 13.5 -27t-9.5 -31l-45 -6q-28 -4 -42 -6.5t-30 -12t-22 -23t-12 -40.5t-7.5 -63t-1.5 -92v-469q0 -89 11 -163.5t37.5 -141.5t68.5 -113.5t106.5 -74t147.5 -27.5q194 0 286.5 135.5t92.5 378.5v256 q0 341 -39 403q-24 41 -103 53l-41 6q-14 10 -12.5 32t16.5 26q105 -6 228 -6q103 0 217 6q12 -8 14 -27.5t-10 -30.5l-45 -10q-19 -4 -29.5 -6.5t-24.5 -8t-22.5 -14t-13.5 -20.5q-13 -28 -20 -101.5t-8 -132.5t-1 -169v-244q0 -327 -135 -473q-142 -154 -402 -154 q-284 0 -421 131q-136 130 -136 439v520q0 56 -1 91.5t-7.5 62.5t-12 40t-22 22.5t-29 12.5t-42.5 8l-35 6q-11 10 -9.5 31zM684 1503l332 242q44 33 63 33q32 0 68 -58q15 -26 23.5 -52.5t5.5 -35.5q-15 -30 -68 -49l-397 -137q-12 3 -21 22.5t-6 34.5z" />
<glyph unicode="&#xdb;" horiz-adv-x="1523" d="M72.5 1331q1.5 21 13.5 27q123 -6 264 -6q140 0 275 6q12 -6 13.5 -27t-9.5 -31l-45 -6q-28 -4 -42 -6.5t-30 -12t-22 -23t-12 -40.5t-7.5 -63t-1.5 -92v-469q0 -89 11 -163.5t37.5 -141.5t68.5 -113.5t106.5 -74t147.5 -27.5q194 0 286.5 135.5t92.5 378.5v256 q0 341 -39 403q-24 41 -103 53l-41 6q-14 10 -12.5 32t16.5 26q105 -6 228 -6q103 0 217 6q12 -8 14 -27.5t-10 -30.5l-45 -10q-19 -4 -29.5 -6.5t-24.5 -8t-22.5 -14t-13.5 -20.5q-13 -28 -20 -101.5t-8 -132.5t-1 -169v-244q0 -327 -135 -473q-142 -154 -402 -154 q-284 0 -421 131q-136 130 -136 439v520q0 56 -1 91.5t-7.5 62.5t-12 40t-22 22.5t-29 12.5t-42.5 8l-35 6q-11 10 -9.5 31zM494 1499l280 260q48 45 96 0l277 -260q0 -13 -10.5 -31.5t-20.5 -19.5l-258 141q-16 9 -37 8.5t-35 -8.5l-256 -141q-13 0 -24.5 18.5t-11.5 32.5z " />
<glyph unicode="&#xdc;" horiz-adv-x="1523" d="M72.5 1331q1.5 21 13.5 27q123 -6 264 -6q140 0 275 6q12 -6 13.5 -27t-9.5 -31l-45 -6q-28 -4 -42 -6.5t-30 -12t-22 -23t-12 -40.5t-7.5 -63t-1.5 -92v-469q0 -89 11 -163.5t37.5 -141.5t68.5 -113.5t106.5 -74t147.5 -27.5q194 0 286.5 135.5t92.5 378.5v256 q0 341 -39 403q-24 41 -103 53l-41 6q-14 10 -12.5 32t16.5 26q105 -6 228 -6q103 0 217 6q12 -8 14 -27.5t-10 -30.5l-45 -10q-19 -4 -29.5 -6.5t-24.5 -8t-22.5 -14t-13.5 -20.5q-13 -28 -20 -101.5t-8 -132.5t-1 -169v-244q0 -327 -135 -473q-142 -154 -402 -154 q-284 0 -421 131q-136 130 -136 439v520q0 56 -1 91.5t-7.5 62.5t-12 40t-22 22.5t-29 12.5t-42.5 8l-35 6q-11 10 -9.5 31zM492 1554q0 52 33.5 86.5t84.5 34.5q48 0 81.5 -33t33.5 -77q0 -55 -32.5 -88t-82.5 -33t-83.5 28.5t-34.5 81.5zM911 1554q0 52 34 86.5t85 34.5 q48 0 81.5 -33t33.5 -77q0 -55 -32.5 -88t-82.5 -33t-84 28.5t-35 81.5z" />
<glyph unicode="&#xdd;" horiz-adv-x="1208" d="M-31 1331q3 23 15 27q132 -6 258 -6q192 0 262 6q12 -6 14 -27.5t-10 -32.5l-62 -10q-26 -5 -34.5 -9.5t-8.5 -16.5q0 -26 37 -107q150 -330 238 -491q147 274 240 452q55 110 55 137q0 25 -47 31l-62 14q-11 10 -9.5 31.5t15.5 28.5q135 -6 215 -6q96 0 195 6 q13 -7 14 -27.5t-10 -32.5l-59 -12q-67 -13 -104 -53.5t-120 -181.5q-66 -110 -194 -344q-47 -82 -61.5 -134.5t-14.5 -154.5v-123q0 -56 1.5 -92t7.5 -63t12.5 -40t23 -22t30.5 -11.5t44 -5.5l78 -8q11 -10 9.5 -31.5t-13.5 -27.5q-190 6 -310 6q-131 0 -297 -6 q-12 6 -13.5 27.5t9.5 31.5l66 8q29 4 42.5 6.5t29.5 11.5t22 22t12 39.5t7.5 62.5t1.5 92v121q0 84 -11.5 126.5t-54.5 127.5l-246 485q-36 70 -61.5 93.5t-91.5 37.5l-54 12q-9 10 -6 33zM526 1503l332 242q44 33 64 33q31 0 67 -58q15 -26 23.5 -52.5t5.5 -35.5 q-15 -30 -68 -49l-397 -137q-12 3 -21 22.5t-6 34.5z" />
<glyph unicode="&#xde;" horiz-adv-x="1191" d="M74.5 21.5q-1.5 21.5 9.5 31.5l45 6q29 4 42.5 6.5t29.5 12t22 22.5t12 40t7.5 63t1.5 92v762q0 56 -1 91.5t-8 62t-12 39.5t-22 22.5t-29.5 12.5t-42.5 9l-45 9q-11 7 -9.5 28t13.5 27q135 -6 277 -6q137 0 272 6q12 -6 13.5 -27t-9.5 -28l-45 -9q-26 -4 -37 -7 t-27 -8.5t-22 -14.5t-13.5 -23t-9.5 -37t-4 -52.5t-2 -72.5h183q217 0 340.5 -97t123.5 -265q0 -88 -37.5 -158.5t-101 -114t-141.5 -66t-164 -22.5h-45q-8 8 -8.5 24.5t6.5 27.5q119 25 177 107t58 196q0 127 -69 206.5t-207 79.5q-44 0 -66.5 -2t-34 -13.5t-13 -22.5 t-1.5 -41v-623q0 -56 1.5 -92t7.5 -62.5t12 -39.5t22 -22t29.5 -11.5t42.5 -6.5l70 -8q11 -10 9.5 -31.5t-13.5 -27.5q-173 6 -297 6q-142 0 -277 -6q-12 6 -13.5 27.5z" />
<glyph unicode="&#xdf;" horiz-adv-x="1136" d="M47.5 21.5q-1.5 21.5 9.5 31.5l31 4q60 7 76 43t16 144v411q0 42 -5.5 52t-31.5 10h-73q-12 6 -14.5 22t7.5 25l89 45q28 16 28 39q0 197 66 334q29 57 68 105.5t91.5 89.5t122.5 64t150 23q86 0 153.5 -24.5t108 -65.5t61.5 -91t21 -105q0 -30 -5.5 -56t-11.5 -42 t-23.5 -37t-26.5 -30t-36 -33t-38 -34l-37 -35q-74 -71 -74 -149q0 -36 23.5 -75t49.5 -65.5t70 -64.5q35 -32 58.5 -56t52 -61t43 -78.5t14.5 -85.5q0 -100 -50 -171t-123.5 -102.5t-159.5 -31.5q-41 0 -71 5t-57 18.5t-41 40t-14 65.5q0 32 15.5 57t42.5 25q14 0 34 -20 t38 -44.5t47 -44.5t59 -20q35 0 68.5 28t33.5 87q0 49 -34.5 95.5t-106.5 105.5q-82 68 -126 132.5t-44 143.5q0 27 7.5 55t15 47t27.5 49t27 39.5t32 40t26 31.5q45 56 68.5 107t23.5 123q0 111 -54.5 178t-131.5 67q-108 0 -173 -147t-65 -389v-602q0 -107 16 -142t78 -45 l25 -4q11 -10 9.5 -31.5t-13.5 -27.5q-76 6 -227 6q-93 0 -222 -6q-12 6 -13.5 27.5z" />
<glyph unicode="&#xe0;" horiz-adv-x="860" d="M66 170q0 63 36 109.5t134 80.5q112 39 225 82q47 16 47 54l2 53q3 87 -26 140.5t-99 53.5q-44 0 -73.5 -23.5t-35.5 -66.5q-5 -53 -38 -73q-23 -14 -61.5 -25.5t-70.5 -11.5q-38 0 -38 32q0 59 79 132q50 47 146 88t170 41q126 0 193 -62.5t61 -193.5l-15 -320 q-9 -180 99 -180q15 0 31 5.5t26 11t12 5.5q8 0 15.5 -14t3.5 -27q-29 -40 -91 -65t-114 -25q-94 0 -147 58q-24 24 -33 24q-7 0 -55 -28q-84 -54 -175 -54q-99 0 -153.5 58.5t-54.5 140.5zM180 1294q0 19 11 32t38 32q54 26 74 26q36 0 62 -65l147 -377q-9 -34 -51 -27 l-236 299q-45 55 -45 80zM285 203q0 -45 30 -82t84 -37q51 0 74 28t25 70l4 148q0 35 -17 35q-24 0 -90 -25q-52 -18 -81 -47.5t-29 -89.5z" />
<glyph unicode="&#xe1;" horiz-adv-x="860" d="M66 170q0 63 36 109.5t134 80.5q112 39 225 82q47 16 47 54l2 53q3 87 -26 140.5t-99 53.5q-44 0 -73.5 -23.5t-35.5 -66.5q-5 -53 -38 -73q-23 -14 -61.5 -25.5t-70.5 -11.5q-38 0 -38 32q0 59 79 132q50 47 146 88t170 41q126 0 193 -62.5t61 -193.5l-15 -320 q-9 -180 99 -180q15 0 31 5.5t26 11t12 5.5q8 0 15.5 -14t3.5 -27q-29 -40 -91 -65t-114 -25q-94 0 -147 58q-24 24 -33 24q-7 0 -55 -28q-84 -54 -175 -54q-99 0 -153.5 58.5t-54.5 140.5zM285 203q0 -45 30 -82t84 -37q51 0 74 28t25 70l4 148q0 35 -17 35q-24 0 -90 -25 q-52 -18 -81 -47.5t-29 -89.5zM350 932l174 373q31 63 64 63q22 0 76 -33q28 -20 38.5 -33.5t10.5 -31.5q0 -27 -51 -74l-263 -293q-43 -3 -49 29z" />
<glyph unicode="&#xe2;" horiz-adv-x="860" d="M66 170q0 63 36 109.5t134 80.5q112 39 225 82q47 16 47 54l2 53q3 87 -26 140.5t-99 53.5q-44 0 -73.5 -23.5t-35.5 -66.5q-5 -53 -38 -73q-23 -14 -61.5 -25.5t-70.5 -11.5q-38 0 -38 32q0 59 79 132q50 47 146 88t170 41q126 0 193 -62.5t61 -193.5l-15 -320 q-9 -180 99 -180q15 0 31 5.5t26 11t12 5.5q8 0 15.5 -14t3.5 -27q-29 -40 -91 -65t-114 -25q-94 0 -147 58q-24 24 -33 24q-7 0 -55 -28q-84 -54 -175 -54q-99 0 -153.5 58.5t-54.5 140.5zM172 938l211 422q16 26 45 26q31 0 43 -26l205 -410q-1 -17 -16 -27t-35 -10 l-152 189q-2 2 -5 6q-34 39 -44 41q-3 0 -8.5 -6.5t-19.5 -23t-25 -29.5l-152 -181q-18 -1 -31 7.5t-16 21.5zM285 203q0 -45 30 -82t84 -37q51 0 74 28t25 70l4 148q0 35 -17 35q-24 0 -90 -25q-52 -18 -81 -47.5t-29 -89.5z" />
<glyph unicode="&#xe3;" horiz-adv-x="860" d="M66 170q0 63 36 109.5t134 80.5q112 39 225 82q47 16 47 54l2 53q3 87 -26 140.5t-99 53.5q-44 0 -73.5 -23.5t-35.5 -66.5q-5 -53 -38 -73q-23 -14 -61.5 -25.5t-70.5 -11.5q-38 0 -38 32q0 59 79 132q50 47 146 88t170 41q126 0 193 -62.5t61 -193.5l-15 -320 q-9 -180 99 -180q15 0 31 5.5t26 11t12 5.5q8 0 15.5 -14t3.5 -27q-29 -40 -91 -65t-114 -25q-94 0 -147 58q-24 24 -33 24q-7 0 -55 -28q-84 -54 -175 -54q-99 0 -153.5 58.5t-54.5 140.5zM162 932q7 37 33 99.5t51 90.5q29 32 58.5 43t74.5 11h113q85 0 118 26 q32 23 49 64q7 3 24.5 1.5t23.5 -7.5q-10 -47 -37 -103t-49 -78q-25 -25 -47.5 -33t-61.5 -8h-125q-84 0 -121 -37q-27 -19 -61 -81q-35 -4 -43 12zM285 203q0 -45 30 -82t84 -37q51 0 74 28t25 70l4 148q0 35 -17 35q-24 0 -90 -25q-52 -18 -81 -47.5t-29 -89.5z" />
<glyph unicode="&#xe4;" horiz-adv-x="860" d="M66 170q0 63 36 109.5t134 80.5q112 39 225 82q47 16 47 54l2 53q3 87 -26 140.5t-99 53.5q-44 0 -73.5 -23.5t-35.5 -66.5q-5 -53 -38 -73q-23 -14 -61.5 -25.5t-70.5 -11.5q-38 0 -38 32q0 59 79 132q50 47 146 88t170 41q126 0 193 -62.5t61 -193.5l-15 -320 q-9 -180 99 -180q15 0 31 5.5t26 11t12 5.5q8 0 15.5 -14t3.5 -27q-29 -40 -91 -65t-114 -25q-94 0 -147 58q-24 24 -33 24q-7 0 -55 -28q-84 -54 -175 -54q-99 0 -153.5 58.5t-54.5 140.5zM121 1108q0 53 35 89t88 36q48 0 81 -35.5t33 -79.5q0 -56 -32 -90.5t-82 -34.5 q-54 0 -88 30t-35 85zM285 203q0 -45 30 -82t84 -37q51 0 74 28t25 70l4 148q0 35 -17 35q-24 0 -90 -25q-52 -18 -81 -47.5t-29 -89.5zM479 1108q-2 53 32.5 89t86.5 36q51 0 84 -35t33 -80q0 -57 -32 -91t-85 -34t-85.5 30t-33.5 85z" />
<glyph unicode="&#xe5;" horiz-adv-x="860" d="M66 170q0 63 36 109.5t134 80.5q112 39 225 82q47 16 47 54l2 53q3 87 -26 140.5t-99 53.5q-44 0 -73.5 -23.5t-35.5 -66.5q-5 -53 -38 -73q-23 -14 -61.5 -25.5t-70.5 -11.5q-38 0 -38 32q0 59 79 132q50 47 146 88t170 41q126 0 193 -62.5t61 -193.5l-15 -320 q-9 -180 99 -180q15 0 31 5.5t26 11t12 5.5q8 0 15.5 -14t3.5 -27q-29 -40 -91 -65t-114 -25q-94 0 -147 58q-24 24 -33 24q-7 0 -55 -28q-84 -54 -175 -54q-99 0 -153.5 58.5t-54.5 140.5zM240 1139q0 76 53 133t137 57t137.5 -57t53.5 -133q0 -79 -53 -137t-138 -58 q-84 0 -137 58t-53 137zM285 203q0 -45 30 -82t84 -37q51 0 74 28t25 70l4 148q0 35 -17 35q-24 0 -90 -25q-52 -18 -81 -47.5t-29 -89.5zM340 1139q0 -55 24 -90t66 -35t66 35t24 90q0 53 -24 87t-66 34t-66 -34t-24 -87z" />
<glyph unicode="&#xe6;" horiz-adv-x="1259" d="M66 164q0 40 12 72t50.5 65t104.5 55l234 80q24 7 31.5 15.5t7.5 27.5v70q0 41 -4.5 71.5t-17 60.5t-40 46t-67.5 16q-42 0 -74 -22.5t-39 -61.5q-9 -58 -33 -75q-20 -14 -61 -27.5t-70 -13.5q-14 0 -23 8.5t-9 21.5q0 61 79 134q47 47 144.5 88t175.5 41q65 0 123 -22.5 t82 -74.5q126 97 278 97q128 0 204.5 -70t76.5 -160q0 -25 -12.5 -36.5t-49.5 -22.5l-426 -125q-25 -7 -33 -14t-8 -17v-20q0 -112 82.5 -187t188.5 -75q145 0 221 106q15 3 28 -5.5t13 -23.5q-47 -105 -136.5 -160t-209.5 -55q-200 0 -301 140l-70 -48q-139 -92 -244 -92 q-102 0 -155 57.5t-53 135.5zM281 207q0 -47 30 -84t88 -37q39 0 73 24t34 64v150q0 36 -17 36q-21 0 -94 -26q-57 -21 -85.5 -47.5t-28.5 -79.5zM702 512q0 -19 52 -4l219 65q67 19 67 48q0 47 -39 90t-100 43q-87 0 -143 -71t-56 -159v-12z" />
<glyph unicode="&#xe7;" horiz-adv-x="823" d="M63 377q0 91 33 173t94.5 146t159 102t217.5 38q93 0 176 -29q41 -38 41 -105q0 -44 -17.5 -70t-33.5 -26q-21 0 -39 23q-95 125 -186 125q-94 0 -166 -85t-72 -223q0 -85 33.5 -157.5t102 -119t157.5 -46.5q63 0 108 16t67 36.5t46 55.5q15 2 28.5 -8t14.5 -28 q-70 -160 -239 -205l-62 -82q-11 -16 -7.5 -22t24.5 -17q106 -56 106 -145q0 -71 -64.5 -117.5t-152.5 -46.5q-60 0 -94.5 20.5t-34.5 57.5q0 24 15 40.5t40 16.5q24 0 60 -33t53 -33t32 16.5t15 43.5q0 34 -38.5 67t-92.5 56l-6 12l113 149q-10 -2 -27 -2 q-81 0 -156.5 29.5t-128.5 81.5q-55 54 -87 131t-32 164z" />
<glyph unicode="&#xe8;" horiz-adv-x="837" d="M63 381q0 87 29.5 168.5t83.5 145.5t137.5 102.5t182.5 38.5q78 0 147 -31t114.5 -96t45.5 -150q0 -27 -10 -47q-18 -27 -142 -27h-354q-30 0 -36.5 -4t-6.5 -22q0 -140 87 -236t222 -96q134 0 197 102q14 4 28.5 -7t16.5 -25q-33 -78 -93 -130.5t-123 -74t-130 -21.5 q-176 0 -286 116.5t-110 293.5zM209 1296q0 18 11.5 30.5t39.5 31.5q47 28 72 28q36 0 63 -67l148 -375q-8 -35 -51 -29l-236 302q-5 7 -15 19t-14 17.5t-9 13.5t-7 15t-2 14zM270 582q0 -15 29 -15h186q75 0 101 15q20 13 20 43q0 58 -35.5 95.5t-99.5 37.5 q-48 0 -88.5 -21t-64 -51t-36 -58t-12.5 -46z" />
<glyph unicode="&#xe9;" horiz-adv-x="837" d="M63 381q0 87 29.5 168.5t83.5 145.5t137.5 102.5t182.5 38.5q78 0 147 -31t114.5 -96t45.5 -150q0 -27 -10 -47q-18 -27 -142 -27h-354q-30 0 -36.5 -4t-6.5 -22q0 -140 87 -236t222 -96q134 0 197 102q14 4 28.5 -7t16.5 -25q-33 -78 -93 -130.5t-123 -74t-130 -21.5 q-176 0 -286 116.5t-110 293.5zM270 582q0 -15 29 -15h186q75 0 101 15q20 13 20 43q0 58 -35.5 95.5t-99.5 37.5q-48 0 -88.5 -21t-64 -51t-36 -58t-12.5 -46zM397 944l174 371q32 65 64 65q29 0 78 -32q27 -19 37 -33t10 -33q0 -7 -2 -14t-8.5 -16t-10 -13.5t-14 -16.5 t-14.5 -16l-265 -293q-43 -3 -49 31z" />
<glyph unicode="&#xea;" horiz-adv-x="837" d="M63 381q0 87 29.5 168.5t83.5 145.5t137.5 102.5t182.5 38.5q78 0 147 -31t114.5 -96t45.5 -150q0 -27 -10 -47q-18 -27 -142 -27h-354q-30 0 -36.5 -4t-6.5 -22q0 -140 87 -236t222 -96q134 0 197 102q14 4 28.5 -7t16.5 -25q-33 -78 -93 -130.5t-123 -74t-130 -21.5 q-176 0 -286 116.5t-110 293.5zM221 928l203 401q14 27 43 27q24 0 41 -27l194 -391q-1 -17 -15 -26t-34 -9l-143 178q-36 45 -47 45q-7 0 -53 -55l-144 -172q-38 -3 -45 29zM270 582q0 -15 29 -15h186q75 0 101 15q20 13 20 43q0 58 -35.5 95.5t-99.5 37.5q-48 0 -88.5 -21 t-64 -51t-36 -58t-12.5 -46z" />
<glyph unicode="&#xeb;" horiz-adv-x="837" d="M63 381q0 87 29.5 168.5t83.5 145.5t137.5 102.5t182.5 38.5q78 0 147 -31t114.5 -96t45.5 -150q0 -27 -10 -47q-18 -27 -142 -27h-354q-30 0 -36.5 -4t-6.5 -22q0 -140 87 -236t222 -96q134 0 197 102q14 4 28.5 -7t16.5 -25q-33 -78 -93 -130.5t-123 -74t-130 -21.5 q-176 0 -286 116.5t-110 293.5zM162 1108q0 53 35 89t88 36q48 0 81 -35.5t33 -79.5q0 -56 -32 -90.5t-82 -34.5q-54 0 -88 30t-35 85zM270 582q0 -15 29 -15h186q75 0 101 15q20 13 20 43q0 58 -35.5 95.5t-99.5 37.5q-48 0 -88.5 -21t-64 -51t-36 -58t-12.5 -46zM528 1108 q-2 53 32.5 89t86.5 36q51 0 84 -35t33 -80q0 -57 -32 -91t-85 -34t-85.5 30t-33.5 85z" />
<glyph unicode="&#xec;" horiz-adv-x="548" d="M12 1307q0 18 11 30t40 31q49 29 72 29q37 0 64 -68l147 -375q-8 -34 -51 -28l-236 301q-4 6 -14.5 19t-14 18t-9 13.5t-7.5 15.5t-2 14zM56.5 21.5q-1.5 21.5 9.5 31.5l36 6q37 6 52 21t20.5 49t5.5 115v301q0 75 -7.5 100t-43.5 47l-25 15q-5 6 -4.5 23t6.5 24 q168 49 267 110q20 -3 28 -16q-6 -102 -6 -250v-354q0 -81 5.5 -115t20.5 -49t52 -21l37 -6q11 -10 9.5 -31.5t-13.5 -27.5q-114 6 -221 6q-98 0 -215 -6q-12 6 -13.5 27.5z" />
<glyph unicode="&#xed;" horiz-adv-x="548" d="M56.5 21.5q-1.5 21.5 9.5 31.5l36 6q37 6 52 21t20.5 49t5.5 115v301q0 75 -7.5 100t-43.5 47l-25 15q-5 6 -4.5 23t6.5 24q168 49 267 110q20 -3 28 -16q-6 -102 -6 -250v-354q0 -81 5.5 -115t20.5 -49t52 -21l37 -6q11 -10 9.5 -31.5t-13.5 -27.5q-114 6 -221 6 q-98 0 -215 -6q-12 6 -13.5 27.5zM195 944l174 371q32 65 63 65q29 0 78 -32q27 -19 37 -33t10 -33q0 -7 -2 -14t-8.5 -16t-10 -13.5t-14 -16.5t-14.5 -16l-264 -293q-43 -3 -49 31z" />
<glyph unicode="&#xee;" horiz-adv-x="548" d="M43 934l203 401q14 27 43 27q24 0 41 -27l194 -391q-1 -17 -15 -26t-34 -9l-143 170q-36 45 -47 45q-8 0 -54 -55l-143 -164q-38 -3 -45 29zM56.5 21.5q-1.5 21.5 9.5 31.5l36 6q37 6 52 21t20.5 49t5.5 115v301q0 75 -7.5 100t-43.5 47l-25 15q-5 6 -4.5 23t6.5 24 q168 49 267 110q20 -3 28 -16q-6 -102 -6 -250v-354q0 -81 5.5 -115t20.5 -49t52 -21l37 -6q11 -10 9.5 -31.5t-13.5 -27.5q-114 6 -221 6q-98 0 -215 -6q-12 6 -13.5 27.5z" />
<glyph unicode="&#xef;" horiz-adv-x="548" d="M-10 1108q0 53 35 89t88 36q48 0 81 -35.5t33 -79.5q0 -56 -32 -90.5t-82 -34.5q-54 0 -88 30t-35 85zM56.5 21.5q-1.5 21.5 9.5 31.5l36 6q37 6 52 21t20.5 49t5.5 115v301q0 75 -7.5 100t-43.5 47l-25 15q-5 6 -4.5 23t6.5 24q168 49 267 110q20 -3 28 -16 q-6 -102 -6 -250v-354q0 -81 5.5 -115t20.5 -49t52 -21l37 -6q11 -10 9.5 -31.5t-13.5 -27.5q-114 6 -221 6q-98 0 -215 -6q-12 6 -13.5 27.5zM348 1108q-2 53 32.5 89t86.5 36q51 0 84 -35t33 -80q0 -57 -32 -91t-85 -34t-85.5 30t-33.5 85z" />
<glyph unicode="&#xf0;" horiz-adv-x="1003" d="M63 389q0 188 133.5 317.5t323.5 129.5q85 0 156 -29q-31 167 -127 305l-287 -135q-19 6 -31 30.5t-6 43.5l275 131q-73 91 -189 159q-101 60 -190 68q-8 7 -6 28t12 27q164 -5 301 -61q126 -51 223 -148l248 121q19 -8 32 -33t7 -45l-225 -108q112 -132 169.5 -303.5 t57.5 -317.5q0 -296 -117.5 -447t-349.5 -151q-175 0 -292.5 113t-117.5 305zM305 418q0 -95 22 -176.5t68.5 -135t108.5 -53.5q102 0 151.5 92.5t49.5 294.5q0 95 -7 148t-26 88q-19 37 -58 57.5t-79 20.5q-99 0 -164.5 -93t-65.5 -243z" />
<glyph unicode="&#xf1;" horiz-adv-x="1091" d="M47.5 21.5q-1.5 21.5 9.5 31.5l45 6q52 7 65 38.5t13 146.5v301q0 75 -7.5 100t-43.5 47l-25 15q-5 6 -4.5 23t6.5 24q144 41 267 110q18 0 26 -16q-4 -39 -4 -94q0 -18 19 -21q17 9 52.5 30t53 30t47.5 21t60 17t67 5q120 0 182 -75t62 -200v-317q0 -115 13 -147t65 -38 l47 -6q11 -10 9.5 -31.5t-13.5 -27.5q-129 6 -232 6q-101 0 -209 -6q-12 6 -13.5 27.5t9.5 31.5l31 4q52 7 65 39.5t13 147.5v282q0 187 -164 187q-44 0 -81.5 -19t-53.5 -45q-20 -27 -24.5 -49.5t-4.5 -81.5v-274q0 -115 13 -147.5t65 -39.5l31 -4q11 -10 9.5 -31.5 t-13.5 -27.5q-108 6 -217 6q-93 0 -222 -6q-12 6 -13.5 27.5zM289 942q7 36 32.5 98t49.5 88q30 33 59 44.5t74 11.5h110q86 0 119 26q32 19 49 62q7 3 24 1.5t23 -7.5q-12 -48 -38 -103.5t-46 -75.5q-25 -25 -48 -32.5t-62 -7.5h-123q-81 0 -121 -35q-32 -26 -59 -84 q-35 -4 -43 14z" />
<glyph unicode="&#xf2;" horiz-adv-x="1007" d="M63 389q0 133 62.5 236.5t164 157t222.5 53.5q117 0 214 -49t157.5 -146.5t60.5 -226.5q0 -141 -62 -243t-161.5 -151t-224.5 -49q-120 0 -217 47.5t-156.5 144t-59.5 226.5zM242 1296q0 18 11.5 30.5t39.5 31.5q47 28 72 28q36 0 63 -67l147 -375q-8 -35 -51 -29 l-235 302q-5 7 -15 19t-14 17.5t-9 13.5t-7 15t-2 14zM305 420q0 -97 22.5 -178t72.5 -135t120 -54q67 0 109.5 50.5t57.5 119.5t15 156q0 68 -12 132t-35.5 119.5t-66 89.5t-96.5 34q-82 0 -134.5 -85.5t-52.5 -248.5z" />
<glyph unicode="&#xf3;" horiz-adv-x="1007" d="M63 389q0 133 62.5 236.5t164 157t222.5 53.5q117 0 214 -49t157.5 -146.5t60.5 -226.5q0 -141 -62 -243t-161.5 -151t-224.5 -49q-120 0 -217 47.5t-156.5 144t-59.5 226.5zM305 420q0 -97 22.5 -178t72.5 -135t120 -54q67 0 109.5 50.5t57.5 119.5t15 156q0 68 -12 132 t-35.5 119.5t-66 89.5t-96.5 34q-82 0 -134.5 -85.5t-52.5 -248.5zM424 944l174 371q32 65 64 65q28 0 77 -32q27 -19 37 -33t10 -33q0 -7 -2 -14t-8.5 -16t-10 -13.5t-14 -16.5t-14.5 -16l-264 -293q-43 -3 -49 31z" />
<glyph unicode="&#xf4;" horiz-adv-x="1007" d="M63 389q0 133 62.5 236.5t164 157t222.5 53.5q117 0 214 -49t157.5 -146.5t60.5 -226.5q0 -141 -62 -243t-161.5 -151t-224.5 -49q-120 0 -217 47.5t-156.5 144t-59.5 226.5zM264 930l203 401q14 27 43 27q24 0 41 -27l194 -391q-1 -17 -15 -26t-34 -9l-143 168 q-36 45 -47 45q-4 0 -9.5 -6t-19 -21.5t-24.5 -27.5l-144 -162q-38 -3 -45 29zM305 420q0 -97 22.5 -178t72.5 -135t120 -54q67 0 109.5 50.5t57.5 119.5t15 156q0 68 -12 132t-35.5 119.5t-66 89.5t-96.5 34q-82 0 -134.5 -85.5t-52.5 -248.5z" />
<glyph unicode="&#xf5;" horiz-adv-x="1007" d="M63 389q0 133 62.5 236.5t164 157t222.5 53.5q117 0 214 -49t157.5 -146.5t60.5 -226.5q0 -141 -62 -243t-161.5 -151t-224.5 -49q-120 0 -217 47.5t-156.5 144t-59.5 226.5zM236 932q7 38 32.5 100t50.5 90q29 32 58.5 43t75.5 11h112q86 0 119 26q32 23 49 64 q7 3 24 1.5t23 -7.5q-10 -47 -37 -103t-49 -78q-25 -25 -47 -33t-61 -8h-125q-84 0 -121 -37q-27 -19 -61 -81q-35 -4 -43 12zM305 420q0 -97 22.5 -178t72.5 -135t120 -54q67 0 109.5 50.5t57.5 119.5t15 156q0 68 -12 132t-35.5 119.5t-66 89.5t-96.5 34 q-82 0 -134.5 -85.5t-52.5 -248.5z" />
<glyph unicode="&#xf6;" horiz-adv-x="1007" d="M63 389q0 133 62.5 236.5t164 157t222.5 53.5q117 0 214 -49t157.5 -146.5t60.5 -226.5q0 -141 -62 -243t-161.5 -151t-224.5 -49q-120 0 -217 47.5t-156.5 144t-59.5 226.5zM203 1108q0 53 35 89t88 36q48 0 81 -35.5t33 -79.5q0 -56 -32 -90.5t-82 -34.5q-54 0 -88 30 t-35 85zM305 420q0 -97 22.5 -178t72.5 -135t120 -54q67 0 109.5 50.5t57.5 119.5t15 156q0 68 -12 132t-35.5 119.5t-66 89.5t-96.5 34q-82 0 -134.5 -85.5t-52.5 -248.5zM582 1108q-2 53 32 89t86 36q51 0 84 -35t33 -80q0 -57 -32 -91t-85 -34q-52 0 -84.5 29.5 t-33.5 85.5z" />
<glyph unicode="&#xf7;" d="M129 356v129h789v-129h-789zM408 154q0 42 32.5 74t77.5 32q42 0 74.5 -32t32.5 -74q0 -45 -32 -78t-75 -33q-46 0 -78 32.5t-32 78.5zM408 692q0 42 32.5 74.5t77.5 32.5q42 0 74.5 -32.5t32.5 -74.5q0 -45 -32 -77.5t-75 -32.5q-46 0 -78 32t-32 78z" />
<glyph unicode="&#xf8;" horiz-adv-x="1015" d="M63 389q0 101 36.5 186t98.5 141.5t144.5 88t173.5 31.5q121 0 213 -50l64 93q20 3 41 -10.5t22 -32.5l-61 -91q157 -118 157 -327q0 -108 -35.5 -194t-97.5 -140.5t-143 -83.5t-174 -29q-121 0 -213 47l-76 -108q-18 -3 -38 13t-19 36l67 98q-160 111 -160 332zM297 420 q0 -119 33 -209l317 457q-57 86 -149 86q-93 0 -147 -84.5t-54 -249.5zM371 135q56 -82 151 -82q56 0 96 28t61 76.5t30.5 103t9.5 118.5q0 121 -33 209z" />
<glyph unicode="&#xf9;" horiz-adv-x="1064" d="M57.5 773.5q0.5 21.5 12.5 25.5q87 1 167 12.5t117 24.5q18 -4 21 -19q-6 -37 -6 -174v-315q0 -40 3.5 -71t14 -63t28.5 -53t49 -34t73 -13q81 0 135 51q15 15 19.5 36.5t4.5 78.5v309q0 68 -7.5 97t-23 41t-59.5 26l-33 10q-11 7 -10.5 28.5t12.5 27.5q106 2 199 12 t123 25q18 -4 21 -19q-7 -68 -7 -174v-342q0 -107 9.5 -162t42.5 -55q37 0 88 14q13 -7 12.5 -32.5t-19.5 -36.5q-83 -9 -179 -29.5t-156 -48.5q-16 3 -19 20q8 52 6 76q-3 23 -20 23q-80 -47 -145 -73t-134 -26q-132 0 -187.5 69t-55.5 204v319q0 74 -5 107t-16.5 46 t-38.5 21l-28 8q-9 7 -8.5 28.5zM270 1298q0 18 11.5 30.5t40.5 31.5q49 29 71 29q37 0 64 -68l147 -375q-8 -34 -51 -28l-236 301q-5 7 -15 19t-14 17.5t-9 13.5t-7 15t-2 14z" />
<glyph unicode="&#xfa;" horiz-adv-x="1064" d="M57.5 773.5q0.5 21.5 12.5 25.5q87 1 167 12.5t117 24.5q18 -4 21 -19q-6 -37 -6 -174v-315q0 -40 3.5 -71t14 -63t28.5 -53t49 -34t73 -13q81 0 135 51q15 15 19.5 36.5t4.5 78.5v309q0 68 -7.5 97t-23 41t-59.5 26l-33 10q-11 7 -10.5 28.5t12.5 27.5q106 2 199 12 t123 25q18 -4 21 -19q-7 -68 -7 -174v-342q0 -107 9.5 -162t42.5 -55q37 0 88 14q13 -7 12.5 -32.5t-19.5 -36.5q-83 -9 -179 -29.5t-156 -48.5q-16 3 -19 20q8 52 6 76q-3 23 -20 23q-80 -47 -145 -73t-134 -26q-132 0 -187.5 69t-55.5 204v319q0 74 -5 107t-16.5 46 t-38.5 21l-28 8q-9 7 -8.5 28.5zM442 946l174 371q32 65 64 65q29 0 78 -32q27 -19 37 -33t10 -33q0 -7 -2 -14t-8.5 -16t-10 -13.5t-14 -16.5t-14.5 -16l-264 -293q-44 -3 -50 31z" />
<glyph unicode="&#xfb;" horiz-adv-x="1064" d="M57.5 773.5q0.5 21.5 12.5 25.5q87 1 167 12.5t117 24.5q18 -4 21 -19q-6 -37 -6 -174v-315q0 -40 3.5 -71t14 -63t28.5 -53t49 -34t73 -13q81 0 135 51q15 15 19.5 36.5t4.5 78.5v309q0 68 -7.5 97t-23 41t-59.5 26l-33 10q-11 7 -10.5 28.5t12.5 27.5q106 2 199 12 t123 25q18 -4 21 -19q-7 -68 -7 -174v-342q0 -107 9.5 -162t42.5 -55q37 0 88 14q13 -7 12.5 -32.5t-19.5 -36.5q-83 -9 -179 -29.5t-156 -48.5q-16 3 -19 20q8 52 6 76q-3 23 -20 23q-80 -47 -145 -73t-134 -26q-132 0 -187.5 69t-55.5 204v319q0 74 -5 107t-16.5 46 t-38.5 21l-28 8q-9 7 -8.5 28.5zM283 928l202 401q14 27 43 27q24 0 41 -27l195 -391q-1 -17 -15 -26t-34 -9l-144 178q-36 45 -47 45q-7 0 -53 -55l-143 -172q-38 -3 -45 29z" />
<glyph unicode="&#xfc;" horiz-adv-x="1064" d="M57.5 773.5q0.5 21.5 12.5 25.5q87 1 167 12.5t117 24.5q18 -4 21 -19q-6 -37 -6 -174v-315q0 -40 3.5 -71t14 -63t28.5 -53t49 -34t73 -13q81 0 135 51q15 15 19.5 36.5t4.5 78.5v309q0 68 -7.5 97t-23 41t-59.5 26l-33 10q-11 7 -10.5 28.5t12.5 27.5q106 2 199 12 t123 25q18 -4 21 -19q-7 -68 -7 -174v-342q0 -107 9.5 -162t42.5 -55q37 0 88 14q13 -7 12.5 -32.5t-19.5 -36.5q-83 -9 -179 -29.5t-156 -48.5q-16 3 -19 20q8 52 6 76q-3 23 -20 23q-80 -47 -145 -73t-134 -26q-132 0 -187.5 69t-55.5 204v319q0 74 -5 107t-16.5 46 t-38.5 21l-28 8q-9 7 -8.5 28.5zM223 1108q0 53 35 89t88 36q48 0 81.5 -35.5t33.5 -79.5q0 -56 -32.5 -90.5t-82.5 -34.5q-54 0 -88 30t-35 85zM590 1108q-2 53 32.5 89t86.5 36q50 0 83 -35t33 -80q0 -57 -31.5 -91t-84.5 -34t-85.5 30t-33.5 85z" />
<glyph unicode="&#xfd;" horiz-adv-x="917" d="M-24 786.5q1 20.5 18 26.5q102 -6 227 -6q112 0 217 6q12 -6 13.5 -27.5t-9.5 -31.5l-61 -13q-25 -5 -32.5 -13.5t-4 -27.5t22.5 -67l90 -236q57 -151 69 -155q9 2 66 127l61 137q22 51 40 98t26 71.5t8 29.5q0 14 -8.5 22t-30.5 12l-70 15q-10 12 -8.5 31.5t13.5 27.5 q111 -6 194 -6q81 0 164 6q14 -4 15.5 -26.5t-9.5 -32.5q-1 0 -18 -4t-26.5 -6.5t-25 -7.5t-27.5 -12t-20 -15q-44 -44 -125 -207l-104 -209q-234 -465 -338 -692q-50 -111 -156 -111q-56 0 -84 31t-28 78q0 88 104 92l45 2q61 4 86 41q39 56 70 127t31 129q0 63 -35 151 l-166 430q-39 102 -62 132.5t-79 41.5l-41 9q-13 12 -12 32.5zM410 954l174 371q32 66 63 66q28 0 78 -33q27 -19 37 -33t10 -33q0 -7 -2.5 -14t-8 -15.5t-10 -13.5t-14 -16t-14.5 -16l-264 -293q-43 -3 -49 30z" />
<glyph unicode="&#xfe;" horiz-adv-x="1069" d="M23.5 -500.5q-1.5 21.5 9.5 31.5l53 6q52 6 65 37.5t13 146.5v1360q0 104 -7.5 131.5t-45.5 51.5l-23 14q-9 6 -9.5 24t9.5 23q74 22 268 98q9 1 17.5 -3.5t11.5 -12.5q-6 -123 -6 -297v-336q0 -23 16 -26q2 1 35.5 18.5t63 31t75.5 26t84 12.5q163 0 258 -108t95 -271 q0 -215 -139 -350.5t-365 -135.5q-52 0 -92 9q-31 -7 -31 -58v-201q0 -115 13 -145.5t67 -36.5l73 -8q11 -10 9.5 -31.5t-13.5 -27.5q-159 6 -262 6q-106 0 -229 -6q-12 6 -13.5 27.5zM379 223q0 -45 15 -74t48 -57q21 -17 54 -28t59 -11q104 0 161.5 94.5t57.5 241.5 q0 146 -71.5 237t-190.5 91q-70 0 -111 -41q-22 -25 -22 -139v-314z" />
<glyph unicode="&#xff;" horiz-adv-x="917" d="M-24 786.5q1 20.5 18 26.5q102 -6 227 -6q112 0 217 6q12 -6 13.5 -27.5t-9.5 -31.5l-61 -13q-25 -5 -32.5 -13.5t-4 -27.5t22.5 -67l90 -236q57 -151 69 -155q9 2 66 127l61 137q22 51 40 98t26 71.5t8 29.5q0 14 -8.5 22t-30.5 12l-70 15q-10 12 -8.5 31.5t13.5 27.5 q111 -6 194 -6q81 0 164 6q14 -4 15.5 -26.5t-9.5 -32.5q-1 0 -18 -4t-26.5 -6.5t-25 -7.5t-27.5 -12t-20 -15q-44 -44 -125 -207l-104 -209q-234 -465 -338 -692q-50 -111 -156 -111q-56 0 -84 31t-28 78q0 88 104 92l45 2q61 4 86 41q39 56 70 127t31 129q0 63 -35 151 l-166 430q-39 102 -62 132.5t-79 41.5l-41 9q-13 12 -12 32.5zM205 1108q0 53 35 89t88 36q48 0 81 -35.5t33 -79.5q0 -56 -32 -90.5t-82 -34.5q-54 0 -88 30t-35 85zM573 1108q-2 53 32.5 89t86.5 36q51 0 84 -35t33 -80q0 -57 -32 -91t-85 -34t-85.5 30t-33.5 85z" />
<glyph unicode="&#x152;" horiz-adv-x="2080" d="M86 657q0 116 34.5 220.5t105 192.5t170 152t236.5 100t298 36q45 0 160.5 -3t179.5 -3h379q235 0 276 6q3 -15 9 -66t12.5 -117.5t11.5 -101.5q-6 -12 -30 -14.5t-36 6.5q-25 91 -52.5 132t-76.5 54q-74 19 -164 19h-137q-65 0 -76.5 -16t-11.5 -105v-348q0 -38 7 -45.5 t42 -7.5h99q140 0 177 13t50 77l14 69q12 11 35.5 10.5t30.5 -12.5q-6 -165 -6 -205q0 -17 6 -215q-7 -10 -30.5 -10.5t-35.5 8.5l-14 82q-10 62 -49 76t-178 14h-99q-35 0 -42 -8t-7 -47v-260q0 -89 7 -139t28 -74q20 -24 65 -34t166 -11q79 -1 133 7t91 21.5t64.5 43.5 t46 61.5t42.5 87.5q13 11 35 7t31 -19q-9 -65 -36.5 -160.5t-49.5 -136.5q-135 6 -506 6h-213q-84 0 -202 -6t-165 -6q-201 0 -359.5 50.5t-259.5 140.5t-153.5 211.5t-52.5 266.5zM365 678q0 -96 20.5 -185t63.5 -166t104.5 -134t149 -90t190.5 -33q112 0 182 39 q62 35 62 112v897q0 43 -6.5 69.5t-28 49t-64 32t-110.5 9.5q-143 0 -252.5 -46.5t-176.5 -129.5t-100.5 -190t-33.5 -234z" />
<glyph unicode="&#x153;" horiz-adv-x="1495" d="M63 389q0 101 36.5 186t98.5 141.5t144.5 88t173.5 31.5q202 0 307 -148q54 66 139 107t179 41q83 0 154 -31t117 -95.5t46 -150.5q0 -27 -10 -47q-18 -27 -141 -27h-357q-30 0 -36.5 -4t-6.5 -22q0 -147 86 -239.5t232 -92.5q131 0 194 102q14 4 28.5 -7t16.5 -25 q-49 -114 -144.5 -170t-197.5 -56q-194 0 -313 144q-105 -144 -320 -144q-116 0 -211.5 47.5t-155 144t-59.5 226.5zM305 420q0 -98 21.5 -178.5t72.5 -134.5t123 -54q53 0 91.5 28t58.5 76.5t29.5 103t9.5 118.5q0 94 -20 175.5t-70 140.5t-123 59q-87 0 -140 -85t-53 -249 zM926 582q0 -15 28 -15h156q109 0 135 15q21 10 21 36q0 59 -37 99.5t-103 40.5q-48 0 -88.5 -21t-63.5 -51t-35.5 -58t-12.5 -46z" />
<glyph unicode="&#x178;" horiz-adv-x="1208" d="M-31 1331q3 23 15 27q132 -6 258 -6q192 0 262 6q12 -6 14 -27.5t-10 -32.5l-62 -10q-26 -5 -34.5 -9.5t-8.5 -16.5q0 -26 37 -107q150 -330 238 -491q147 274 240 452q55 110 55 137q0 25 -47 31l-62 14q-11 10 -9.5 31.5t15.5 28.5q135 -6 215 -6q96 0 195 6 q13 -7 14 -27.5t-10 -32.5l-59 -12q-67 -13 -104 -53.5t-120 -181.5q-66 -110 -194 -344q-47 -82 -61.5 -134.5t-14.5 -154.5v-123q0 -56 1.5 -92t7.5 -63t12.5 -40t23 -22t30.5 -11.5t44 -5.5l78 -8q11 -10 9.5 -31.5t-13.5 -27.5q-190 6 -310 6q-131 0 -297 -6 q-12 6 -13.5 27.5t9.5 31.5l66 8q29 4 42.5 6.5t29.5 11.5t22 22t12 39.5t7.5 62.5t1.5 92v121q0 84 -11.5 126.5t-54.5 127.5l-246 485q-36 70 -61.5 93.5t-91.5 37.5l-54 12q-9 10 -6 33zM358 1554q0 52 34 86.5t85 34.5q48 0 81.5 -33t33.5 -77q0 -55 -32.5 -88 t-82.5 -33t-84 28.5t-35 81.5zM737 1554q0 52 34 86.5t85 34.5q48 0 81.5 -33t33.5 -77q0 -55 -32.5 -88t-82.5 -33t-84 28.5t-35 81.5z" />
<glyph unicode="&#x2c6;" horiz-adv-x="778" d="M137 948l211 422q16 27 45 27q30 0 43 -27l205 -409q-1 -17 -16 -27t-35 -10l-152 188q-2 2 -5 6q-34 39 -44 41q-3 0 -8.5 -6.5t-19.5 -23t-25 -29.5l-152 -180q-18 -1 -31 7t-16 21z" />
<glyph unicode="&#x2dc;" horiz-adv-x="778" d="M117 942q7 37 33 100t51 91q29 32 58 42.5t75 10.5h112q86 0 119 26q32 23 49 64q7 3 24.5 1.5t23.5 -7.5q-10 -46 -37.5 -102t-49.5 -78q-25 -25 -47 -33t-61 -8h-125q-84 0 -121 -37q-26 -18 -61 -82q-35 -4 -43 12z" />
<glyph unicode="&#x2000;" horiz-adv-x="905" />
<glyph unicode="&#x2001;" horiz-adv-x="1810" />
<glyph unicode="&#x2002;" horiz-adv-x="905" />
<glyph unicode="&#x2003;" horiz-adv-x="1810" />
<glyph unicode="&#x2004;" horiz-adv-x="603" />
<glyph unicode="&#x2005;" horiz-adv-x="452" />
<glyph unicode="&#x2006;" horiz-adv-x="301" />
<glyph unicode="&#x2007;" horiz-adv-x="301" />
<glyph unicode="&#x2008;" horiz-adv-x="226" />
<glyph unicode="&#x2009;" horiz-adv-x="362" />
<glyph unicode="&#x200a;" horiz-adv-x="100" />
<glyph unicode="&#x2010;" horiz-adv-x="655" d="M66 399q0 38 18 68l487 45q19 -19 19 -68q0 -40 -19 -65l-487 -45q-18 18 -18 65z" />
<glyph unicode="&#x2011;" horiz-adv-x="655" d="M66 399q0 38 18 68l487 45q19 -19 19 -68q0 -40 -19 -65l-487 -45q-18 18 -18 65z" />
<glyph unicode="&#x2012;" horiz-adv-x="655" d="M66 399q0 38 18 68l487 45q19 -19 19 -68q0 -40 -19 -65l-487 -45q-18 18 -18 65z" />
<glyph unicode="&#x2013;" horiz-adv-x="1024" d="M0 358v125h1024v-125h-1024z" />
<glyph unicode="&#x2014;" horiz-adv-x="2048" d="M0 358v125h2048v-125h-2048z" />
<glyph unicode="&#x2018;" horiz-adv-x="507" d="M102 1139q0 111 83.5 194t197.5 111q11 -9 15 -25t-1 -28q-166 -70 -166 -187q0 -47 34 -74t77 -32q26 -3 45 -22.5t19 -51.5q0 -35 -28 -65.5t-89 -30.5q-75 0 -131 63t-56 148z" />
<glyph unicode="&#x2019;" horiz-adv-x="507" d="M102 1337q0 35 28 66t89 31q75 0 131 -63t56 -148q0 -111 -83.5 -194t-197.5 -111q-11 9 -15 25t1 28q165 69 165 186q0 47 -33.5 74.5t-76.5 32.5q-26 3 -45 22.5t-19 50.5z" />
<glyph unicode="&#x201a;" horiz-adv-x="507" d="M102 129q0 35 28 65.5t89 30.5q75 0 131 -63t56 -148q0 -111 -83.5 -194t-197.5 -111q-11 9 -15 25t1 28q165 69 165 187q0 47 -33.5 74t-76.5 32q-26 3 -45 22.5t-19 51.5z" />
<glyph unicode="&#x201c;" horiz-adv-x="897" d="M102 1139q0 111 83.5 194t197.5 111q11 -9 15 -25t-1 -28q-166 -70 -166 -187q0 -47 34 -74t77 -32q26 -3 45 -22.5t19 -51.5q0 -35 -28 -65.5t-89 -30.5q-75 0 -131 63t-56 148zM492 1139q0 111 83 194t197 111q11 -9 15 -25t-1 -28q-165 -69 -165 -187q0 -47 33.5 -74 t76.5 -32q26 -3 45 -22.5t19 -51.5q0 -35 -28 -65.5t-89 -30.5q-75 0 -130.5 63t-55.5 148z" />
<glyph unicode="&#x201d;" horiz-adv-x="897" d="M102 1337q0 35 28 66t89 31q75 0 131 -63t56 -148q0 -111 -83.5 -194t-197.5 -111q-11 9 -15 25t1 28q165 69 165 186q0 47 -33.5 74.5t-76.5 32.5q-26 3 -45 22.5t-19 50.5zM492 1337q0 35 27.5 66t88.5 31q75 0 131 -63t56 -148q0 -111 -83.5 -194t-197.5 -111 q-11 9 -15 25t1 28q166 70 166 186q0 47 -34 74.5t-77 32.5q-26 3 -44.5 22t-18.5 51z" />
<glyph unicode="&#x201e;" horiz-adv-x="897" d="M102 129q0 35 28 65.5t89 30.5q75 0 131 -63t56 -148q0 -111 -83.5 -194t-197.5 -111q-11 9 -15 25t1 28q165 69 165 187q0 47 -33.5 74t-76.5 32q-26 3 -45 22.5t-19 51.5zM492 129q0 35 27.5 65.5t88.5 30.5q75 0 131 -63t56 -148q0 -111 -83.5 -194t-197.5 -111 q-11 9 -15 25t1 28q166 70 166 187q0 47 -34 74t-77 32q-26 3 -44.5 22.5t-18.5 51.5z" />
<glyph unicode="&#x2022;" horiz-adv-x="815" d="M102 688q0 129 89 217t217 88t216.5 -88t88.5 -217q0 -128 -88.5 -215.5t-216.5 -87.5t-217 87.5t-89 215.5z" />
<glyph unicode="&#x2026;" horiz-adv-x="2048" d="M207 106q0 57 38.5 96.5t96.5 39.5q57 0 95 -39.5t38 -96.5t-38 -96t-95 -39q-58 0 -96.5 39t-38.5 96zM889 106q0 57 38.5 96.5t96.5 39.5q57 0 95 -39.5t38 -96.5t-38 -96t-95 -39q-58 0 -96.5 39t-38.5 96zM1571 106q0 57 38.5 96.5t96.5 39.5q57 0 95 -39.5t38 -96.5 t-38 -96t-95 -39q-58 0 -96.5 39t-38.5 96z" />
<glyph unicode="&#x202f;" horiz-adv-x="362" />
<glyph unicode="&#x2039;" horiz-adv-x="524" d="M92.5 421q-0.5 14 16.5 34q146 159 286 325q29 -4 37 -28l-147 -303q-13 -27 0 -54l147 -307q-9 -23 -37 -29q-172 203 -286 328q-16 20 -16.5 34z" />
<glyph unicode="&#x203a;" horiz-adv-x="524" d="M92 88l148 307q14 27 0 54l-148 303q8 24 37 28q128 -152 287 -325q17 -20 16.5 -34t-16.5 -34q-127 -138 -287 -328q-28 6 -37 29z" />
<glyph unicode="&#x205f;" horiz-adv-x="452" />
<glyph unicode="&#x20ac;" d="M26.5 553q8.5 31 20.5 41h76q-3 34 2 108h-72q-10 8 -0.5 40t21.5 42h63q39 241 190.5 383t352.5 142q33 0 69 -4.5t57.5 -9.5t60 -14.5t51.5 -12.5q10 -3 25 -7t24 -6q7 -187 18 -264q-9 -12 -27.5 -13.5t-27.5 9.5q-8 28 -11.5 40.5t-15.5 43.5t-23.5 48t-32 41.5 t-44.5 37.5t-59 23t-76 10q-112 0 -190 -112t-99 -335h541q5 -8 0 -41t-21 -41h-528q-2 -12 -2 -108h510q10 -9 2.5 -41t-23.5 -41h-485q15 -229 92 -348t209 -119q48 0 90 18.5t69 42.5t53.5 63.5t38 62.5t27.5 59q12 12 29 9t25 -17q-25 -134 -74 -254q-13 -2 -62 -17 q-125 -45 -227 -45q-214 0 -352.5 144t-163.5 401h-100q-9 10 -0.5 41z" />
<glyph unicode="&#x2122;" horiz-adv-x="1249" d="M61 1237q10 62 27 137q3 8 15.5 8t15.5 -8q12 -15 21 -18.5t38 -3.5h248q17 0 22.5 0.5t14.5 5.5t20 16q5 8 16 8t13 -8q-11 -66 -8 -143q-3 -12 -18.5 -12.5t-18.5 8.5q-8 37 -24.5 54t-51.5 17h-26q-10 0 -12.5 -3.5t-2.5 -18.5v-195q0 -48 6 -65t29 -21l31 -6 q6 -5 5 -21t-7 -18q-43 2 -140 2q-77 0 -114 -2q-4 3 -4 18t4 21l30 6q22 4 28.5 24t6.5 68v189q0 16 -2.5 19t-19.5 3h-15q-33 0 -54 -15.5t-34 -51.5q-4 -11 -21 -8.5t-18 14.5zM554.5 968q-0.5 15 2.5 21l12 2q27 4 37 15t12 32q17 153 17 217q0 29 -11 41t-36 15l-15 4 q-12 3 -11 20t13 19q17 0 42 -1t36 -1q57 0 129 2q0 -21 43 -109l37 -71q16 -31 25 -31q10 0 22 24l33 72q38 88 45 115q61 -2 94 -2q74 0 97 2q9 -1 9.5 -18.5t-7.5 -20.5l-19 -4q-24 -3 -30.5 -12.5t-6.5 -34.5q0 -130 6 -209q1 -33 6.5 -43t20.5 -15l29 -8q9 -3 9 -19.5 t-9 -19.5q-27 2 -119 2q-77 0 -106 -2q-5 3 -5.5 19.5t5.5 19.5l28 8q18 4 21.5 12.5t3.5 34.5l-4 191q0 20 -4 20q-5 0 -37 -81l-37 -87q-40 -91 -55 -137q-29 -10 -50 2q-3 14 -11 35t-19 47t-15 35l-43 109q-34 84 -45 90q-3 -5 -8 -101q-1 -16 -1 -37.5t0.5 -46.5 t0.5 -34q2 -33 9 -44t30 -14l18 -2q1 -5 1 -18t-1 -21q-20 2 -92 2q-69 0 -92 -2q-4 3 -4.5 18z" />
<glyph unicode="&#xe000;" horiz-adv-x="808" d="M0 0v809h809v-809h-809z" />
</font>
</defs>
</svg>
